<svg viewBox="0 0 32 32" fill="none" xmlns="http://www.w3.org/2000/svg"><path fill-rule="evenodd" clip-rule="evenodd" d="M16 30.4c7.953 0 14.4-6.447 14.4-14.4S23.953 1.6 16 1.6 1.6 8.047 1.6 16 8.047 30.4 16 30.4zm0 1.6c8.837 0 16-7.163 16-16S24.837 0 16 0 0 7.163 0 16s7.163 16 16 16z" fill="#E82B2B"/><path d="M9.534 11.328H7.63c-.023.57-.827 1.542-2.029 1.542v1.57c1.033 0 1.704-.384 1.905-.694h.087v6.926h1.942v-9.344zM15.252 20.8c2.102 0 3.623-1.127 3.632-2.642-.009-1.168-.904-2.122-2.028-2.309v-.063c.977-.201 1.672-1.05 1.681-2.072-.009-1.446-1.398-2.514-3.285-2.514-1.901 0-3.29 1.068-3.281 2.514a2.071 2.071 0 001.681 2.072v.063c-1.142.188-2.037 1.141-2.028 2.31-.01 1.514 1.508 2.641 3.628 2.641zm0-1.45c-.946 0-1.581-.553-1.572-1.347-.01-.808.658-1.392 1.572-1.392.9 0 1.562.584 1.572 1.392-.01.794-.64 1.346-1.572 1.346zm0-4.176c-.795 0-1.362-.515-1.353-1.255-.009-.725.549-1.232 1.353-1.232.79 0 1.343.507 1.352 1.232-.009.74-.57 1.255-1.352 1.255zM26.4 15.247h-2.248V13.08h-1.53v2.167h-2.25v1.506h2.25v2.167h1.53v-2.167H26.4v-1.506z" fill="#E82B2B"/></svg>