<?xml version="1.0" encoding="utf-8"?>
<!-- Generator: Adobe Illustrator 24.1.3, SVG Export Plug-In . SVG Version: 6.00 Build 0)  -->
<svg version="1.1" id="AG_Logo" xmlns="http://www.w3.org/2000/svg" xmlns:xlink="http://www.w3.org/1999/xlink" x="0px" y="0px"
	 width="220px" height="50px" viewBox="0 0 220 50" style="enable-background:new 0 0 220 50;" xml:space="preserve">
<style type="text/css">
	.st0{fill-rule:evenodd;clip-rule:evenodd;fill:#FF333A;}
	.st1{fill:#FFFFFF;}
</style>
<path class="st0" d="M217,50H3c-1.657,0-3-1.343-3-3V3c0-1.657,1.343-3,3-3h214c1.657,0,3,1.343,3,3v44
	C220,48.657,218.657,50,217,50z"/>
<g>
	<path class="st1" d="M27.789,38.137l-0.986-4.419h-5.247l-0.947,4.419h-5.208l6.155-26.314H27l6.312,26.314H27.789z M26.014,29.655
		c-0.552-2.525-1.105-5.01-1.499-7.575c-0.158-1.144-0.316-2.328-0.434-3.472c-0.237,3.708-0.986,7.377-1.736,11.047H26.014z"/>
	<path class="st1" d="M45.951,17.78c-1.065-0.907-2.288-1.696-3.748-1.696c-1.539,0-2.604,1.026-2.604,2.564
		c0,4.537,7.89,4.458,7.89,11.796c0,4.537-2.722,8.127-7.496,8.127c-1.618,0-3.196-0.434-4.537-1.341v-4.971
		c1.184,0.789,2.407,1.42,3.866,1.42c1.775,0,3.077-1.105,3.077-2.919c0-0.473-0.079-0.907-0.276-1.341
		c-0.473-0.986-1.933-1.854-2.801-2.446c-2.959-2.051-4.853-3.945-4.853-7.772c0-4.142,2.407-7.772,6.865-7.772
		c1.775,0,3.077,0.394,4.616,1.262V17.78z"/>
	<path class="st1" d="M59.695,38.137l-4.853-13.374v13.374h-5.208V11.823h5.208V23.58l4.379-11.757h5.326l-4.852,12.151
		l5.444,14.163H59.695z"/>
	<path class="st1" d="M82.681,23.501c0.04,0.671,0.04,1.341,0.04,2.012c0,1.854-0.079,3.748-0.473,5.563
		c-0.868,4.064-3.511,7.496-7.969,7.496c-7.101,0-9.35-7.654-9.35-13.493c0-6.036,1.973-13.65,9.35-13.65
		c4.024,0,6.628,2.525,7.732,6.233l-5.05,1.973c-0.237-1.539-0.671-3.63-2.643-3.63c-3.551,0-3.827,6.51-3.827,8.995
		c0,2.604,0.118,8.837,3.866,8.837c2.841,0,3.156-3.551,3.196-5.681h-3.314v-4.655H82.681z"/>
	<path class="st1" d="M95.489,38.137l-0.986-4.419h-5.247l-0.947,4.419h-5.208l6.155-26.314H94.7l6.312,26.314H95.489z
		 M93.714,29.655c-0.552-2.525-1.105-5.01-1.499-7.575c-0.158-1.144-0.316-2.328-0.434-3.472c-0.237,3.708-0.986,7.377-1.736,11.047
		H93.714z"/>
	<path class="st1" d="M120.989,38.137l-1.302-18.937c-0.118,2.052-0.434,4.064-0.789,6.076l-2.328,12.861h-3.985l-2.446-11.914
		c-0.276-1.302-0.552-2.604-0.671-3.945l-0.316-3.077l-0.828,18.937h-5.563l2.288-26.314h6.865l2.564,15.544l2.091-15.544h7.022
		l2.722,26.314H120.989z"/>
	<path class="st1" d="M134.03,11.823c1.381,0,3.708,0.079,5.523,1.854c1.42,1.381,2.17,3.551,2.17,5.681
		c0,1.302-0.276,2.604-1.223,3.748c-0.434,0.513-1.105,1.144-2.091,1.539c1.696,0.631,2.525,1.815,2.841,2.328
		c0.75,1.262,0.907,2.722,0.907,3.709c0,1.973-0.513,3.748-1.973,5.208c-2.012,2.012-4.655,2.249-6.194,2.249h-5.523V11.823H134.03z
		 M133.675,22.633c0.828-0.039,1.775-0.394,2.288-0.907c0.75-0.75,0.828-1.854,0.828-2.446c0-0.631-0.079-1.618-0.828-2.367
		c-0.434-0.434-1.144-0.789-2.288-0.789V22.633z M133.675,33.64c0.828,0,1.775-0.276,2.367-0.828
		c0.552-0.513,0.986-1.42,0.986-2.564c0-1.262-0.434-2.209-1.026-2.762c-0.631-0.552-1.578-0.828-2.328-0.828V33.64z"/>
	<path class="st1" d="M144.674,38.137V11.823h5.208v21.383h5.444v4.931H144.674z"/>
	<path class="st1" d="M157.471,38.137V11.823h10.455v4.892h-5.247v5.681h4.616v4.971h-4.616v5.918h5.326v4.853H157.471z"/>
	<path class="st1" d="M180.339,38.137l-4.616-12.112v12.112h-5.208V11.823h5.642c1.933,0,4.064,0.158,5.721,1.262
		c2.091,1.381,3.117,3.945,3.117,6.391c0,2.998-1.184,5.129-3.748,6.707l4.576,11.954H180.339z M175.723,23.146
		c0.276,0.039,0.592,0.039,0.868,0.039c2.249,0,3.353-1.539,3.353-3.669s-0.947-3.59-3.235-3.59h-0.986V23.146z"/>
	<path class="st1" d="M198.462,17.78c-1.065-0.907-2.288-1.696-3.748-1.696c-1.539,0-2.604,1.026-2.604,2.564
		c0,4.537,7.89,4.458,7.89,11.796c0,4.537-2.722,8.127-7.496,8.127c-1.618,0-3.196-0.434-4.537-1.341v-4.971
		c1.184,0.789,2.407,1.42,3.866,1.42c1.775,0,3.077-1.105,3.077-2.919c0-0.473-0.079-0.907-0.276-1.341
		c-0.473-0.986-1.933-1.854-2.801-2.446c-2.959-2.051-4.853-3.945-4.853-7.772c0-4.142,2.407-7.772,6.865-7.772
		c1.775,0,3.077,0.394,4.616,1.262V17.78z"/>
	<circle class="st1" cx="204.031" cy="15.358" r="3.425"/>
</g>
</svg>
