<svg width="500" height="76" viewBox="0 0 500 76" fill="none" xmlns="http://www.w3.org/2000/svg">
<path d="M499.337 3.77309C498.508 6.24309 497.79 8.41452 496.933 10.8845C496.298 12.676 495.055 13.7617 493.066 13.8702C489.724 13.8702 477.154 14.006 473.48 14.006C470.138 14.196 468.204 15.7431 467.596 18.9731C466.657 23.8317 465.801 28.7174 464.917 33.6031C463.591 40.9045 462.293 48.2331 460.884 55.5345C460.055 59.8503 461.491 61.6688 465.911 61.6959C467.541 61.6959 469.171 61.7231 470.773 61.6688C474.392 61.506 476.795 59.6331 477.596 56.1316C478.37 52.2774 478.812 49.6988 479.42 46.496C479.558 45.8445 479.309 45.6002 478.646 45.6274C477.514 45.6274 475.856 45.6545 474.751 45.6274C472.127 45.5188 471.823 44.6231 471.878 42.0988C471.906 39.8459 471.989 37.5931 471.961 35.3402C471.961 34.4717 472.32 34.2003 473.121 34.2003C476.298 34.2003 490.884 34.3088 492.569 34.3088C494.254 34.3088 495.221 35.476 495 37.2945C494.724 39.3574 494.337 41.3931 493.978 43.4559C493.011 48.9117 492.044 54.3402 491.077 59.7959C490.387 63.7045 489.641 67.6131 488.978 71.5488C488.84 72.3631 488.563 72.6617 487.707 72.6345C485.69 72.5802 483.646 72.6345 481.63 72.6074C479.088 72.5531 478.37 71.8474 478.149 69.3774C478.094 68.7259 478.011 67.9388 477.928 67.1245C477.873 66.6359 477.182 66.5545 476.851 67.0703C474.585 70.6803 470.027 73.0959 466.795 73.3674C463.563 73.6388 460.469 73.5302 457.348 73.3674C453.757 73.1502 450.414 72.1731 448.011 69.2688C446.243 67.1517 445.635 64.6274 445.442 61.9945C445.193 58.6017 445.773 55.2902 446.353 51.9788C447.983 42.8859 449.613 33.7931 451.215 24.6731C451.906 20.7917 452.624 16.9374 454.337 13.3274C457.099 7.54596 461.712 4.18023 468.038 3.06737C470.607 2.63308 473.232 2.49737 475.828 2.41595C478.922 2.30737 482.044 2.41595 485.166 2.41595C489.641 2.41595 493.591 2.41595 498.066 2.41595C499.337 2.41595 499.751 2.74166 499.364 3.96309M55.4141 11.9159C56.1876 17.5345 54.9445 23.0445 52.6241 28.2288C51.16 31.5131 48.2594 34.146 44.7235 34.8245C43.9501 34.9602 43.3976 34.9603 43.4528 35.6388C43.4804 36.1274 43.7567 36.1274 44.5854 36.3716C47.4031 37.2131 49.5025 38.9231 50.6075 41.6645C51.4362 43.7274 51.6849 45.8988 51.4362 48.0703C50.9114 52.6303 50.3036 57.2174 48.7014 61.5602C46.381 67.9116 41.6296 71.386 34.9445 72.4445C29.7512 73.2588 24.5301 72.8517 19.3092 72.9331C18.3976 72.9331 17.5136 72.9331 16.602 72.9331C11.7677 72.9331 6.96109 72.9331 2.12683 72.9331C1.21523 72.9331 0.994239 72.716 1.15999 71.8203C2.23733 65.9845 3.25945 60.1488 4.28155 54.3131C6.0495 44.3516 7.81745 34.3631 9.58541 24.4017C10.8009 17.5617 12.0163 10.7217 13.2318 3.90881C13.3699 3.17595 13.4528 2.60595 14.5025 2.63309C24.1434 2.71452 33.7843 2.87737 43.4252 2.87737C50.276 2.87737 54.6959 6.43308 55.4141 11.8888M31.6849 41.7731C28.5357 41.7731 25.7456 41.7731 22.7622 41.7188C21.9335 41.7188 21.5467 41.9359 21.4086 42.7774C20.3589 48.6674 19.2815 54.5302 18.2042 60.3931C18.0384 61.2345 18.3423 61.4788 19.171 61.4788C22.044 61.4788 26.9059 61.4245 29.834 61.3159C32.2373 61.2345 33.8948 59.8231 34.4473 57.4888C35.1103 54.6116 35.939 49.6445 36.4638 46.7402C37.1268 42.9945 34.834 41.746 31.6849 41.746M36.3534 14.1145C33.4804 14.0602 30.5799 14.1145 27.7069 14.0602C26.8506 14.0602 26.5191 14.386 26.381 15.146C25.497 20.0045 24.613 24.8903 23.7014 29.7488C23.5633 30.4545 23.7843 30.6988 24.5025 30.6988C26.4639 30.6988 30.6628 30.6717 32.5965 30.6717C35.9943 30.6717 38.0108 29.0702 38.8395 25.8402C39.4473 23.4517 39.834 20.9817 40.1931 18.5388C40.6075 15.5802 39.3644 14.1688 36.3534 14.1145ZM233.895 2.60594C229.116 2.68737 224.337 2.60595 219.585 2.82309C215.635 3.01309 212.707 4.99452 210.967 8.55024C210.165 10.1788 209.42 11.8345 208.729 13.5174C207.044 17.5888 204.862 22.5017 203.453 25.7588C202.707 27.5231 202.154 28.8802 201.878 29.8574C201.243 31.9474 200.69 33.9559 200.193 35.9102C200.055 36.3988 199.254 36.2902 199.254 35.7745C199.254 35.2859 199.613 30.5631 199.613 29.9659C199.668 28.5545 199.723 27.2245 199.613 25.1074C199.309 19.8145 198.84 14.5217 198.287 9.22881C197.928 5.70024 196.436 3.5288 192.652 2.98594C191.933 2.87737 191.243 2.74167 190.525 2.74167C186.188 2.68738 181.878 2.68738 177.541 2.63309C176.795 2.63309 176.547 2.93165 176.436 3.63737C175.939 6.46022 166.188 60.6374 164.282 71.2774C164.061 72.4988 164.364 72.9059 165.663 72.9331C169.53 72.9331 175.994 72.9603 176.906 72.9603C177.817 72.9603 178.425 72.6074 178.619 71.5488C180.027 63.4874 181.381 55.426 182.956 47.3917C184.337 40.3074 185.248 33.1688 185.718 25.9488C185.911 23.2074 186.16 20.4931 186.464 17.7516C186.491 17.4259 186.878 17.1274 187.072 16.8017C187.403 17.1002 187.79 17.3445 188.066 17.6702C188.177 17.8059 188.121 18.1045 188.149 18.3217C188.287 19.8145 188.425 21.3074 188.563 22.8274C189.143 29.1788 189.723 35.5031 190.331 41.8545C190.663 45.4374 191.022 48.9931 191.381 52.5488C191.547 54.2045 192.21 54.8017 193.922 54.8831C195.138 54.9645 197.265 54.9374 198.536 54.9374C200.442 54.9374 201.326 54.5845 202.127 52.7388C203.701 49.0745 217.735 17.9688 217.9 17.5345C218.232 16.7745 219.806 17.0188 219.558 17.9145C218.646 21.1988 217.762 24.4831 216.851 27.7674C215.911 31.1874 214.806 34.5802 214.116 38.0274C212.652 45.5459 211.409 53.0917 210.055 60.6102C209.337 64.6545 208.315 70.2459 208.149 71.3317C207.956 72.3902 208.342 72.8517 209.282 72.8517C210.221 72.8517 216.989 72.8517 221.326 72.8788C222.237 72.8788 222.348 72.2002 222.458 71.5488C223.701 64.6274 233.563 9.39166 234.613 3.55594C234.751 2.85023 234.641 2.5788 233.867 2.5788M165.746 18.6474C164.751 24.6731 160.359 49.4002 159.171 55.7516C158.646 58.5474 157.735 61.2074 156.381 63.7588C153.563 69.0517 149.061 72.1188 143.177 73.0417C139.558 73.6117 126.022 73.6388 122.983 73.3674C121.409 73.2317 119.779 72.7702 118.315 72.2002C113.867 70.4631 111.795 66.9888 111.381 62.4559C111.077 58.9816 111.574 55.5617 112.182 52.1688C113.259 46.2517 117.182 24.4016 118.177 19.4074C118.95 15.6074 120.331 11.9974 122.79 8.90309C126.105 4.75023 130.663 2.68738 135.856 2.2531C140.469 1.8731 150.994 2.0631 155.387 2.55167C160.166 3.06738 164.254 5.91737 165.469 10.7488C166.132 13.3545 166.188 16.0145 165.773 18.6474M150.635 17.9145C150.939 15.1731 149.558 13.7345 146.74 13.5988C144.171 13.4902 141.602 13.4902 139.033 13.5988C136.519 13.7074 134.724 14.9831 133.867 17.3988C133.591 18.186 133.37 19.0002 133.232 19.8417C131.906 27.1974 130.58 34.5531 129.254 41.9088C128.37 46.9031 127.458 51.9245 126.574 56.9188C126.022 60.0402 127.541 61.8859 130.801 61.9945C131.933 62.0217 136.16 61.9945 137.154 61.9945C140.994 61.9402 143.038 60.366 143.757 56.6745C144.641 52.0331 145.442 47.3645 146.27 42.7231C147.237 37.4031 148.204 32.1102 149.143 26.7902C149.668 23.8316 150.276 20.8731 150.607 17.8874M110.193 10.6945C110.856 13.3002 110.911 15.9602 110.497 18.5931C109.503 24.6188 105.11 49.346 103.922 55.6974C103.398 58.4931 102.486 61.1531 101.132 63.7045C98.3147 68.9974 93.8119 72.0645 87.9279 72.9874C84.3092 73.5574 70.7732 73.5845 67.7346 73.3131C66.16 73.1774 64.5302 72.716 63.0661 72.146C58.6186 70.4088 56.5467 66.9345 56.1324 62.4017C55.8285 58.9274 56.3257 55.5074 56.9335 52.1145C58.0108 46.1974 61.9335 24.3474 62.9279 19.3531C63.7014 15.5531 65.0826 11.9431 67.5412 8.84881C70.8561 4.69595 75.4141 2.63308 80.6075 2.1988C85.2208 1.8188 95.7456 2.0088 100.138 2.49737C104.917 3.01309 109.005 5.8631 110.221 10.6945M95.3589 17.8874C95.6627 15.1459 94.2815 13.7074 91.4639 13.5717C88.8948 13.4631 86.3257 13.4631 83.7567 13.5717C81.2429 13.6802 79.4473 14.9559 78.5909 17.3716C78.3147 18.1588 78.0937 18.9731 77.9556 19.8145C76.6296 27.1702 75.3036 34.5259 73.9777 41.8816C73.0937 46.8759 72.1821 51.8974 71.2981 56.8917C70.7456 60.0131 72.2649 61.8588 75.5246 61.9674C76.6572 61.9945 80.8837 61.9674 81.8782 61.9674C85.718 61.9131 87.7622 60.3388 88.4804 56.6474C89.3644 52.0059 90.1655 47.3374 90.9943 42.6959C91.9611 37.3759 92.928 32.0831 93.8672 26.7631C94.392 23.8045 94.9998 20.846 95.3313 17.8602M375.331 5.53738C375.828 11.6717 378.342 44.1617 380.497 71.6031C380.58 72.5531 380.359 72.8245 379.392 72.7974C375.967 72.7431 372.541 72.7974 369.116 72.7974C366.132 72.7974 365 71.6302 364.862 68.6717C364.724 65.496 364.558 62.2931 364.392 59.1174C364.309 57.7059 364.171 57.5431 362.679 57.5431C358.204 57.5431 353.757 57.5431 349.282 57.5431C348.121 57.5431 347.458 57.9774 347.044 59.0359C345.69 62.4559 344.254 65.8488 342.873 69.2416C341.878 71.6845 340.027 72.7974 337.403 72.7974C330.193 72.7974 322.983 72.7974 315.773 72.7974C315.248 72.7974 314.696 72.716 314.171 72.6617C311.519 72.4988 310.304 71.006 309.668 68.5359C309.005 65.9574 308.094 62.9174 307.624 60.9088C307.237 59.1988 307.293 58.6017 308.646 57.4345C310.027 56.2674 317.237 50.2145 318.232 49.4002C319.226 48.5859 320.165 48.9931 320.607 50.5402C321.464 53.5802 322.956 58.7645 324.033 62.5102C324.862 65.3059 325.663 68.1017 326.491 70.8974C326.602 70.8974 326.712 70.8974 326.823 70.8974C327.79 68.6717 328.784 66.446 329.751 64.2202C338.149 44.9217 354.862 6.59595 355.58 4.96738C356.298 3.33881 357.817 2.47024 359.724 2.47024C363.84 2.47024 367.928 2.4431 372.016 2.47024C374.254 2.47024 375.221 3.39308 375.387 5.59166M363.315 25.8402C363.398 23.0988 363.812 18.2402 363.812 17.6702C363.812 17.1274 362.873 16.9374 362.762 17.5074C362.652 18.0774 359.53 27.3874 357.817 32.0831C356.298 36.2903 354.585 40.4159 352.956 44.5959C352.375 46.0888 352.514 46.3059 354.061 46.3059C356.685 46.3059 359.282 46.3059 361.906 46.3059C363.757 46.3059 363.867 46.1703 363.812 44.2974C363.646 39.9545 363.508 35.6388 363.315 30.7802C363.315 29.4774 363.287 27.6588 363.315 25.8402ZM445.884 2.55167C441.574 2.55167 437.375 2.55167 434.53 2.55167C433.066 2.55167 432.486 3.25738 432.237 4.66881C431.077 11.2102 430 17.0731 428.84 23.5874C427.983 28.4188 426.933 33.2231 426.353 38.1088C425.608 44.2974 425.276 50.7302 424.945 56.9731C424.889 57.8417 423.619 57.9231 423.536 56.9188C421.685 35.0145 420.663 21.7688 419.475 7.5188C419.171 3.96308 417.541 2.55167 414.641 2.55167C410.69 2.55167 401.049 2.60595 398.729 2.55167C397.762 2.52453 397.431 2.85023 397.293 3.77309C396.906 6.43309 396.381 9.0931 395.911 11.7531C394.53 19.4617 386.27 65.8488 385.304 71.3317C385.027 72.8245 385.083 72.8245 386.574 72.8245C389.945 72.8245 393.342 72.8245 396.712 72.8245C399.668 72.8245 399.613 72.8245 400.11 69.9745C401.022 64.6002 405 43.5645 405.69 38.3531C406.381 33.0331 406.657 27.6859 407.099 22.3388C407.237 20.7917 407.293 19.2445 407.458 17.6974C407.541 16.9102 408.978 16.9917 409.005 17.7788C409.254 21.5245 409.641 26.0302 409.917 29.776C410.442 37.0231 412.182 61.4788 412.596 66.4459C412.928 70.2459 414.779 72.0917 418.646 72.526C420.027 72.6888 421.436 72.7974 422.817 72.7974C426.243 72.8245 429.668 72.7974 433.094 72.7974C434.641 72.7974 434.668 72.7974 434.945 71.2774C435.718 66.9616 445.331 12.7031 446.961 3.74594C447.154 2.71451 446.851 2.52452 445.911 2.52452M273.149 31.3502C272.237 31.3502 260.083 31.3502 253.536 31.3502C252.237 31.3502 252.21 31.3502 252.431 30.1017C253.287 25.2702 254.226 20.4388 255.027 15.6074C255.221 14.4674 255.718 14.2502 256.795 14.2502C262.044 14.2774 268.619 14.2502 272.486 14.2502C276.353 14.2502 272.845 2.52452 271.243 2.52452H243.95C242.182 2.52452 242.21 2.52451 241.878 4.31594C241.132 8.57737 234.282 46.9574 233.37 52.2774C232.679 56.1588 231.961 60.0402 232.928 64.0031C233.674 66.9617 235.304 69.2145 238.038 70.6531C241.27 72.3359 244.834 72.7159 248.398 72.7702C256.27 72.8788 264.171 72.7974 272.044 72.8245C272.983 72.8245 273.177 72.4717 273.177 71.6845C273.177 69.6488 273.232 67.6131 273.287 65.5774C273.37 61.8317 272.652 61.0988 268.895 61.0988C263.812 61.0988 258.701 61.0988 253.619 61.0988C252.624 61.0988 251.63 61.0445 250.663 60.8816C248.812 60.6102 247.817 59.4702 247.762 57.6245C247.762 56.7831 247.762 55.9417 247.928 55.1002C248.563 51.3002 249.309 47.5274 249.889 43.7274C250.055 42.5874 250.497 42.2888 251.63 42.3159C256.933 42.3702 262.265 42.3431 267.569 42.3159C269.917 42.3159 271.27 41.3659 272.044 39.1674C272.79 37.0502 273.95 33.5216 274.199 32.6802C274.42 31.8116 274.033 31.3774 273.121 31.3774M300.414 18.4574C297.431 17.7245 293.591 17.1817 290.884 16.9102C289.392 16.7745 288.701 17.1545 288.508 18.2945C287.431 24.7002 285.138 38.0817 283.978 44.7859C283.619 46.8488 285.11 46.4959 285.994 45.6274C291.63 40.0902 298.342 33.4674 299.392 32.0831C300.442 30.6988 300.773 30.0474 301.132 28.3917C301.491 26.736 301.906 23.4788 302.265 21.4702C302.624 19.4617 302.016 18.8374 300.442 18.4574" fill="white"/>
<path d="M280.387 2.63334C278.619 2.74191 277.901 4.01761 278.37 6.46047C278.785 8.60475 280.221 10.9119 282.984 11.319C291.326 12.5133 304.365 14.4676 313.426 16.2048C317.155 16.9105 317.293 18.1591 315 20.9276C307.928 29.5319 295.829 43.9448 282.652 58.3576C278.205 63.2433 278.702 67.3962 280.442 70.5719C281.492 72.4719 283.619 72.8248 284.807 71.8476C302.624 56.9462 326.989 35.0691 338.95 19.8962C345.304 11.8619 343.757 3.8819 332.735 2.87761C324.475 2.11761 315.442 1.84619 306.713 1.84619C296.989 1.84619 287.68 2.19905 280.332 2.60619" fill="url(#paint0_linear_2469_78710)"/>
<defs>
<linearGradient id="paint0_linear_2469_78710" x1="279.282" y1="73.148" x2="344.855" y2="6.52394" gradientUnits="userSpaceOnUse">
<stop stop-color="#00DDFF"/>
<stop offset="0.48559" stop-color="#BB33FF"/>
<stop offset="0.839546" stop-color="#FF0080"/>
</linearGradient>
</defs>
</svg>
