<svg width="40" height="28" viewBox="0 0 40 28" fill="none" xmlns="http://www.w3.org/2000/svg">
<g clip-path="url(#clip0_3206_11454)">
<rect width="40" height="28" fill="#375F89"/>
<g clip-path="url(#clip1_3206_11454)">
<path d="M-5.33026 10.0479C-4.1297 10.7551 -2.54294 10.7333 -1.41522 11.542C-0.801702 11.9819 -0.379082 12.6323 0.256504 13.0438C0.601885 13.2676 1.01789 13.428 1.24299 13.7631C1.86092 14.6831 0.739817 15.4766 0.619539 16.3541C0.491541 17.2894 0.802711 18.2837 1.45706 18.9953C1.94699 19.5279 2.4325 19.8608 2.80657 20.4927C3.18064 21.1236 3.46313 21.8035 3.64851 22.5053C4.46837 25.6049 2.83306 28.6576 3.44988 31.7387C3.63747 32.6751 4.02699 33.5733 4.57871 34.3701C4.81375 34.7095 6.32216 36.3652 6.07499 35.1461C5.97457 34.6527 5.57623 34.2118 5.42837 33.724C5.25733 33.1608 5.22754 32.554 5.33788 31.9777C5.60271 30.5992 6.48989 29.4118 7.35389 28.2756C8.30285 27.027 9.25182 25.7795 10.2008 24.531C10.6024 24.0038 11.0284 23.4548 11.6474 23.1732C12.2565 22.8971 13.0697 22.8545 13.3942 22.2936C13.8731 21.4652 12.7862 20.3301 13.35 19.5497C13.7473 18.9997 14.822 18.9058 14.8342 18.239C14.8408 17.8919 14.5175 17.6299 14.2251 17.4215C12.4827 16.1838 10.7404 14.9461 8.99802 13.7085C7.62423 12.7328 5.60051 11.7232 3.92768 12.0877C3.82395 11.7308 3.30313 11.637 2.94561 11.7865C2.58809 11.936 2.33209 12.2383 2.02202 12.4632C1.71195 12.688 1.26285 12.8332 0.938437 12.6258C0.412092 12.2907 0.713333 11.4285 0.287401 10.9821C-0.116461 10.5587 -0.948462 10.7431 -1.33356 10.3044C-1.68336 9.9049 -1.36226 9.39739 -1.56639 8.98593C-1.81577 8.48279 -2.28915 9.03395 -2.79563 9.14091C-3.21274 9.22932 -3.68501 9.1802 -4.00722 8.91499C-4.52143 8.49261 -4.64722 7.2986 -4.29191 6.74635C-3.8395 6.04348 -2.54184 5.24347 -1.66018 5.32096C-0.942944 5.38426 0.0148487 6.57936 0.605194 6.41347C1.24299 6.23338 1.39195 4.88876 1.67113 4.41181C2.22837 3.45682 2.99526 2.62734 3.75664 1.81642C4.61292 0.902905 5.48464 -0.022615 6.56823 -0.685104C10.499 -3.08058 -41.3865 -11.206 -5.33026 10.0479Z" fill="#61BF5E"/>
<path d="M24.0181 -1.34194C23.8438 -1.2197 23.441 -1.21207 23.3108 -1.03307C23.0791 -0.715471 23.5017 -0.403326 23.7731 -0.240705C24.0082 -0.0988216 24.2609 -0.0857258 24.2498 0.223145C24.2377 0.590952 23.676 0.843071 23.3538 0.862717C23.0294 0.882362 22.1698 0.654253 21.9756 0.946753C21.8973 1.06353 21.9955 1.44662 21.9845 1.59178C21.9635 1.86354 21.9006 2.13312 21.798 2.38742C21.7119 2.60134 21.5949 2.82944 21.6622 3.04991C21.8686 3.7255 23.5491 3.70476 24.0159 3.36642C24.4628 3.04227 24.2697 2.21171 24.7387 1.78387C24.9362 1.60379 25.1878 1.48591 25.3842 1.30037C25.6402 1.05917 25.8498 0.606232 26.2438 0.542931C26.652 0.477446 27.1574 0.89109 27.4355 1.14648C27.7058 1.39532 27.9354 1.68128 28.2046 1.9323C28.3933 2.10911 28.5798 2.26628 28.7133 2.48783C28.7905 2.61444 28.8755 3.07501 29.0498 3.09684C29.1249 3.10666 29.1889 3.04664 29.2385 2.99316C29.4614 2.74977 29.6998 2.46055 29.6435 2.14186C29.585 1.81007 29.2363 1.60815 28.9251 1.44662C28.6272 1.29273 27.6562 0.372669 28.582 0.587677C29.1944 0.729561 29.6369 1.36477 29.8818 1.87009C30.0131 2.14076 30.0451 2.78143 30.4622 2.81526C30.9654 2.85673 30.886 2.15386 31.1806 1.9454C31.4598 1.74785 31.9343 1.81552 32.0667 2.12112C32.1891 2.40488 31.9883 2.73013 32.0446 3.03245C32.1296 3.49084 32.7122 3.66656 33.1922 3.76588C34.0485 3.94487 34.6708 4.62701 33.8863 5.34407C33.3356 5.84721 32.2256 5.57326 31.6694 5.22729C31.2093 4.94133 30.9158 4.49167 30.4104 4.88786C30.0805 5.14652 29.7914 5.54052 29.3224 5.55908C28.8468 5.57654 28.4771 5.17163 28.2653 4.7678C28.0534 4.36398 27.9045 3.90558 27.5381 3.61854C26.9577 3.1656 26.1003 3.32604 25.3743 3.51158C24.6548 3.69494 23.9342 3.8783 23.2148 4.06275C22.8165 4.16425 22.3177 4.30504 22.1147 4.6663C21.8421 5.15307 21.8002 5.63438 21.3809 6.07313C20.9649 6.5097 20.4076 6.82184 20.0523 7.30425C19.5116 8.03659 19.5657 8.97303 19.5216 9.81997C19.473 10.7542 20.0214 11.6033 20.5676 12.351C20.934 12.853 21.3643 13.3474 21.9525 13.5963C23.4311 14.2227 25.19 13.199 26.5472 14.2675C26.9952 14.62 27.1508 15.145 27.4531 15.6012C28.1229 16.6108 28.5952 17.8375 28.2498 19.0239C28.0766 19.6198 27.8217 20.2168 27.8824 20.8313C27.9232 21.2394 28.1009 21.6225 28.2377 22.0122C28.7464 23.455 28.7265 25.0812 29.5718 26.3746C29.7627 26.6671 30.0142 26.9486 30.3585 27.0589C30.6785 27.1615 31.0283 27.1003 31.3594 27.0381C32.1274 26.8941 32.9329 26.7293 33.2374 25.9827C33.5652 25.1773 34.1356 24.5748 34.6984 23.897C34.9886 23.5478 35.2932 23.1571 35.2777 22.7129C35.2623 22.285 34.9489 21.8561 35.1133 21.4577C35.2623 21.0943 35.729 20.96 36.0038 20.6697C36.3183 20.339 36.3458 19.8424 36.2631 19.4037C36.1814 18.9649 36.0071 18.5415 35.9784 18.0973C35.9354 17.4446 36.2134 16.8028 36.6184 16.2735C37.0223 15.7442 37.5486 15.3109 38.0694 14.883C38.8749 14.2206 39.313 13.7753 39.5359 12.7864C39.5933 12.5332 39.5977 12.2123 39.3638 12.0781C39.0493 11.898 38.6951 12.2287 38.3453 12.3335C37.9999 12.4383 37.6126 12.304 37.34 12.077C37.0675 11.85 36.8876 11.5411 36.7166 11.2377C36.2598 10.4235 35.8338 9.59404 35.4377 8.75256C35.2545 8.36292 35.1232 7.88379 34.876 7.52908C34.6697 7.23222 34.4027 7.02703 34.2493 6.67778C34.0727 6.27614 34.4678 6.179 34.7238 6.43767C34.94 6.65595 35.1409 7.12853 35.3207 7.39811C35.6959 7.95692 36.0148 8.53537 36.4043 9.08871C36.7298 9.55038 37.0929 9.9171 37.2363 10.4737C37.3511 10.9223 37.5133 11.4451 37.9723 11.5979C38.3574 11.7267 38.7723 11.5258 39.1144 11.3152C40.1726 10.6647 41.0256 9.73265 41.9304 8.89881C42.0551 8.78312 42.1875 8.65542 42.2096 8.49062C42.2305 8.33564 42.1445 8.18175 42.0231 8.07697C41.9017 7.97219 41.7483 7.90671 41.5972 7.84559C41.0509 7.62513 40.4694 7.36864 39.8857 7.25841C39.4024 7.16782 39.1674 7.08269 38.8253 6.69306C38.6752 6.5228 38.1367 5.9247 38.4821 5.71515C38.6962 5.58527 39.1983 6.08296 39.3384 6.19101C39.7743 6.52607 40.22 6.80766 40.7596 6.97246C41.1977 7.10561 41.7075 7.28351 42.1632 7.31735C42.8032 7.36537 43.4587 7.23658 44.0612 7.51162C44.3966 7.66442 44.6647 7.92418 44.9042 8.19485C45.5166 8.8879 46.0639 9.70536 46.3729 10.5654C52.8619 28.6324 104.173 -57.2748 24.0181 -1.34194Z" fill="#61BF5E"/>
<path d="M39.473 19.8075C39.6032 20.3172 39.4189 20.8488 39.1927 21.3279C38.9665 21.8059 38.6928 22.2796 38.6344 22.8002C38.5957 23.144 38.6333 23.5402 38.3706 23.7792C38.1025 24.0237 37.6192 23.944 37.3842 23.6701C37.1491 23.3961 37.1359 22.9967 37.2628 22.666C37.4857 22.0842 37.564 21.8976 37.4824 21.2973C37.425 20.876 37.4283 20.7516 37.7814 20.4984C38.0871 20.2779 38.3287 20.2125 38.588 19.9189C38.8286 19.6471 39.2865 19.085 39.4719 19.8086L39.473 19.8075Z" fill="#61BF5E"/>
</g>
</g>
<defs>
<clipPath id="clip0_3206_11454">
<rect width="40" height="28" fill="white"/>
</clipPath>
<clipPath id="clip1_3206_11454">
<rect width="50" height="29.6471" fill="white" transform="translate(-5)"/>
</clipPath>
</defs>
</svg>
