<svg width="31" height="35" viewBox="0 0 31 35" fill="none" xmlns="http://www.w3.org/2000/svg">
<g clip-path="url(#clip0)">
<path d="M30.0889 10.5342H0.0888672V19.9183C0.0888672 19.9384 0.0888672 19.9786 0.0888672 19.9987C0.0888672 20.0992 0.0888672 20.1997 0.0888672 20.3202C0.0888672 28.2375 6.81627 34.6678 15.0994 34.6678C23.3825 34.6678 30.1099 28.2375 30.1099 20.3202C30.1099 20.2198 30.1099 20.1193 30.1099 19.9987C30.1099 19.9786 30.1099 19.9384 30.1099 19.9183V10.5342H30.0889Z" fill="#A11E29"/>
<path d="M30.0889 9.65031V3.0593C30.0889 1.73306 28.9536 0.647949 27.5661 0.647949H2.61164C1.22412 0.647949 0.0888672 1.73306 0.0888672 3.0593V9.63022H30.0889V9.65031Z" fill="#A11E29"/>
<path d="M4.46153 8.12332V7.17888L4.08311 7.88219H3.91493L3.53651 7.17888V8.12332H3.24219V6.67651H3.55753L3.99902 7.50039L4.4405 6.67651H4.75585V8.12332H4.46153Z" fill="white"/>
<path d="M5.49145 6.67651H5.76475L6.33237 8.10323H6.03805L5.89089 7.74152H5.36531L5.21815 8.10323H4.92383L5.49145 6.67651ZM5.82782 7.56067L5.61759 6.99803L5.40736 7.56067H5.82782Z" fill="white"/>
<path d="M6.7953 7.19897V8.12332H6.50098V6.67651H6.73223L7.51008 7.62096V6.67651H7.8044V8.12332H7.55213L6.7953 7.19897Z" fill="white"/>
<path d="M8.53982 6.67651H8.7921L9.35972 8.10323H9.0654L8.91824 7.76162H8.39266L8.2455 8.12332H7.95117L8.53982 6.67651ZM8.87619 7.56067L8.66596 6.99803L8.45573 7.56067H8.87619Z" fill="white"/>
<path d="M10.5161 7.96257C10.39 8.08313 10.2638 8.14342 10.0956 8.14342C9.99053 8.14342 9.90644 8.12332 9.82235 8.08313C9.73825 8.04294 9.65416 8.00276 9.59109 7.92238C9.52802 7.86209 9.48598 7.78171 9.44393 7.68124C9.40188 7.60086 9.38086 7.50039 9.38086 7.39992C9.38086 7.29944 9.40188 7.19897 9.44393 7.11859C9.48598 7.03822 9.52802 6.95784 9.59109 6.89755C9.65416 6.83727 9.73825 6.77699 9.82235 6.7368C9.90644 6.69661 10.0116 6.67651 10.1167 6.67651C10.2638 6.67651 10.3689 6.69661 10.4741 6.75689C10.5792 6.81718 10.6423 6.89755 10.7053 6.97793L10.4951 7.13869C10.453 7.05831 10.411 7.01812 10.3269 6.97793C10.2638 6.93774 10.1797 6.91765 10.0956 6.91765C10.0326 6.91765 9.96951 6.93774 9.92746 6.95784C9.86439 6.97793 9.82235 7.01812 9.80132 7.05831C9.75928 7.0985 9.73825 7.15878 9.71723 7.21907C9.69621 7.27935 9.69621 7.33963 9.69621 7.39992C9.69621 7.4602 9.71723 7.52049 9.73825 7.58077C9.75928 7.64105 9.80132 7.68124 9.82235 7.74153C9.86439 7.78171 9.90644 7.8219 9.96951 7.842C10.0326 7.86209 10.0746 7.88219 10.1377 7.88219C10.2849 7.88219 10.411 7.8219 10.5371 7.68124V7.58077H10.2428V7.37982H10.7894V8.12332H10.5582V7.96257H10.5161Z" fill="white"/>
<path d="M12.0506 7.88219V8.12332H11.0205V6.67651H12.0296V6.93774H11.3148V7.27935H11.9455V7.50039H11.3148V7.88219H12.0506Z" fill="white"/>
<path d="M13.5226 8.12332V7.17888L13.1232 7.88219H12.976L12.5766 7.17888V8.12332H12.2822V6.67651H12.5976L13.0391 7.50039L13.5016 6.67651H13.7959V8.12332H13.5226Z" fill="white"/>
<path d="M15.1625 7.88219V8.12332H14.1113V6.67651H15.1415V6.93774H14.4057V7.27935H15.0363V7.50039H14.4057V7.88219H15.1625Z" fill="white"/>
<path d="M15.6879 7.19897V8.12332H15.3936V6.67651H15.6248L16.4027 7.62096V6.67651H16.697V8.12332H16.4447L15.6879 7.19897Z" fill="white"/>
<path d="M18.1271 6.93774H17.6435V8.12332H17.3492V6.93774H16.8867V6.67651H18.1271V6.93774Z" fill="white"/>
<path d="M19.6609 7.05816C19.6609 7.05816 19.6399 7.03807 19.5979 7.01797C19.5768 6.99788 19.5348 6.97778 19.4927 6.97778C19.4507 6.97778 19.4087 6.95769 19.3666 6.93759C19.3246 6.9175 19.2825 6.9175 19.2405 6.9175C19.1564 6.9175 19.0933 6.93759 19.0513 6.95769C19.0302 6.99788 19.0092 7.03807 19.0092 7.07825C19.0092 7.09835 19.0092 7.13854 19.0302 7.15863C19.0513 7.17873 19.0723 7.19882 19.0933 7.21892C19.1143 7.23901 19.1564 7.23901 19.1984 7.25911C19.2405 7.2792 19.2825 7.2792 19.3456 7.2993C19.4087 7.31939 19.4927 7.33948 19.5558 7.35958C19.6189 7.37967 19.6609 7.39977 19.703 7.43996C19.745 7.48015 19.7871 7.52034 19.8081 7.56053C19.8291 7.60071 19.8501 7.661 19.8501 7.72128C19.8501 7.80166 19.8291 7.86194 19.8081 7.92223C19.7871 7.98251 19.745 8.0227 19.682 8.06289C19.6399 8.10308 19.5768 8.12317 19.5138 8.14327C19.4507 8.16336 19.3666 8.16336 19.3035 8.16336C19.1984 8.16336 19.0723 8.14327 18.9672 8.12317C18.8621 8.08298 18.7569 8.04279 18.6729 7.98251L18.799 7.74138C18.82 7.76147 18.841 7.76147 18.8621 7.78157C18.9041 7.80166 18.9251 7.82175 18.9882 7.84185C19.0302 7.86194 19.0933 7.88204 19.1354 7.88204C19.1984 7.90213 19.2405 7.90213 19.3035 7.90213C19.4717 7.90213 19.5348 7.86194 19.5348 7.76147C19.5348 7.72128 19.5348 7.70119 19.5138 7.68109C19.4927 7.661 19.4717 7.6409 19.4297 7.62081C19.3876 7.60071 19.3456 7.58062 19.3035 7.58062C19.2615 7.56052 19.1984 7.56052 19.1354 7.54043C19.0723 7.52034 19.0092 7.50024 18.9461 7.48015C18.8831 7.46005 18.841 7.43996 18.82 7.39977C18.778 7.35958 18.7569 7.33948 18.7359 7.2993C18.7149 7.25911 18.7149 7.21892 18.7149 7.15863C18.7149 7.07826 18.7359 7.01797 18.7569 6.95769C18.778 6.8974 18.82 6.85721 18.8831 6.81703C18.9251 6.77684 18.9882 6.75674 19.0513 6.73665C19.1143 6.71655 19.1984 6.71655 19.2615 6.71655C19.3666 6.71655 19.4717 6.73665 19.5558 6.75674C19.6399 6.79693 19.724 6.81703 19.7871 6.87731L19.6609 7.05816Z" fill="white"/>
<path d="M20.2069 6.67651L20.5643 7.37982L20.9428 6.67651H21.2581L20.7115 7.62096V8.12332H20.4172V7.62096L19.8916 6.67651H20.2069Z" fill="white"/>
<path d="M22.2894 7.05816C22.2894 7.05816 22.2684 7.03807 22.2263 7.01797C22.2053 6.99788 22.1632 6.97778 22.1212 6.97778C22.0792 6.97778 22.0371 6.95769 21.9951 6.93759C21.953 6.9175 21.911 6.9175 21.8689 6.9175C21.7848 6.9175 21.7218 6.93759 21.6797 6.95769C21.6377 6.97778 21.6166 7.01797 21.6166 7.07825C21.6166 7.09835 21.6166 7.13854 21.6377 7.15863C21.6587 7.17873 21.6797 7.19882 21.7007 7.21892C21.7218 7.23901 21.7638 7.23901 21.8059 7.25911C21.8479 7.2792 21.8899 7.2792 21.953 7.2993C22.0161 7.31939 22.1002 7.33948 22.1632 7.35958C22.2263 7.37967 22.2684 7.39977 22.3104 7.43996C22.3524 7.48015 22.3945 7.52034 22.4155 7.56053C22.4365 7.60071 22.4576 7.661 22.4576 7.72128C22.4576 7.80166 22.4365 7.86194 22.4155 7.92223C22.3945 7.98251 22.3524 8.0227 22.2894 8.06289C22.2473 8.10308 22.1843 8.12317 22.1212 8.14327C22.0581 8.16336 21.974 8.16336 21.911 8.16336C21.8059 8.16336 21.6797 8.14327 21.5746 8.12317C21.4695 8.08298 21.3644 8.04279 21.2803 7.98251L21.4064 7.74138C21.4274 7.76147 21.4485 7.76147 21.4695 7.78157C21.5115 7.80166 21.5326 7.82175 21.5956 7.84185C21.6377 7.86194 21.7007 7.88204 21.7428 7.88204C21.8058 7.90213 21.8479 7.90213 21.911 7.90213C22.0792 7.90213 22.1422 7.86194 22.1422 7.76147C22.1422 7.72128 22.1422 7.70119 22.1212 7.68109C22.1002 7.661 22.0791 7.6409 22.0371 7.62081C21.9951 7.60071 21.953 7.58062 21.911 7.58062C21.8689 7.56052 21.8058 7.56052 21.7428 7.54043C21.6797 7.52034 21.6166 7.50024 21.5536 7.48015C21.4905 7.46005 21.4485 7.43996 21.4274 7.39977C21.3854 7.35958 21.3644 7.33948 21.3433 7.2993C21.3223 7.25911 21.3223 7.21892 21.3223 7.15863C21.3223 7.07826 21.3433 7.01797 21.3644 6.95769C21.3854 6.8974 21.4274 6.85721 21.4905 6.81703C21.5326 6.77684 21.5956 6.75674 21.6587 6.73665C21.7218 6.71655 21.8058 6.71655 21.8689 6.71655C21.974 6.71655 22.0791 6.73665 22.1632 6.75674C22.2473 6.79693 22.3314 6.81703 22.3945 6.87731L22.2894 7.05816Z" fill="white"/>
<path d="M23.8024 6.93774H23.3189V8.12332H23.0245V6.93774H22.541V6.67651H23.8024V6.93774Z" fill="white"/>
<path d="M25.0223 7.88219V8.12332H23.9922V6.67651H25.0013V6.93774H24.2865V7.27935H24.9172V7.50039H24.2865V7.88219H25.0223Z" fill="white"/>
<path d="M26.4723 8.12332V7.17888L26.0939 7.88219H25.9467L25.5473 7.17888V8.12332H25.2529V6.67651H25.5683L26.0098 7.50039L26.4723 6.67651H26.7666V8.12332H26.4723Z" fill="white"/>
<path d="M21.5327 25.8464L21.4696 25.9067L20.9861 26.3689C21.0071 27.3937 20.7548 28.4386 20.2082 29.3429C19.157 31.071 17.2019 32.1561 15.0996 32.1561C12.9973 32.1561 11.0421 31.071 9.99095 29.3429C8.9398 27.6147 8.9398 25.4445 9.99095 23.7164C11.0421 21.9883 12.9973 20.9031 15.0996 20.9031C16.7184 20.9031 18.232 21.5462 19.3462 22.6313L19.6406 22.35L19.7457 22.2495C18.5263 21.0639 16.8655 20.3606 15.0786 20.3606C12.766 20.3606 10.6006 21.5462 9.44435 23.4552C8.28808 25.3641 8.28808 27.7554 9.44435 29.6644C10.6006 31.5734 12.766 32.7589 15.0786 32.7589C17.3911 32.7589 19.5565 31.5734 20.7128 29.6644C21.4275 28.4989 21.7008 27.1526 21.5327 25.8464Z" fill="white"/>
<path d="M22.1837 21.1643L20.3547 22.8924L20.1655 23.0934L19.9342 23.3144L15.6034 27.4539L12.6182 24.6005L11.1045 26.0272L15.6034 30.3274L20.4598 25.6856L23.6973 22.6111V22.591L22.1837 21.1643Z" fill="white"/>
<path d="M13.2284 15.2972C13.0812 15.4178 12.892 15.4781 12.6607 15.4982H12.5977V16.0407H12.6817C13.0602 16.0206 13.3965 15.9202 13.6698 15.7192C13.9642 15.4982 14.1744 15.1967 14.2795 14.7949C14.2795 14.7547 14.2375 14.7145 14.1954 14.7145L13.817 14.614C13.7119 14.5939 13.6068 14.6542 13.5857 14.7346C13.5437 14.8953 13.4386 15.1164 13.2284 15.2972Z" fill="white"/>
<path d="M13.2284 12.941C13.0812 12.8204 12.892 12.7602 12.6607 12.7401H12.5977V12.1975H12.6817C13.0602 12.2176 13.3965 12.3181 13.6698 12.519C13.9642 12.7401 14.1744 13.0415 14.2795 13.4434C14.2795 13.4836 14.2375 13.5237 14.1954 13.5237L13.817 13.6242C13.7119 13.6443 13.6068 13.584 13.5857 13.5036C13.5437 13.3429 13.4386 13.1419 13.2284 12.941Z" fill="white"/>
<path d="M15.3306 16.0606H15.6249V12.1824H15.3306C15.1203 12.1824 14.9521 12.3431 14.9521 12.5441V15.6788C14.9521 15.8999 15.1203 16.0606 15.3306 16.0606Z" fill="white"/>
<path d="M3.6206 16.0606H3.91493V12.1824H3.6206C3.41037 12.1824 3.24219 12.3431 3.24219 12.5441V15.6788C3.24219 15.8999 3.41037 16.0606 3.6206 16.0606Z" fill="white"/>
<path d="M6.24885 12.8003C6.16476 12.6396 6.05964 12.4989 5.91248 12.4185C5.76532 12.3181 5.59713 12.2578 5.40793 12.2377C5.26076 12.2176 5.07156 12.1975 4.79826 12.1975H4.10449V12.7803H4.8403C5.07156 12.7803 5.21872 12.8003 5.30281 12.8204C5.42895 12.8606 5.51304 12.9209 5.59713 13.0214C5.6602 13.1219 5.70225 13.2424 5.70225 13.3831C5.70225 13.584 5.63918 13.7247 5.51304 13.8252C5.3869 13.9256 5.17667 13.9859 4.86132 13.9859H4.12552V14.5687H4.86132C5.42895 14.5687 5.82839 14.4481 6.05964 14.207C6.2909 13.9658 6.39601 13.6845 6.39601 13.363C6.37499 13.142 6.33294 12.9611 6.24885 12.8003Z" fill="white"/>
<path d="M9.82228 13.77H7.90918V14.3528H9.44387C9.6541 14.3528 9.82228 14.192 9.82228 13.9911V13.77Z" fill="white"/>
<path d="M9.63308 12.1824H7.90918V12.7651H10.0115V12.5441C10.0115 12.3431 9.84331 12.1824 9.63308 12.1824Z" fill="white"/>
<path d="M7.90918 16.0608H9.63308C9.84331 16.0608 10.0115 15.9 10.0115 15.6991V15.478H7.90918V16.0608Z" fill="white"/>
<path d="M7.42529 16.0606H7.71961V12.1824H7.42529C7.21506 12.1824 7.04688 12.3431 7.04688 12.5441V15.6788C7.04688 15.8999 7.21506 16.0606 7.42529 16.0606Z" fill="white"/>
<path d="M11.6096 12.3985C11.3153 12.5592 11.084 12.7803 10.9158 13.0616C10.7476 13.3429 10.6846 13.6845 10.6846 14.0864C10.6846 14.4481 10.7476 14.7696 10.8948 15.0911C11.042 15.4126 11.2522 15.6538 11.5255 15.8145C11.7357 15.9351 12.009 16.0155 12.3244 16.0557H12.4085V15.493H12.3454C12.1982 15.4729 12.0511 15.4126 11.9249 15.3524C11.7357 15.2519 11.5886 15.0911 11.5045 14.8701C11.4204 14.649 11.3573 14.3878 11.3573 14.0864C11.3573 13.8654 11.3994 13.6242 11.4835 13.4233C11.5675 13.2223 11.6937 13.0415 11.8829 12.9209C12.009 12.8405 12.1772 12.7803 12.3454 12.7602H12.4085V12.1975H12.3244C12.0721 12.2176 11.8408 12.298 11.6096 12.3985Z" fill="white"/>
<path d="M17.8322 14.2873C17.7271 14.1467 17.5799 14.0462 17.4118 13.9859C17.5379 13.9055 17.643 13.8051 17.7061 13.7046C17.8112 13.5438 17.8532 13.3831 17.8532 13.2223C17.8532 13.0415 17.7902 12.8606 17.6851 12.6999C17.5799 12.5391 17.4118 12.3985 17.2225 12.3181C17.0333 12.2377 16.7811 12.1975 16.4657 12.1975H15.793V12.7803H16.2975C16.5708 12.7803 16.76 12.8003 16.8651 12.8204C16.9703 12.8405 17.0333 12.9008 17.0964 12.9812C17.1595 13.0616 17.1805 13.162 17.1805 13.2625C17.1805 13.3831 17.1595 13.4635 17.0964 13.5438C17.0333 13.6242 16.9492 13.6644 16.8441 13.7046C16.76 13.7247 16.5918 13.7448 16.3816 13.7448H15.814V14.3275H16.4447C16.6759 14.3275 16.8651 14.3476 16.9913 14.3878C17.1174 14.428 17.2015 14.4883 17.2646 14.5687C17.3277 14.6691 17.3697 14.7696 17.3697 14.8902C17.3697 14.9907 17.3487 15.0911 17.3066 15.1715C17.2646 15.2519 17.2015 15.3122 17.1384 15.3524C17.0754 15.3925 16.9703 15.4327 16.8651 15.4528C16.8021 15.4729 16.697 15.4729 16.5288 15.4729H15.835V16.0557H16.5288C16.7811 16.0557 16.9913 16.0356 17.1805 15.9954C17.3697 15.9552 17.5169 15.8949 17.643 15.7944C17.7691 15.7141 17.8743 15.5734 17.9584 15.4126C18.0424 15.2519 18.0845 15.071 18.0845 14.8902C18.0424 14.6691 17.9794 14.4682 17.8322 14.2873Z" fill="white"/>
<path d="M7.7832 18.2509C7.7832 18.1504 7.80423 18.0298 7.84627 17.9294C7.88832 17.8289 7.95139 17.7284 8.03548 17.648C8.11957 17.5676 8.20367 17.4873 8.3298 17.4471C8.43492 17.3868 8.58208 17.3667 8.72924 17.3667C8.89743 17.3667 9.04459 17.4069 9.17073 17.4672C9.29687 17.5476 9.38096 17.6279 9.44403 17.7485L9.17073 17.9294C9.14971 17.8691 9.10766 17.8289 9.08664 17.8088C9.06561 17.7887 9.02357 17.7485 8.98152 17.7284C8.93947 17.7083 8.89743 17.6882 8.85538 17.6882C8.81334 17.6882 8.77129 17.6681 8.72924 17.6681C8.64515 17.6681 8.56106 17.6882 8.49799 17.7284C8.43492 17.7686 8.37185 17.8088 8.3298 17.8691C8.28776 17.9294 8.24571 17.9896 8.22469 18.07C8.20367 18.1504 8.18264 18.2107 8.18264 18.2911C8.18264 18.3714 8.20367 18.4518 8.22469 18.5121C8.24571 18.5724 8.28776 18.6528 8.3298 18.713C8.37185 18.7733 8.43492 18.8135 8.49799 18.8537C8.56106 18.8939 8.64515 18.914 8.72924 18.914C8.77129 18.914 8.81334 18.914 8.85538 18.8939C8.89743 18.8738 8.93947 18.8738 8.98152 18.8537C9.02357 18.8336 9.06561 18.8135 9.08664 18.7733C9.12868 18.7331 9.14971 18.693 9.17073 18.6528L9.46505 18.8135C9.44403 18.8738 9.40198 18.9341 9.33891 18.9944C9.27584 19.0547 9.21277 19.0948 9.14971 19.1149C9.08664 19.1551 9.00254 19.1752 8.91845 19.1953C8.83436 19.2154 8.77129 19.2154 8.6872 19.2154C8.56106 19.2154 8.43492 19.1953 8.30878 19.135C8.20367 19.0748 8.09855 19.0145 8.01446 18.914C7.93037 18.8135 7.8673 18.7331 7.82525 18.6126C7.80423 18.492 7.7832 18.3714 7.7832 18.2509Z" fill="white"/>
<path d="M11.2097 18.8691V19.1705H9.90625V17.3821H11.1887V17.6835H10.2636V18.1256H11.0625V18.4069H10.2636V18.8691H11.2097Z" fill="white"/>
<path d="M11.6719 19.1705V17.3821H12.5128C12.5969 17.3821 12.681 17.4022 12.7441 17.4424C12.8071 17.4826 12.8702 17.5227 12.9333 17.583C12.9963 17.6433 13.0174 17.7036 13.0594 17.784C13.0804 17.8643 13.1014 17.9246 13.1014 18.005C13.1014 18.1256 13.0804 18.2261 13.0174 18.3265C12.9543 18.427 12.8702 18.4873 12.7651 18.5275L13.1855 19.2107H12.7651L12.3867 18.6078H12.0293V19.2107H11.6719V19.1705ZM12.0503 18.2662H12.4918C12.5338 18.2662 12.5548 18.2662 12.5759 18.2461C12.5969 18.2261 12.6389 18.206 12.66 18.1859C12.681 18.1658 12.702 18.1256 12.702 18.0854C12.723 18.0452 12.723 18.005 12.723 17.9648C12.723 17.9246 12.723 17.8844 12.702 17.8443C12.681 17.8041 12.66 17.784 12.6389 17.7438C12.6179 17.7237 12.5969 17.7036 12.5548 17.6835C12.5338 17.6634 12.4918 17.6634 12.4708 17.6634H12.0293V18.2662H12.0503Z" fill="white"/>
<path d="M14.9947 17.6835H14.385V19.1705H14.0276V17.6835H13.418V17.3821H14.9737V17.6835H14.9947Z" fill="white"/>
<path d="M15.415 19.1705V17.3821H15.7724V19.1705H15.415Z" fill="white"/>
<path d="M16.3613 19.1705V17.3821H17.6227V17.6835H16.7187V18.1457H17.4755V18.427H16.7187V19.1705H16.3613Z" fill="white"/>
<path d="M18.0635 19.1705V17.3821H18.4209V19.1705H18.0635Z" fill="white"/>
<path d="M20.3132 18.8691V19.1705H19.0098V17.3821H20.2922V17.6835H19.3672V18.1256H20.166V18.4069H19.3672V18.8691H20.3132Z" fill="white"/>
<path d="M20.7754 19.1705V17.3821H21.4481C21.5953 17.3821 21.7425 17.4022 21.8476 17.4625C21.9527 17.5227 22.0578 17.583 22.1419 17.6634C22.226 17.7438 22.268 17.8443 22.3101 17.9447C22.3521 18.0452 22.3731 18.1658 22.3731 18.2863C22.3731 18.427 22.3521 18.5476 22.3101 18.648C22.268 18.7485 22.205 18.849 22.1209 18.9294C22.0368 19.0097 21.9527 19.07 21.8265 19.1102C21.7214 19.1504 21.5953 19.1705 21.4481 19.1705H20.7754ZM22.0158 18.2662C22.0158 18.1859 21.9947 18.1055 21.9737 18.0251C21.9527 17.9447 21.9106 17.8844 21.8686 17.8443C21.8265 17.784 21.7635 17.7438 21.7004 17.7237C21.6373 17.7036 21.5532 17.6835 21.4692 17.6835H21.1538V18.8691H21.4692C21.5532 18.8691 21.6373 18.849 21.7004 18.8289C21.7635 18.7887 21.8265 18.7485 21.8686 18.7083C21.9106 18.6681 21.9527 18.5878 21.9737 18.5275C22.0158 18.427 22.0158 18.3466 22.0158 18.2662Z" fill="white"/>
<path d="M3.51513 5.16927H3.13672V3.38086H3.51513V5.16927Z" fill="white"/>
<path d="M4.7555 4.70229C4.7555 4.62191 4.73448 4.58172 4.69243 4.54154C4.65039 4.50135 4.58732 4.46116 4.4822 4.42097C4.29299 4.36068 4.16685 4.28031 4.08276 4.17983C3.99867 4.07936 3.95662 3.97889 3.95662 3.85832C3.95662 3.71766 4.01969 3.577 4.12481 3.49662C4.22992 3.41624 4.37709 3.35596 4.54527 3.35596C4.65039 3.35596 4.7555 3.37605 4.86062 3.41624C4.94471 3.45643 5.0288 3.53681 5.07085 3.61719C5.11289 3.69756 5.13392 3.79804 5.13392 3.89851H4.7555C4.7555 3.81813 4.73448 3.75785 4.69243 3.71766C4.65039 3.67747 4.60834 3.65738 4.52425 3.65738C4.46118 3.65738 4.39811 3.67747 4.37709 3.71766C4.33504 3.75785 4.31402 3.79804 4.31402 3.85832C4.31402 3.89851 4.33504 3.95879 4.37709 3.99898C4.41913 4.03917 4.4822 4.07936 4.58732 4.11955C4.77652 4.17983 4.90266 4.26021 4.98675 4.36068C5.07085 4.46116 5.11289 4.56163 5.11289 4.70229C5.11289 4.86305 5.07085 4.98362 4.96573 5.06399C4.86062 5.14437 4.71345 5.20466 4.54527 5.20466C4.41913 5.20466 4.31402 5.18456 4.2089 5.12428C4.10379 5.08409 4.04072 5.00371 3.97765 4.92333C3.91458 4.84295 3.89355 4.72239 3.89355 4.60182H4.29299C4.29299 4.70229 4.31402 4.78267 4.35606 4.82286C4.39811 4.86305 4.46118 4.88314 4.56629 4.88314C4.69243 4.88314 4.7555 4.82286 4.7555 4.70229Z" fill="white"/>
<path d="M6.85818 4.42097C6.85818 4.6621 6.79511 4.84295 6.68999 4.98362C6.58487 5.12428 6.41669 5.18456 6.20646 5.18456C5.99623 5.18456 5.82804 5.12428 5.7019 4.98362C5.57577 4.84295 5.5127 4.6621 5.5127 4.44106V4.13964C5.5127 3.89851 5.57576 3.69756 5.68088 3.5569C5.80702 3.41624 5.9752 3.35596 6.18544 3.35596C6.39567 3.35596 6.56385 3.41624 6.66897 3.5569C6.77408 3.69756 6.85818 3.87841 6.85818 4.11955V4.42097ZM6.47976 4.11955C6.47976 3.95879 6.45874 3.83823 6.41669 3.75785C6.35362 3.69756 6.26953 3.65738 6.18544 3.65738C6.08032 3.65738 6.01725 3.69756 5.95418 3.77794C5.91213 3.85832 5.89111 3.95879 5.87009 4.11955V4.44106C5.87009 4.60182 5.89111 4.70229 5.93316 4.78267C5.9752 4.86305 6.0593 4.90324 6.16441 4.90324C6.26953 4.90324 6.3326 4.86305 6.37464 4.80276C6.41669 4.72239 6.43771 4.62191 6.43771 4.46116V4.11955H6.47976Z" fill="white"/>
<path d="M7.38365 5.30994H7.11035L7.67797 3.38086H7.95127L7.38365 5.30994Z" fill="white"/>
<path d="M8.66553 5.16927H8.28711V3.38086H8.66553V5.16927Z" fill="white"/>
<path d="M10.095 4.38559H9.50635V4.86786H10.2001V5.16927H9.12793V3.38086H10.2001V3.68228H9.50635V4.10426H10.095V4.38559Z" fill="white"/>
<path d="M11.8191 4.56163C11.8191 4.76258 11.756 4.92333 11.6299 5.0238C11.5037 5.12428 11.3566 5.18456 11.1673 5.18456C10.9571 5.18456 10.7889 5.12428 10.6838 4.98362C10.5787 4.84295 10.5156 4.6621 10.5156 4.42097V4.11955C10.5156 3.87841 10.5787 3.67747 10.6838 3.5569C10.8099 3.41624 10.9571 3.35596 11.1673 3.35596C11.3776 3.35596 11.5247 3.41624 11.6299 3.51671C11.735 3.61719 11.798 3.77794 11.8191 3.97889H11.4406C11.4406 3.85832 11.4196 3.75785 11.3776 3.71766C11.3355 3.67747 11.2725 3.63728 11.1673 3.63728C11.0622 3.63728 10.9992 3.67747 10.9571 3.73775C10.9151 3.79804 10.894 3.9186 10.894 4.07936V4.42097C10.894 4.60182 10.9151 4.72239 10.9571 4.78267C10.9992 4.84295 11.0622 4.88314 11.1673 4.88314C11.2725 4.88314 11.3355 4.86305 11.3776 4.82286C11.4196 4.78267 11.4406 4.70229 11.4406 4.58172H11.8191V4.56163Z" fill="white"/>
<path d="M14.0058 5.16447H12.9126V4.92333L13.4172 4.3004C13.4802 4.22002 13.5223 4.13964 13.5643 4.07936C13.5854 4.01908 13.6064 3.95879 13.6064 3.89851C13.6064 3.81813 13.5854 3.75785 13.5643 3.71766C13.5433 3.67747 13.5013 3.65738 13.4382 3.65738C13.3751 3.65738 13.3331 3.67747 13.291 3.73775C13.249 3.79804 13.249 3.85832 13.249 3.95879H12.8916C12.8916 3.85832 12.9126 3.75785 12.9547 3.65738C12.9967 3.5569 13.0598 3.49662 13.1649 3.43634C13.249 3.37605 13.3541 3.35596 13.4592 3.35596C13.6274 3.35596 13.7535 3.39615 13.8376 3.49662C13.9217 3.59709 13.9638 3.69756 13.9638 3.85832C13.9638 3.95879 13.9428 4.05927 13.8797 4.15974C13.8376 4.26021 13.7325 4.38078 13.6064 4.54153L13.3751 4.86305H14.0058V5.16447Z" fill="white"/>
<path d="M15.477 3.5818L14.8884 5.16927H14.51L15.0986 3.66218H14.3418V3.38086H15.477V3.5818Z" fill="white"/>
<path d="M16.9277 4.42593C16.9277 4.66706 16.8856 4.86801 16.7805 4.98858C16.6754 5.10914 16.5492 5.18952 16.381 5.18952C16.2129 5.18952 16.0657 5.12924 15.9816 5.00867C15.8975 4.86801 15.8555 4.68716 15.8555 4.44602V4.10441C15.8555 3.86328 15.8975 3.66233 16.0026 3.54177C16.1077 3.4212 16.2339 3.34082 16.4021 3.34082C16.5703 3.34082 16.7174 3.4011 16.8015 3.54177C16.8856 3.66233 16.9487 3.86328 16.9487 4.10441V4.42593H16.9277ZM16.5703 4.06422C16.5703 3.92356 16.5492 3.82309 16.5282 3.74271C16.5072 3.68243 16.4441 3.64224 16.4021 3.64224C16.297 3.64224 16.2339 3.76281 16.2129 4.02404V4.46612C16.2129 4.60678 16.2339 4.70725 16.2549 4.78763C16.2759 4.84791 16.339 4.8881 16.4021 4.8881C16.4651 4.8881 16.5072 4.84791 16.5282 4.78763C16.5492 4.72735 16.5703 4.62687 16.5703 4.48621V4.06422Z" fill="white"/>
<path d="M18.3993 4.42593C18.3993 4.66706 18.3573 4.86801 18.2522 4.98858C18.1471 5.10914 18.0209 5.18952 17.8527 5.18952C17.6845 5.18952 17.5374 5.12924 17.4533 5.00867C17.3692 4.86801 17.3271 4.68716 17.3271 4.44602V4.10441C17.3271 3.86328 17.3692 3.66233 17.4743 3.54177C17.5794 3.4212 17.7056 3.34082 17.8737 3.34082C18.0419 3.34082 18.1891 3.4011 18.2732 3.54177C18.3573 3.66233 18.4204 3.86328 18.4204 4.10441V4.42593H18.3993ZM18.0419 4.06422C18.0419 3.92356 18.0209 3.82309 17.9999 3.74271C17.9789 3.68243 17.9158 3.64224 17.8737 3.64224C17.7686 3.64224 17.7056 3.76281 17.6845 4.02404V4.46612C17.6845 4.60678 17.7056 4.70725 17.7266 4.78763C17.7476 4.84791 17.8107 4.8881 17.8737 4.8881C17.9368 4.8881 17.9789 4.84791 17.9999 4.78763C18.0209 4.72735 18.0419 4.62687 18.0419 4.48621V4.06422Z" fill="white"/>
<path d="M19.5981 5.16969H19.2197V3.80326L18.8623 3.94392V3.6626L19.5351 3.40137H19.5771V5.16969H19.5981Z" fill="white"/>
<path d="M20.3125 3.98342C20.3125 3.92313 20.3335 3.88294 20.3756 3.84275C20.4176 3.80257 20.4597 3.78247 20.5227 3.78247C20.5858 3.78247 20.6278 3.80257 20.6699 3.84275C20.7119 3.88294 20.733 3.92313 20.733 3.98342C20.733 4.0437 20.7119 4.08389 20.6699 4.12408C20.6278 4.16427 20.5858 4.18436 20.5227 4.18436C20.4597 4.18436 20.4176 4.16427 20.3756 4.12408C20.3335 4.08389 20.3125 4.0437 20.3125 3.98342ZM20.3125 4.98815C20.3125 4.92786 20.3335 4.88767 20.3756 4.84748C20.4176 4.8073 20.4597 4.7872 20.5227 4.7872C20.5858 4.7872 20.6278 4.8073 20.6699 4.84748C20.7119 4.88767 20.733 4.92786 20.733 4.98815C20.733 5.04843 20.7119 5.08862 20.6699 5.12881C20.6278 5.169 20.5858 5.18909 20.5227 5.18909C20.4597 5.18909 20.4176 5.169 20.3756 5.12881C20.3335 5.08862 20.3125 5.04843 20.3125 4.98815Z" fill="white"/>
<path d="M22.2256 5.16447H21.1324V4.92333L21.6369 4.3004C21.7 4.22002 21.742 4.13964 21.7841 4.07936C21.8051 4.01908 21.8261 3.95879 21.8261 3.89851C21.8261 3.81813 21.8051 3.75785 21.7841 3.71766C21.7631 3.67747 21.721 3.65738 21.6579 3.65738C21.5949 3.65738 21.5528 3.67747 21.5108 3.73775C21.4687 3.79804 21.4687 3.85832 21.4687 3.95879H21.1113C21.1113 3.85832 21.1324 3.75785 21.1744 3.65738C21.2164 3.5569 21.2795 3.49662 21.3846 3.43634C21.4687 3.37605 21.5738 3.35596 21.679 3.35596C21.8472 3.35596 21.9733 3.39615 22.0574 3.49662C22.1415 3.59709 22.2046 3.71766 22.2046 3.87842C22.2046 3.97889 22.1835 4.07936 22.1205 4.17983C22.0784 4.28031 21.9733 4.40087 21.8472 4.56163L21.6159 4.88314H22.2466V5.16447H22.2256Z" fill="white"/>
<path d="M23.6762 4.42097C23.6762 4.6621 23.6342 4.86305 23.529 4.98362C23.4239 5.10418 23.2978 5.18456 23.1296 5.18456C22.9614 5.18456 22.8143 5.12428 22.7302 5.00371C22.6461 4.88314 22.583 4.70229 22.583 4.46116V4.11955C22.583 3.87841 22.6251 3.67747 22.7302 3.5569C22.8353 3.43634 22.9614 3.35596 23.1296 3.35596C23.2978 3.35596 23.445 3.41624 23.529 3.5569C23.6131 3.67747 23.6762 3.87841 23.6762 4.11955V4.42097ZM23.3188 4.05927C23.3188 3.9186 23.2978 3.81813 23.2768 3.73775C23.2557 3.67747 23.1927 3.63728 23.1506 3.63728C23.0455 3.63728 22.9824 3.75785 22.9614 4.01908V4.46116C22.9614 4.60182 22.9824 4.70229 23.0035 4.78267C23.0245 4.84295 23.0876 4.88314 23.1506 4.88314C23.2137 4.88314 23.2557 4.84295 23.2768 4.78267C23.2978 4.72239 23.3188 4.62191 23.3188 4.48125V4.05927Z" fill="white"/>
<path d="M24.875 5.16969H24.5176V3.80326L24.1602 3.94392V3.6626L24.8329 3.40137H24.875V5.16969Z" fill="white"/>
<path d="M25.8628 4.12436H26.031C26.094 4.12436 26.1361 4.10426 26.1781 4.06407C26.1992 4.02389 26.2202 3.9636 26.2202 3.88322C26.2202 3.80284 26.1992 3.76266 26.1781 3.72247C26.1361 3.68228 26.094 3.66218 26.052 3.66218C26.01 3.66218 25.9679 3.68228 25.9259 3.72247C25.8838 3.76266 25.8838 3.80284 25.8838 3.86313H25.5264C25.5264 3.76266 25.5474 3.68228 25.5895 3.62199C25.6315 3.54162 25.6946 3.48133 25.7787 3.44114C25.8628 3.40095 25.9469 3.38086 26.052 3.38086C26.2202 3.38086 26.3673 3.42105 26.4514 3.52152C26.5566 3.62199 26.5986 3.74256 26.5986 3.90332C26.5986 3.9837 26.5776 4.06407 26.5355 4.12436C26.4935 4.18464 26.4304 4.24493 26.3673 4.28511C26.4514 4.3253 26.5145 4.36549 26.5566 4.44587C26.5986 4.52625 26.6196 4.60663 26.6196 4.7071C26.6196 4.86786 26.5566 4.98842 26.4514 5.0889C26.3463 5.18937 26.1992 5.22956 26.031 5.22956C25.8628 5.22956 25.7367 5.18937 25.6315 5.0889C25.5264 4.98842 25.4844 4.86786 25.4844 4.7071H25.8418C25.8418 4.76738 25.8628 4.82767 25.8838 4.86786C25.9048 4.90805 25.9679 4.92814 26.01 4.92814C26.073 4.92814 26.1151 4.90805 26.1571 4.86786C26.1992 4.82767 26.2202 4.76738 26.2202 4.68701C26.2202 4.50615 26.1571 4.42578 26.01 4.42578H25.8418V4.12436H25.8628Z" fill="white"/>
<path d="M23.319 12.1418H23.0246L21.7422 14.292L20.5859 12.1418V13.2671L21.7422 15.3168L23.0036 13.2069V16.0201H23.2979C23.5082 16.0201 23.6764 15.8593 23.6764 15.6584V12.5035C23.6974 12.3026 23.5292 12.1418 23.319 12.1418Z" fill="white"/>
<path d="M19.8086 12.5035V15.6383C19.8086 15.8392 19.9768 16 20.187 16H20.4813V12.1418H20.187C19.9768 12.1418 19.8086 12.3026 19.8086 12.5035Z" fill="white"/>
<path d="M27.4614 14.4531C27.3983 14.3325 27.2932 14.232 27.1671 14.1316C27.0409 14.0512 26.8938 13.9708 26.7046 13.9306C26.5364 13.8703 26.3472 13.8301 26.1159 13.7899L25.9688 13.7498V14.2722L26.0318 14.2923C26.158 14.3124 26.2631 14.3526 26.3682 14.3727C26.5154 14.4129 26.6205 14.4531 26.7256 14.5133C26.8097 14.5736 26.8728 14.6339 26.9358 14.6942C26.9779 14.7545 26.9989 14.855 26.9989 14.9554C26.9989 15.1363 26.9148 15.2769 26.7676 15.3774C26.5995 15.4779 26.3682 15.5181 26.0739 15.5181H25.9898V16.0003H26.0739C26.2841 16.0003 26.4943 15.9802 26.6625 15.9401C26.8517 15.8999 26.9989 15.8396 27.1461 15.7391C27.2722 15.6386 27.3983 15.5382 27.4614 15.3975C27.5455 15.2568 27.5665 15.0961 27.5665 14.9152C27.5665 14.7344 27.5245 14.5736 27.4614 14.4531Z" fill="white"/>
<path d="M26.6205 12.6445C26.7887 12.7048 26.9358 12.8053 27.0409 12.9057L27.104 12.9861L27.3773 12.544L27.3353 12.5039C27.1671 12.3632 26.9569 12.2426 26.7466 12.1823C26.5364 12.102 26.3051 12.0618 26.0528 12.0618H25.9688V12.544H26.0528C26.2631 12.544 26.4523 12.5842 26.6205 12.6445Z" fill="white"/>
<path d="M25.2111 12.1372C25.0219 12.1774 24.8747 12.2578 24.7486 12.3582C24.6224 12.4587 24.4963 12.5793 24.4332 12.7199C24.3491 12.8606 24.3281 13.0213 24.3281 13.2022C24.3281 13.363 24.3491 13.5036 24.4122 13.6242C24.4753 13.7448 24.5594 13.8452 24.6855 13.9256C24.7906 14.006 24.9378 14.0663 25.106 14.1265C25.2531 14.1667 25.4424 14.227 25.6526 14.2672L25.7577 14.2873V13.7648L25.6946 13.7448C25.6105 13.7247 25.5264 13.7046 25.4424 13.6845C25.3162 13.6443 25.2111 13.6041 25.127 13.5639C25.0429 13.5237 25.0009 13.4634 24.9588 13.4031C24.9168 13.3429 24.8958 13.2625 24.8958 13.162C24.8958 12.9611 24.9588 12.8204 25.106 12.7199C25.2321 12.6195 25.4213 12.5793 25.6736 12.5592H25.7577V12.0769H25.6736C25.4634 12.0769 25.3372 12.097 25.2111 12.1372Z" fill="white"/>
<path d="M25.4216 15.4777C25.2955 15.4576 25.1693 15.4174 25.0432 15.3772C24.9381 15.337 24.8119 15.2768 24.7278 15.2165C24.6437 15.1562 24.5597 15.0959 24.4756 15.0356L24.4125 14.9753L24.1182 15.4174L24.1602 15.4576C24.5807 15.7791 25.0642 15.9801 25.6108 16.0002H25.6949V15.5179H25.6318C25.5688 15.4978 25.4847 15.4978 25.4216 15.4777Z" fill="white"/>
</g>
<defs>
<clipPath id="clip0">
<rect width="30" height="34" fill="white" transform="translate(0.0888672 0.647949)"/>
</clipPath>
</defs>
</svg>
