<svg width="88" height="24" viewBox="0 0 88 24" fill="none" xmlns="http://www.w3.org/2000/svg">
<path d="M37.0222 12.7251C37.0222 12.8001 36.9474 12.8751 36.8726 12.8751H34.0559C34.1307 13.5751 34.6541 14.2251 35.4019 14.2251C35.9005 14.2251 36.2744 14.0251 36.5735 13.6251C36.5984 13.5751 36.6483 13.5501 36.6981 13.5501C36.7729 13.5501 36.8477 13.6001 36.8477 13.7001C36.8477 13.7251 36.8477 13.7501 36.8228 13.7751C36.5486 14.2751 35.9753 14.5251 35.4269 14.5251C34.4797 14.5251 33.8066 13.6751 33.8066 12.7501C33.8066 11.8251 34.4797 10.9751 35.4269 10.9751C36.3741 10.9751 37.0222 11.8001 37.0222 12.7251ZM36.7231 12.5751C36.6732 11.8751 36.1248 11.2251 35.377 11.2251C34.6292 11.2251 34.1058 11.8751 34.031 12.5751H36.7231Z" fill="white"/>
<path d="M40.4621 11.025C40.5369 11.025 40.6116 11.1 40.6116 11.175C40.6116 11.25 40.5618 11.325 40.4621 11.325H39.7143V14.3C39.7143 14.375 39.6644 14.45 39.5647 14.45C39.4899 14.45 39.4152 14.375 39.4152 14.3V11.3H38.6923C38.6175 11.3 38.5427 11.25 38.5427 11.15C38.5427 11.075 38.5926 11 38.6923 11H39.4152V9.9C39.4152 9.825 39.465 9.75 39.5647 9.75C39.6395 9.75 39.7143 9.8 39.7143 9.9V11H40.4621V11.025Z" fill="white"/>
<path d="M45.0984 12.475V14.275C45.0984 14.35 45.0237 14.425 44.9489 14.425C44.8741 14.425 44.7993 14.375 44.7993 14.275V12.475C44.7993 11.875 44.4504 11.25 43.7773 11.25C42.9049 11.25 42.531 12 42.5809 12.8C42.5809 12.825 42.5809 12.9 42.5809 12.925V14.275C42.5809 14.35 42.531 14.425 42.4313 14.425C42.3565 14.425 42.2817 14.375 42.2817 14.275V8.32505C42.2817 8.25005 42.3316 8.17505 42.4313 8.17505C42.5061 8.17505 42.5809 8.25005 42.5809 8.32505V11.675C42.8301 11.25 43.2539 10.95 43.7773 10.95C44.6248 10.95 45.0984 11.7 45.0984 12.475Z" fill="white"/>
<path d="M50.1586 12.7251C50.1586 12.8001 50.0839 12.8751 50.0091 12.8751H47.1924C47.2672 13.5751 47.7906 14.2251 48.5384 14.2251C49.0369 14.2251 49.4108 14.0251 49.71 13.6251C49.7349 13.5751 49.7847 13.5501 49.8346 13.5501C49.9094 13.5501 49.9842 13.6001 49.9842 13.7001C49.9842 13.7251 49.9842 13.7501 49.9592 13.7751C49.685 14.2751 49.1117 14.5251 48.5633 14.5251C47.6161 14.5251 46.9431 13.6751 46.9431 12.7501C46.9431 11.8251 47.6161 10.9751 48.5633 10.9751C49.4856 10.9501 50.1586 11.8001 50.1586 12.7251ZM49.8595 12.5751C49.8097 11.8751 49.2613 11.2251 48.5135 11.2251C47.7657 11.2251 47.2422 11.8751 47.1675 12.5751H49.8595Z" fill="white"/>
<path d="M53.6483 11.1501C53.6483 11.2501 53.5985 11.3001 53.5237 11.3001C52.7011 11.4251 52.3272 12.1001 52.3272 12.9001V14.2501C52.3272 14.3251 52.2773 14.4001 52.1776 14.4001C52.1029 14.4001 52.0281 14.3501 52.0281 14.2501V11.1751C52.0281 11.1001 52.0779 11.0251 52.1776 11.0251C52.2524 11.0251 52.3272 11.0751 52.3272 11.1751V11.8001C52.5515 11.4001 53.0251 11.0251 53.5237 11.0251C53.5486 11.0251 53.6483 11.0751 53.6483 11.1501Z" fill="white"/>
<path d="M58.2846 12.7251C58.2846 12.8001 58.2099 12.8751 58.1351 12.8751H55.3184C55.3931 13.5751 55.9166 14.2251 56.6644 14.2251C57.1629 14.2251 57.5368 14.0251 57.836 13.6251C57.8609 13.5751 57.9107 13.5501 57.9606 13.5501C58.0354 13.5501 58.1102 13.6001 58.1102 13.7001C58.1102 13.7251 58.1102 13.7501 58.0852 13.7751C57.811 14.2751 57.2377 14.5251 56.6893 14.5251C55.7421 14.5251 55.0691 13.6751 55.0691 12.7501C55.0691 11.8251 55.7421 10.9751 56.6893 10.9751C57.5867 10.9501 58.2846 11.8001 58.2846 12.7251ZM57.9855 12.5751C57.9357 11.8751 57.3873 11.2251 56.6395 11.2251C55.8917 11.2251 55.3682 11.8751 55.2934 12.5751H57.9855Z" fill="white"/>
<path d="M62.8462 11.175V12.15V14.275C62.8462 14.35 62.7714 14.425 62.6966 14.425C62.6219 14.425 62.5471 14.375 62.5471 14.275V13.675C62.3227 14.15 61.899 14.475 61.3755 14.475C60.528 14.475 60.0793 13.75 60.0793 12.975V11.15C60.0793 11.075 60.1292 11 60.2289 11C60.3037 11 60.3785 11.075 60.3785 11.15V13C60.3785 13.6 60.7274 14.225 61.4005 14.225C62.3477 14.225 62.572 13.325 62.572 12.35V11.2C62.572 11.125 62.6219 11.05 62.7216 11.05C62.7714 11.05 62.8462 11.1 62.8462 11.175Z" fill="white"/>
<path d="M70.0003 12.45V14.275C70.0003 14.35 69.9255 14.425 69.8508 14.425C69.776 14.425 69.7012 14.375 69.7012 14.275V12.45C69.7012 11.85 69.3522 11.25 68.6792 11.25C67.8317 11.25 67.5076 12.175 67.5076 12.875V14.275C67.5076 14.35 67.4329 14.425 67.3581 14.425C67.2833 14.425 67.2085 14.375 67.2085 14.275V12.45C67.2085 11.85 66.8595 11.25 66.1865 11.25C65.3141 11.25 64.9651 11.925 64.99 12.825C64.99 12.85 64.99 12.875 64.99 12.9V14.275C64.99 14.35 64.9402 14.425 64.8405 14.425C64.7657 14.425 64.6909 14.375 64.6909 14.275V11.175C64.6909 11.1 64.7408 11.025 64.8405 11.025C64.9153 11.025 64.99 11.075 64.99 11.175V11.7C65.2393 11.275 65.6631 10.975 66.1865 10.975C66.7598 10.975 67.2085 11.35 67.383 11.875C67.6073 11.35 68.081 10.975 68.6543 10.975C69.5267 10.95 70.0003 11.675 70.0003 12.45Z" fill="white"/>
<path d="M19 13.3501L25.107 22.0001V16.9751L19 13.3501Z" fill="#DDDDDD"/>
<path d="M19 12.1749L25.107 15.8249V9.3999L19 12.1749Z" fill="#393939"/>
<path d="M19 12.175L25.107 9.4V2L19 12.175Z" fill="#DDDDDD"/>
<path d="M31.2389 13.3501L25.1069 22.0001V16.9751L31.2389 13.3501Z" fill="#747474"/>
<path d="M31.2389 12.1749L25.1069 15.8249V9.3999L31.2389 12.1749Z" fill="#151515"/>
<path d="M31.2389 12.175L25.1069 9.4V2L31.2389 12.175Z" fill="#747474"/>
</svg>
