<svg width="88" height="25" viewBox="0 0 88 25" fill="none" xmlns="http://www.w3.org/2000/svg">
<g clip-path="url(#clip0)">
<path d="M56.0181 4.56845L59.2889 3.98932V16.6142H56.0181V4.56845ZM60.8092 4.56845V16.6142H64.0801V3.98933L60.8092 4.56845ZM51.3652 16.6142H54.636V7.37141H51.3652V16.6142ZM29.7362 8.69181C29.3215 8.66864 28.3541 8.59915 28.3541 7.74205C28.3541 6.69962 29.7362 6.69962 30.2429 6.69962C31.1412 6.69962 32.339 6.9776 33.1682 7.23242C33.1682 7.23242 33.6289 7.39457 34.0435 7.57989H34.0896V4.68427L34.0435 4.66111C33.0531 4.31363 31.9013 3.96616 29.7592 3.96616C26.0737 3.98933 24.7607 6.14366 24.7607 7.99686C24.7607 9.06245 25.2214 11.5874 29.4367 11.8654C29.8052 11.8886 30.7496 11.9349 30.7496 12.8383C30.7496 13.5796 29.9665 14.0197 28.6536 14.0197C27.2254 14.0197 25.8203 13.6491 24.9911 13.3016V16.2436C26.258 16.5679 27.6861 16.7532 29.3446 16.7532C32.9609 16.7532 34.5733 14.7147 34.5733 12.6762C34.5733 10.3828 32.7766 8.90029 29.7362 8.69181ZM49.5225 7.23242C46.505 7.32508 44.9617 8.69181 44.9617 11.4021V16.5911H48.2556V12.375C48.2556 10.7535 48.4629 10.0585 50.3748 9.98905V7.30191C50.0522 7.23242 49.5225 7.23242 49.5225 7.23242ZM40.6313 7.37141C40.5622 7.55673 40.0324 9.03928 38.7655 10.5913V3.98933L35.4025 4.66111V16.6142H38.7886V12.9078C39.756 14.3904 40.2397 16.6142 40.2397 16.6142H44.2937C43.9021 14.9463 42.1516 11.8654 42.1516 11.8654C43.7179 9.87322 44.4089 7.71888 44.5241 7.37141H40.6313ZM53.0007 6.49114C53.8989 6.49114 54.613 5.77303 54.613 4.86959C54.613 3.96616 53.8989 3.24805 53.0007 3.24805C52.1023 3.24805 51.3882 3.96616 51.3882 4.86959C51.3882 5.77303 52.1023 6.49114 53.0007 6.49114Z" fill="#A5247B"/>
</g>
<defs>
<clipPath id="clip0">
<rect width="88" height="24.0025" fill="white"/>
</clipPath>
</defs>
</svg>
