<svg width="88" height="24" viewBox="0 0 88 24" fill="none" xmlns="http://www.w3.org/2000/svg">
<path fill-rule="evenodd" clip-rule="evenodd" d="M22 21C26.4183 21 30 17.4183 30 13C30 8.5817 26.4183 5 22 5C17.5817 5 14 8.5817 14 13C14 17.4183 17.5817 21 22 21ZM22.0572 13.4708L21.4867 15.4274L26 15.4274L25.5365 17H18.3068L19.0451 14.4732L18 14.8209L18.3456 13.6355L19.3915 13.2875L20.6441 9H23.3606L22.4028 12.2853L23.7322 11.8429L23.7437 11.8715L23.4077 13.0214L22.0572 13.4708Z" fill="#3978DB"/>
<path d="M32 6H33.4227V18.8013H32V6Z" fill="#3978DB"/>
<path d="M34.9816 9.17759C34.4847 9.17759 34.1536 8.74095 34.1536 8.21989C34.1536 7.69956 34.5001 7.27929 35.0118 7.27929C35.5239 7.27929 35.855 7.69956 35.855 8.21989C35.855 8.74095 35.5239 9.17759 34.9967 9.17759H34.9816ZM34.3494 18.8013V10.6721H35.6743V18.8013H34.3494Z" fill="#3978DB"/>
<path d="M65.4984 9.17759C65.0011 9.17759 64.67 8.74095 64.67 8.21989C64.67 7.69956 65.0163 7.27929 65.5279 7.27929C66.0403 7.27929 66.3714 7.69956 66.3714 8.21989C66.3714 8.74095 66.0403 9.17759 65.5128 9.17759H65.4984ZM64.8655 18.8013V10.6721H66.1905V18.8013H64.8655Z" fill="#3978DB"/>
<path d="M36.6497 7.98324H38.0401V10.0747H41.3539V11.2829H38.0401V15.9882C38.0401 17.0708 38.3149 17.6835 39.1065 17.6835C40.2559 17.6835 40.9461 17.3522 41.1565 17.2798L41.5317 18.477C41.2577 18.5852 40.5561 19 38.7346 19C38.0721 19 37.539 18.7468 37.1994 18.3321C36.8114 17.8461 36.6497 17.0708 36.6497 16.0426V7.98324Z" fill="#3978DB"/>
<path d="M42.76 14.7089C42.7953 16.8547 44.1309 17.7374 45.698 17.7374C46.8195 17.7374 47.5143 17.5394 48.0837 17.3045L48.3686 18.4233C47.8169 18.675 46.8559 18.9819 45.4839 18.9819C42.8489 18.9819 41.2465 17.197 41.2465 14.582C41.2465 11.9321 42.7953 9.85801 45.3062 9.85801C48.1193 9.85801 48.8499 12.3649 48.8499 13.9691C48.8499 14.294 48.8315 14.5459 48.796 14.7269L42.76 14.7089ZM47.3363 13.5724C47.3541 12.5807 46.9267 10.9944 45.1816 10.9944C43.5792 10.9944 42.9025 12.4724 42.7778 13.5724H47.3363Z" fill="#3978DB"/>
<path d="M55.9192 18.4951C55.523 18.6921 54.6452 19 53.5258 19C51.0133 19 49.3777 17.2151 49.3777 14.5281C49.3777 11.8416 51.1332 9.87671 53.8533 9.87671C54.7486 9.87671 55.5401 10.1105 55.9533 10.3452L55.6086 11.5534C55.2479 11.3547 54.6796 11.1386 53.8533 11.1386C51.9424 11.1386 50.91 12.6354 50.91 14.4564C50.91 16.476 52.149 17.7193 53.8015 17.7193C54.6624 17.7193 55.2307 17.5033 55.6607 17.3045L55.9192 18.4951Z" fill="#3978DB"/>
<path d="M59.955 19C57.854 19 56.205 17.2688 56.205 14.5107C56.205 11.5892 57.9345 9.87671 60.0845 9.87671C62.3317 9.87671 63.8512 11.6977 63.8512 14.3479C63.8512 17.5937 61.8303 19 59.9719 19H59.955ZM60.0039 17.8098C61.3611 17.8098 62.3802 16.3855 62.3802 14.4026C62.3802 12.9236 61.7178 11.0668 60.0359 11.0668C58.371 11.0668 57.6437 12.7974 57.6437 14.4564C57.6437 16.3668 58.6135 17.8098 59.9877 17.8098H60.0039Z" fill="#3978DB"/>
<path d="M68.7627 11.3367V18.8013H67.3404V10.5198C67.9614 9.81714 70.3844 10.0657 70.3844 10.0657C71.4673 10.0657 74 10.7716 74 13.7012V18.8013H72.7473V13.8774C72.7473 12.3046 71.7807 11.2855 70.4389 11.2855C70.4389 11.2855 69.5875 11.2124 68.7627 11.3367Z" fill="#3978DB"/>
</svg>
