<svg width="88" height="24" viewBox="0 0 88 24" fill="none" xmlns="http://www.w3.org/2000/svg">
<path d="M21.1859 9.69705H18.9391C18.7589 9.69705 18.5648 9.73828 18.3706 9.82103C18.1765 9.90379 18.0239 10.0004 17.8991 10.1246C17.6495 10.4143 17.5385 10.8282 17.5247 11.38V18.4432H19.1056V16.0567H21.2275C21.6296 16.0567 21.9625 15.9049 22.2537 15.6151C22.5449 15.3391 22.6836 15.0081 22.6975 14.6218V11.3247C22.6836 10.2489 22.1844 9.71074 21.1859 9.69705ZM21.0194 14.3045C20.9362 14.4012 20.8392 14.4425 20.7282 14.4425H19.6048C19.2721 14.4425 19.1195 14.277 19.1056 13.9734V11.78C19.1056 11.4904 19.2582 11.3247 19.5495 11.311H20.7698C21.0055 11.3247 21.1165 11.449 21.1304 11.6973L21.1442 14.0425C21.1442 14.1528 21.1026 14.2355 21.0194 14.3045Z" fill="#008ACA"/>
<path d="M27.5651 9.69705H23.9871V11.311H27.1629C27.4541 11.2972 27.6067 11.4214 27.5928 11.6559H27.6067V11.8077H25.5125C24.5002 11.8351 24.001 12.3317 23.9871 13.3252V14.6218C24.001 15.5737 24.5279 16.0427 25.5819 16.0567H27.7315C28.1475 16.0567 28.4943 15.9186 28.7576 15.6289C29.0073 15.3391 29.1322 14.9942 29.146 14.5667V11.2006C29.1322 10.2073 28.6052 9.71074 27.5651 9.69705ZM27.6067 14.1252C27.5928 14.3322 27.4541 14.4425 27.1767 14.4425H25.9702C25.8455 14.4425 25.7484 14.4151 25.679 14.3461C25.5958 14.2907 25.5542 14.2219 25.5542 14.1252L25.568 13.7113C25.568 13.5458 25.5958 13.4216 25.6513 13.3665C25.7206 13.3252 25.8316 13.2976 25.9841 13.2976H27.1767C27.468 13.2976 27.6067 13.4216 27.6067 13.6699V14.1252Z" fill="#008ACA"/>
<path d="M34.0416 14.0425C34.0416 14.139 33.9999 14.2355 33.9028 14.3045C33.8057 14.4012 33.6949 14.4425 33.5561 14.4425H32.4467C32.1694 14.4425 32.0307 14.277 32.0307 13.9321V9.69705H30.4497V14.4288C30.4497 14.6908 30.4913 14.9116 30.5607 15.077C30.616 15.2703 30.7409 15.4496 30.8935 15.6151C31.0599 15.7669 31.2263 15.891 31.3927 15.9462C31.5452 16.0153 31.7533 16.0427 32.0168 16.0427H34.0277V16.429C34.0277 16.5256 33.9861 16.6222 33.9028 16.6913C33.8196 16.774 33.7087 16.8153 33.5839 16.829H30.4359V18.4432H34.1248C34.5824 18.4294 34.943 18.2776 35.2065 17.9603C35.4699 17.6431 35.5948 17.2292 35.6087 16.705V9.69705H34.0416V14.0425Z" fill="#008ACA"/>
<path d="M36.8429 11.1316V12.3317C36.8429 12.6906 36.9953 13.0078 37.3005 13.2562C37.6056 13.5322 37.9522 13.6699 38.3683 13.6838H39.7551C39.8522 13.6838 39.9216 13.7389 39.9909 13.8631C40.0186 13.9183 40.0325 13.9598 40.0325 14.001V14.139C40.0186 14.3322 39.8938 14.4288 39.6303 14.4425H36.829V16.0567H40.1157C40.3792 16.0567 40.5872 16.029 40.7397 15.9737C40.8923 15.9186 41.0449 15.8082 41.1835 15.6427C41.4748 15.3115 41.6273 14.9806 41.6412 14.6496V13.4768C41.6273 13.0907 41.4886 12.7596 41.2251 12.4835C40.9617 12.2078 40.6565 12.0697 40.2821 12.056H38.8953C38.5624 12.056 38.3961 11.9595 38.3961 11.7524V11.6006C38.3961 11.4076 38.5624 11.311 38.8814 11.311H41.6412V9.69705H38.3822C37.3699 9.72448 36.8567 10.1934 36.8429 11.1316Z" fill="#008ACA"/>
<path d="M46.3563 9.69705H42.7783V11.311H45.9542C46.2454 11.2972 46.3841 11.4214 46.3841 11.6559V11.8077H44.29C43.2776 11.8351 42.7645 12.3317 42.7645 13.3252V14.6218C42.7783 15.5737 43.3053 16.0427 44.3593 16.0567H46.5227C46.9388 16.0567 47.2855 15.9186 47.549 15.6289C47.7987 15.3391 47.9234 14.9942 47.9372 14.5667V11.2006C47.9234 10.2073 47.3964 9.71074 46.3563 9.69705ZM46.3702 14.1252C46.3563 14.3322 46.2176 14.4425 45.9403 14.4425H44.7338C44.6228 14.4425 44.5258 14.4151 44.4564 14.3461C44.3732 14.2907 44.3316 14.2219 44.3316 14.1252H44.3455V13.7113C44.3455 13.5458 44.3732 13.4216 44.4287 13.3665C44.4842 13.3252 44.595 13.2976 44.7476 13.2976H45.9403C46.2176 13.2976 46.3702 13.4216 46.3702 13.6699V14.1252Z" fill="#008ACA"/>
<path d="M49.6984 7.73796C49.3794 8.00002 49.2269 8.35884 49.213 8.78637L49.1992 16.0567H50.7801V11.311H51.8896V9.69705H50.7801V9.35208C50.7939 9.04858 50.9604 8.89681 51.2933 8.88317H51.9034V7.32422H50.9049C50.4057 7.33796 50.0035 7.47599 49.6984 7.73796Z" fill="#008ACA"/>
<path d="M57.9915 12.5113V11.242C57.9777 10.2212 57.4785 9.71074 56.4938 9.69705H54.372C53.3597 9.72448 52.8465 10.2073 52.8327 11.1869L52.8465 14.4012C52.8465 14.7185 52.8743 14.9669 52.9436 15.146C52.9991 15.3254 53.124 15.5048 53.2903 15.6705C53.4429 15.8082 53.6093 15.9186 53.8035 15.9737C53.9837 16.029 54.2195 16.0567 54.5385 16.0567H57.9777V14.4425H54.7465C54.6495 14.4425 54.5939 14.4012 54.5385 14.3045C54.4691 14.2355 54.4414 14.1252 54.4414 14.001V13.9044L57.9915 12.5113ZM54.3998 12.3733V11.725C54.3998 11.6006 54.4552 11.5042 54.5662 11.4352C54.6632 11.3524 54.7742 11.311 54.9129 11.311H56.0085C56.1194 11.311 56.2165 11.3247 56.2858 11.38C56.3552 11.4352 56.3829 11.5042 56.3829 11.5869V11.6283L54.3998 12.3733Z" fill="#008ACA"/>
<path d="M60.7928 15.6289C60.6264 15.5877 60.4462 15.5048 60.2798 15.3806C60.1272 15.2426 60.0162 15.0633 59.9469 14.8701C59.8776 14.6633 59.8497 14.4563 59.8497 14.2494V11.242C59.8497 10.8006 59.9746 10.4695 60.2243 10.2901C60.46 10.1108 60.7928 10.028 61.2089 10.028H63.5665V9.65562H61.1534C60.8899 9.65562 60.668 9.66941 60.474 9.72448C60.2659 9.77981 60.0717 9.90379 59.8776 10.0971C59.7112 10.2764 59.6002 10.4556 59.5448 10.6488C59.4893 10.8419 59.4615 11.0489 59.4754 11.2972V14.3045C59.4754 14.5943 59.517 14.8425 59.6002 15.077C59.6834 15.3115 59.8221 15.5187 60.044 15.7117C60.252 15.8772 60.46 15.9737 60.668 16.0014C60.8622 16.029 61.0841 16.0567 61.3199 16.0567H63.5942V15.6841H61.3476C61.1534 15.6841 60.9732 15.6705 60.7928 15.6289Z" fill="#008ACA"/>
<path d="M70.1123 14.3183V11.4076C70.1123 10.9247 69.9736 10.497 69.6825 10.1246C69.5854 10.0004 69.4883 9.90379 69.3773 9.83493C69.2664 9.76591 69.1555 9.72448 69.0306 9.69705C68.7949 9.65562 68.5175 9.64173 68.2263 9.64173H64.9812V10.0143H68.4065C68.6146 10.0143 68.8088 10.0419 68.989 10.0833C69.1693 10.1383 69.3218 10.2626 69.4467 10.428C69.6547 10.704 69.7519 11.0074 69.7519 11.3524V11.78H66.6176C65.5497 11.8077 64.9951 12.3733 64.9812 13.4632V14.4288C64.9812 14.9254 65.1338 15.3254 65.4526 15.6151C65.7578 15.891 66.1599 16.0427 66.6454 16.0427H68.5314C69.0306 16.0427 69.4328 15.8772 69.7657 15.5323C69.932 15.3532 70.0291 15.1599 70.0846 14.953C70.1262 14.7736 70.1401 14.5667 70.1401 14.3183H70.1123ZM69.7519 14.4151C69.7519 15.2426 69.3496 15.6564 68.5453 15.6705H66.6314C66.3125 15.6705 66.0074 15.5599 65.7301 15.3391C65.5775 15.2151 65.4804 15.077 65.4388 14.9116C65.3972 14.7598 65.3833 14.5806 65.3833 14.4012V13.4493C65.3833 13.0492 65.4942 12.7458 65.7162 12.5113C65.9242 12.2905 66.2293 12.18 66.6038 12.1663H69.7657L69.7519 14.4151Z" fill="#008ACA"/>
<path d="M72.0122 11.4627V16.0567H72.3867V11.4627C72.3727 10.5246 72.8027 10.0419 73.6764 10.028H74.1618V9.65562H73.7456C72.5669 9.65562 71.9983 10.2626 72.0122 11.4627Z" fill="#008ACA"/>
<path d="M80.4162 7.58638H80.0417V9.65562H77.0879C75.8536 9.64173 75.2296 10.2626 75.2156 11.4904V14.2219C75.2019 14.4839 75.2296 14.7185 75.285 14.9254C75.3266 15.1324 75.4375 15.3391 75.6039 15.546C75.8258 15.7808 76.0616 15.9323 76.2973 15.9877C76.5331 16.029 76.7966 16.0567 77.0879 16.0567H78.4885C79.7505 16.0842 80.4024 15.4909 80.43 14.277L80.4162 7.58638ZM80.0556 14.2355C80.0417 14.7461 79.8892 15.1187 79.5841 15.3254C79.2791 15.546 78.8769 15.6564 78.3915 15.6564H77.0879C76.8798 15.6564 76.6856 15.6289 76.5054 15.5877C76.3251 15.546 76.1725 15.4909 76.0339 15.4082C75.7427 15.2288 75.6039 14.8979 75.6039 14.4151V11.4904C75.5901 11.2696 75.6178 11.0764 75.6733 10.9109C75.7149 10.7455 75.812 10.5936 75.9646 10.428C76.131 10.2489 76.3112 10.1383 76.4915 10.0971C76.6718 10.0556 76.866 10.028 77.074 10.028H80.0556V14.2355Z" fill="#008ACA"/>
<path d="M9.16395 9.33848C9.3858 8.26252 10.3565 7.4484 11.5076 7.4484C12.6586 7.4484 13.6156 8.26252 13.8513 9.33848C14.2118 9.4075 14.5031 9.5456 14.725 9.76625C14.7389 9.55929 14.725 9.35237 14.6973 9.17295C14.5447 7.53107 13.1718 6.24805 11.4937 6.24805C9.76014 6.24805 8.35956 7.61384 8.29018 9.31104C8.27637 9.46283 8.27637 9.61462 8.27637 9.76625C8.42894 9.64206 8.59534 9.5456 8.78941 9.46283C8.91426 9.4075 9.03905 9.36617 9.16395 9.33848Z" fill="#E2001A"/>
<path d="M13.3641 9.69629H9.52274C9.34248 9.69629 9.14831 9.73752 8.95413 9.82029C8.75996 9.90305 8.60738 9.99971 8.48264 10.1239C8.24687 10.4136 8.12207 10.8275 8.10815 11.3794V14.3732C8.12207 14.9251 8.23305 15.339 8.48264 15.6288C8.60738 15.753 8.75996 15.8495 8.95413 15.9322C9.14831 16.0152 9.34248 16.0566 9.52274 16.0566H13.3641C14.3627 16.0426 14.8619 15.5047 14.8758 14.4285V11.3241C14.8619 10.2482 14.3627 9.70998 13.3641 9.69629Z" fill="#E2001A"/>
</svg>
