<svg width="88" height="25" viewBox="0 0 88 25" fill="none" xmlns="http://www.w3.org/2000/svg">
<g clip-path="url(#clip0)">
<path d="M69.5642 8.01105C68.8472 7.50385 67.7622 7.24805 66.3395 7.24805H62.6137L61.2287 15.01H56.348L56.6609 13.2492H59.6015L59.951 11.2713L57.0123 11.2764L57.3271 9.52325H60.3551L60.758 7.24823H54.6069L53.2923 14.6118H51.0368L52.361 7.24823H49.1452L47.8307 14.6118H45.6314L46.9569 7.24823H43.7444L42.3559 15.0104H37.4406L37.7503 13.2495H40.7039L41.0518 11.2828L38.1026 11.28L38.4158 9.52325H41.4776L41.8785 7.24823H22.715L21.6242 13.3995L19.451 7.24805H16.1158L14.3208 17.2863H17.5058L18.5921 10.966L20.7011 17.2863H32.1172L33.505 9.52283H35.2913L33.9028 17.2863H63.9421L64.8122 12.3853L66.2225 17.2863H69.4093L67.9493 13.2817L68.2826 13.2073C69.017 13.045 69.5919 12.6953 69.9908 12.1713C70.3904 11.6425 70.5934 10.9634 70.5934 10.1478C70.5936 9.19775 70.2574 8.49921 69.5642 8.01105ZM29.3441 15.0098H24.4672L24.7824 13.249H27.8413L28.189 11.2655H25.1595L25.4523 9.52264H30.3206L29.3441 15.0098ZM66.937 11.6288C66.617 11.8589 66.1526 11.9727 65.5172 11.9727H64.8869L65.3702 9.2785H65.8337C66.3611 9.2785 66.7464 9.36633 67.0119 9.54425C67.2193 9.68365 67.4652 9.9599 67.4652 10.4838C67.4652 11.1151 67.1792 11.4547 66.937 11.6288Z" fill="#8DC540"/>
<path d="M73.0902 16.5035C73.0334 16.4221 72.9741 16.3546 72.9121 16.3018C72.8835 16.2777 72.841 16.2542 72.7865 16.23C72.9319 16.2014 73.0377 16.1466 73.104 16.0665C73.1702 15.9857 73.2011 15.8898 73.195 15.7776C73.1916 15.6906 73.166 15.6133 73.1201 15.5438C73.0739 15.4741 73.0153 15.427 72.9425 15.4026C72.8699 15.3778 72.7661 15.369 72.6306 15.376L71.9518 15.4113L72.03 16.9904L72.2329 16.9797L72.1993 16.278L72.4329 16.2657C72.4851 16.2628 72.5225 16.2634 72.5461 16.2672C72.577 16.2739 72.6097 16.2858 72.6401 16.3047C72.6712 16.3233 72.7076 16.3561 72.748 16.4046C72.7888 16.4526 72.841 16.5227 72.9048 16.6147L73.1233 16.9324L73.3755 16.9193L73.0902 16.5035ZM72.6245 16.0757L72.1905 16.0989L72.1636 15.5758L72.6466 15.5504C72.7598 15.5448 72.8443 15.5637 72.8991 15.609C72.9536 15.655 72.9829 15.7146 72.9866 15.7899C72.9899 15.8409 72.9781 15.8882 72.9536 15.9335C72.9289 15.9788 72.8905 16.0125 72.8397 16.0346C72.789 16.057 72.7164 16.0714 72.6245 16.0757Z" fill="#8DC540"/>
<path d="M72.479 14.69C72.0986 14.7109 71.7469 14.8828 71.4915 15.1752C71.2358 15.4677 71.1051 15.8461 71.1247 16.2399C71.166 17.0522 71.8388 17.6788 72.626 17.6381C73.4121 17.596 74.0205 16.9009 73.9798 16.0891C73.94 15.2766 73.2672 14.6486 72.479 14.69ZM72.6129 17.3876C71.9594 17.4216 71.4016 16.9009 71.3675 16.2264C71.3518 15.8995 71.4593 15.5865 71.6716 15.3442C71.8838 15.1015 72.1757 14.9581 72.4927 14.9417C73.1451 14.9067 73.7035 15.427 73.7371 16.1013C73.7381 16.1221 73.7395 16.1442 73.7395 16.1643C73.7395 16.8112 73.2456 17.3535 72.6129 17.3876Z" fill="#8DC540"/>
</g>
<defs>
<clipPath id="clip0">
<rect width="88" height="24.0025" fill="white"/>
</clipPath>
</defs>
</svg>
