<svg width="88" height="25" viewBox="0 0 88 25" fill="none" xmlns="http://www.w3.org/2000/svg">
<g clip-path="url(#clip0)">
<path d="M38.8892 14.4397V11.5745C38.8892 10.4934 38.2035 9.7656 37.1 9.75605C36.4599 9.71443 35.848 10.0262 35.5026 10.5698C35.1879 10.0422 34.6115 9.72998 34.0003 9.75605C33.4687 9.73023 32.9631 9.98882 32.6707 10.4361V9.86302H31.6812V14.4397H32.6802V11.9049C32.6802 11.1103 33.1171 10.6901 33.7932 10.6901C34.4694 10.6901 34.7828 11.1199 34.7828 11.8954V14.4397H35.7762V11.9049C35.7762 11.1103 36.232 10.6901 36.8892 10.6901C37.5463 10.6901 37.8882 11.1199 37.8882 11.8954V14.4397H38.8892V14.4397ZM53.6718 9.86684H52.0554V8.48009H51.0563V9.86684H50.1333V10.7761H51.0563V12.86C51.0563 13.922 51.4647 14.5543 52.6347 14.5543C53.0717 14.5557 53.5002 14.4332 53.8712 14.2009L53.5863 13.349C53.3208 13.508 53.0195 13.5968 52.7107 13.6069C52.2169 13.6069 52.0535 13.3012 52.0535 12.8428V10.7761H53.6699L53.6718 9.86684ZM62.1105 9.75223C61.619 9.73782 61.1591 9.99512 60.912 10.4227V9.86684H59.932V14.4397H60.9216V11.8763C60.9216 11.1122 61.2444 10.6997 61.8921 10.6997C62.104 10.6966 62.3144 10.7355 62.5113 10.8143L62.8152 9.87639C62.589 9.79505 62.3507 9.75306 62.1105 9.75223ZM49.3526 10.2298C48.7924 9.89502 48.1483 9.72926 47.497 9.75223C46.346 9.75223 45.5977 10.3081 45.5977 11.2154C45.5977 11.9623 46.1485 12.4207 47.1665 12.5639L47.6318 12.6308C48.1732 12.7072 48.4315 12.8505 48.4315 13.1083C48.4315 13.4617 48.0706 13.6642 47.3944 13.6642C46.8489 13.6816 46.3135 13.5133 45.8749 13.1866L45.4248 13.9602C46.0011 14.3654 46.6916 14.5737 47.3944 14.5543C48.7069 14.5543 49.4685 13.9316 49.4685 13.0625C49.4685 12.2583 48.8683 11.8381 47.8807 11.6948L47.4153 11.628C46.988 11.5707 46.6442 11.4847 46.6442 11.1791C46.6442 10.8448 46.9671 10.6443 47.5103 10.6443C48.008 10.6517 48.4956 10.7864 48.9272 11.0358L49.3526 10.2298ZM75.8523 9.75223C75.3608 9.73782 74.9008 9.99512 74.6538 10.4227V9.86684H73.6737V14.4397H74.6633V11.8763C74.6633 11.1122 74.9862 10.6997 75.6338 10.6997C75.8457 10.6966 76.0561 10.7355 76.253 10.8143L76.5569 9.87639C76.3308 9.79505 76.0925 9.75306 75.8523 9.75223ZM63.1096 12.1533C63.1096 13.54 64.0706 14.5543 65.535 14.5543C66.1288 14.5838 66.7122 14.389 67.1704 14.008L66.6955 13.2038C66.3535 13.4658 65.9365 13.6098 65.5066 13.6145C64.7164 13.6145 64.1371 13.03 64.1371 12.1514C64.1371 11.2727 64.7183 10.6977 65.5066 10.6882C65.9365 10.6929 66.3535 10.8369 66.6955 11.0989L67.1704 10.2947C66.7122 9.91373 66.1288 9.71887 65.535 9.74841C64.0706 9.74841 63.1096 10.7627 63.1096 12.1494V12.1533ZM72.3746 12.1533V9.86111H71.385V10.417C71.0427 9.97269 70.5075 9.7228 69.9491 9.7465C68.6747 9.7465 67.6699 10.7512 67.6699 12.1475C67.6699 13.5438 68.669 14.5486 69.9491 14.5486C70.5075 14.5723 71.0427 14.3224 71.385 13.8781V14.432H72.3746V12.1533ZM68.6936 12.1533C68.6936 11.3491 69.216 10.6901 70.0726 10.6901C70.8912 10.6901 71.442 11.3224 71.442 12.1533C71.442 12.9842 70.8912 13.6164 70.0726 13.6164C69.216 13.6164 68.6936 12.9555 68.6936 12.1533ZM56.7544 9.75223C55.4248 9.75223 54.4904 10.7283 54.4904 12.1533C54.4904 13.6069 55.4609 14.5543 56.8209 14.5543C57.4999 14.5782 58.1639 14.3497 58.686 13.9125L58.2017 13.1752C57.8239 13.4791 57.3559 13.6472 56.8721 13.6527C56.234 13.6527 55.6547 13.3566 55.5122 12.5334H58.8892C58.8987 12.4092 58.9083 12.2851 58.9083 12.1514C58.9083 10.7264 58.0231 9.75032 56.7487 9.75032L56.7544 9.75223ZM56.7354 10.6424C57.3736 10.6424 57.7819 11.0435 57.8864 11.7521H55.5293C55.6338 11.0912 56.0326 10.6424 56.7373 10.6424H56.7354ZM81.5503 12.1533V8.0293H80.5608V10.4208C80.2184 9.97651 79.6832 9.72662 79.1248 9.75032C77.8504 9.75032 76.8456 10.755 76.8456 12.1514C76.8456 13.5477 77.8447 14.5524 79.1248 14.5524C79.6832 14.5761 80.2184 14.3262 80.5608 13.8819V14.4359H81.5503V12.1533ZM82.707 14.0175C82.7462 14.0174 82.7849 14.0252 82.821 14.0405C82.8557 14.0554 82.8873 14.0768 82.914 14.1035C82.9406 14.1297 82.9618 14.1609 82.9767 14.1952C83.0076 14.2671 83.0076 14.3487 82.9767 14.4206C82.9618 14.4549 82.9405 14.486 82.914 14.5123C82.8872 14.5389 82.8556 14.5603 82.821 14.5753C82.7849 14.5907 82.7462 14.5985 82.707 14.5982C82.5886 14.5997 82.4808 14.5297 82.4335 14.4206C82.4029 14.3486 82.4029 14.2672 82.4335 14.1952C82.4632 14.1251 82.5191 14.0695 82.5893 14.0405C82.6277 14.0244 82.6691 14.0166 82.7108 14.0175H82.707V14.0175ZM82.707 14.5333C82.737 14.5338 82.7668 14.5279 82.7944 14.5161C82.8205 14.5047 82.8444 14.4885 82.8646 14.4683C82.9526 14.3796 82.9526 14.2361 82.8646 14.1474C82.8445 14.1272 82.8206 14.111 82.7944 14.0997C82.7667 14.088 82.737 14.0821 82.707 14.0825C82.6764 14.0821 82.646 14.0879 82.6177 14.0997C82.5029 14.149 82.4496 14.2825 82.4986 14.398C82.5097 14.4242 82.5257 14.4481 82.5456 14.4683C82.5663 14.4888 82.5908 14.505 82.6177 14.5161C82.6472 14.5284 82.6789 14.5343 82.7108 14.5333H82.707ZM82.7241 14.1704C82.7525 14.1684 82.7808 14.1765 82.8039 14.1933C82.8228 14.2085 82.8334 14.2319 82.8323 14.2563C82.8331 14.2772 82.8248 14.2974 82.8096 14.3117C82.7921 14.3273 82.7701 14.3367 82.7469 14.3384L82.8343 14.4397H82.7659L82.6842 14.3384H82.6576V14.4397H82.6006V14.1723L82.7241 14.1704ZM82.6576 14.22V14.2926H82.7241C82.7359 14.2961 82.7484 14.2961 82.7602 14.2926C82.7689 14.2866 82.774 14.2765 82.7735 14.2659C82.774 14.2552 82.7689 14.2451 82.7602 14.2391C82.7484 14.2357 82.7359 14.2357 82.7241 14.2391L82.6576 14.22ZM77.8732 12.1533C77.8732 11.3491 78.3955 10.6901 79.2521 10.6901C80.0707 10.6901 80.6215 11.3224 80.6215 12.1533C80.6215 12.9842 80.0707 13.6164 79.2521 13.6164C78.3955 13.6164 77.8732 12.9555 77.8732 12.1533ZM44.4637 12.1533V9.86111H43.4742V10.417C43.1318 9.97653 42.5994 9.72906 42.044 9.75223C40.7695 9.75223 39.7648 10.757 39.7648 12.1533C39.7648 13.5496 40.7638 14.5543 42.044 14.5543C42.6024 14.578 43.1375 14.3281 43.4799 13.8838V14.4378H44.4695L44.4637 12.1533ZM40.7828 12.1533C40.7828 11.3491 41.3051 10.6901 42.1617 10.6901C42.9803 10.6901 43.5311 11.3224 43.5311 12.1533C43.5311 12.9842 42.9803 13.6164 42.1617 13.6164C41.3051 13.6164 40.7828 12.9574 40.7828 12.1533Z" fill="white"/>
<path d="M19.0542 6.71704H13.0713V17.5303H19.0542V6.71704Z" fill="#FF5F00"/>
<path d="M13.4513 12.126C13.4497 10.0163 14.4128 8.02297 16.063 6.72038C13.0938 4.37371 8.79527 4.89198 6.46182 7.87797C4.12842 10.864 4.64376 15.1869 7.61289 17.5336C10.0925 19.4934 13.5833 19.4934 16.063 17.5336C14.4122 16.2306 13.4491 14.2364 13.4513 12.126Z" fill="#EB001B"/>
<path d="M27.1266 12.1265C27.1266 15.9243 24.0652 19.0029 20.2888 19.0028C18.7561 19.0028 17.2679 18.4849 16.063 17.5322C19.0321 15.1855 19.5475 10.8626 17.214 7.87657C16.8776 7.44599 16.4911 7.05737 16.063 6.71898C19.0317 4.37175 23.3303 4.88921 25.6643 7.87476C26.612 9.08704 27.127 10.5845 27.1266 12.1265Z" fill="#F79E1B"/>
<path d="M26.4697 16.3842V16.1626H26.559V16.1187H26.3367V16.1645H26.426V16.3861L26.4697 16.3842ZM26.9085 16.3842V16.1168H26.8496L26.7698 16.3078L26.69 16.1168H26.6197V16.3842H26.6596V16.1836L26.7337 16.3575H26.785L26.8591 16.1836V16.3861L26.9085 16.3842Z" fill="#F79E1B"/>
</g>
<defs>
<clipPath id="clip0">
<rect width="88" height="24.0025" fill="white"/>
</clipPath>
</defs>
</svg>
