<svg width="88" height="24" viewBox="0 0 88 24" fill="none" xmlns="http://www.w3.org/2000/svg">
<path d="M37.7895 6.75233L28.9984 3.24805L20.2073 6.75233V8.78959H37.7895V6.75233Z" fill="#2A7CCE"/>
<path d="M24.7264 10.1343C24.9872 10.1343 25.1986 9.94284 25.1986 9.70645C25.1986 9.46995 24.9872 9.27861 24.7264 9.27861H21.9384C21.6776 9.27861 21.4663 9.46995 21.4663 9.70645C21.4663 9.94284 21.6776 10.1343 21.9384 10.1343H22.0958V16.2464H21.9384C21.6776 16.2464 21.4663 16.4378 21.4663 16.6742C21.4663 16.9106 21.6776 17.1022 21.9384 17.1022H24.7264C24.9872 17.1022 25.1986 16.9106 25.1986 16.6742C25.1986 16.4378 24.9872 16.2464 24.7264 16.2464H24.5691V10.1343H24.7264Z" fill="#2A7CCE"/>
<path d="M30.3923 10.1343C30.6532 10.1343 30.8645 9.94284 30.8645 9.70645C30.8645 9.46995 30.6532 9.27861 30.3923 9.27861H27.6044C27.3436 9.27861 27.1323 9.46995 27.1323 9.70645C27.1323 9.94284 27.3436 10.1343 27.6044 10.1343H27.7618V16.2464H27.6044C27.3436 16.2464 27.1323 16.4378 27.1323 16.6742C27.1323 16.9106 27.3436 17.1022 27.6044 17.1022H30.3923C30.6532 17.1022 30.8645 16.9106 30.8645 16.6742C30.8645 16.4378 30.6532 16.2464 30.3923 16.2464H30.2349V10.1343H30.3923Z" fill="#2A7CCE"/>
<path d="M36.1483 10.1343C36.4089 10.1343 36.6204 9.94284 36.6204 9.70645C36.6204 9.46995 36.4089 9.27861 36.1483 9.27861H33.3603C33.0994 9.27861 32.888 9.46995 32.888 9.70645C32.888 9.94284 33.0994 10.1343 33.3603 10.1343H33.5176V16.2464H33.3603C33.0994 16.2464 32.888 16.4378 32.888 16.6742C32.888 16.9106 33.0994 17.1022 33.3603 17.1022H36.1483C36.4089 17.1022 36.6204 16.9106 36.6204 16.6742C36.6204 16.4378 36.4089 16.2464 36.1483 16.2464H35.9908V10.1343H36.1483Z" fill="#2A7CCE"/>
<path d="M20.6569 18.6505H37.3398C37.5872 18.6505 37.7895 18.4671 37.7895 18.2432V17.9985C37.7895 17.7744 37.5872 17.5911 37.3398 17.5911H20.6569C20.4096 17.5911 20.2073 17.7744 20.2073 17.9985V18.2432C20.2073 18.4671 20.4096 18.6505 20.6569 18.6505Z" fill="#2A7CCE"/>
<path d="M38.509 19.1395H19.4878C19.2404 19.1395 19.0381 19.3229 19.0381 19.5469V19.9135C19.0381 20.1378 19.2404 20.3212 19.4878 20.3212H38.509C38.7563 20.3212 38.9586 20.1378 38.9586 19.9135V19.5469C38.9586 19.3229 38.7563 19.1395 38.509 19.1395Z" fill="#2A7CCE"/>
<path d="M46.3783 9.36421C46.2119 9.1645 45.9736 9.02583 45.6677 8.94442C45.906 8.83843 46.0859 8.70014 46.2029 8.52468C46.3198 8.34944 46.3783 8.16199 46.3783 7.96638C46.3783 7.75463 46.3153 7.55491 46.1804 7.35925C46.0455 7.16381 45.8612 7.02125 45.6273 6.92741C45.3934 6.83369 45.0787 6.78891 44.692 6.78891H42.7853V11.3975H44.7235C45.0472 11.3975 45.317 11.3729 45.5419 11.32C45.7667 11.267 45.9511 11.1938 46.0995 11.0919C46.2478 10.9939 46.3738 10.8514 46.4727 10.6641C46.5761 10.4766 46.6256 10.2768 46.6256 10.0609C46.6256 9.79183 46.5447 9.55976 46.3783 9.36421ZM43.4553 7.335H44.4762C44.8404 7.335 45.1011 7.35542 45.2496 7.40004C45.3979 7.44482 45.5149 7.52234 45.5958 7.64053C45.6767 7.75463 45.7173 7.88903 45.7173 8.0439C45.7173 8.20688 45.6723 8.34134 45.5868 8.44733C45.5013 8.55326 45.371 8.63083 45.2001 8.67551C45.0697 8.71208 44.8538 8.72855 44.5571 8.72855H43.4553V7.335ZM45.8252 10.452C45.7578 10.5661 45.6723 10.6518 45.5689 10.7089C45.4654 10.77 45.335 10.8108 45.1821 10.8351C45.0922 10.8474 44.9393 10.8554 44.7235 10.8554H43.4553V9.27027H44.6335C44.9573 9.27027 45.2046 9.2949 45.3755 9.34779C45.5463 9.40073 45.6813 9.4904 45.7802 9.61675C45.8746 9.743 45.9241 9.89382 45.9241 10.065C45.9241 10.2118 45.8927 10.3379 45.8252 10.452Z" fill="#2A7CCE"/>
<path d="M50.4882 10.99C50.4613 10.8515 50.4477 10.5173 50.4477 9.99173V9.23782C50.4477 8.98522 50.4388 8.81403 50.4163 8.71626C50.3803 8.55738 50.3174 8.43098 50.2229 8.32904C50.133 8.22727 49.9891 8.14164 49.7913 8.07644C49.5979 8.00724 49.3416 7.97445 49.0269 7.97445C48.7076 7.97445 48.4287 8.01529 48.1904 8.09281C47.9476 8.17433 47.7632 8.28442 47.6373 8.43098C47.5114 8.57775 47.417 8.76936 47.363 9.00537L47.9746 9.08311C48.042 8.84261 48.1454 8.67969 48.2849 8.58585C48.4243 8.49213 48.6446 8.44734 48.9369 8.44734C49.2517 8.44734 49.4899 8.5126 49.6474 8.63895C49.7643 8.73668 49.8228 8.89555 49.8228 9.12778C49.8228 9.14815 49.8228 9.19704 49.8183 9.27456C49.5799 9.35191 49.2067 9.41733 48.703 9.46995C48.4557 9.49863 48.2714 9.52715 48.15 9.55562C47.9836 9.6004 47.8352 9.66161 47.7002 9.74302C47.5653 9.82453 47.4575 9.93463 47.3765 10.0691C47.2956 10.2035 47.2551 10.3543 47.2551 10.5173C47.2551 10.7985 47.3675 11.0267 47.5833 11.2058C47.8036 11.3852 48.1139 11.4749 48.5188 11.4749C48.7616 11.4749 48.9909 11.4382 49.2067 11.3649C49.4226 11.2916 49.6474 11.1652 49.8767 10.9859C49.8947 11.1449 49.9351 11.2833 49.9936 11.3893H50.6457C50.5692 11.2631 50.5152 11.1285 50.4882 10.99ZM49.8228 9.93058C49.8228 10.1791 49.7913 10.3705 49.7238 10.4971C49.6339 10.6641 49.499 10.7943 49.3102 10.8882C49.1213 10.9819 48.9055 11.0307 48.6671 11.0307C48.4243 11.0307 48.2399 10.9819 48.1139 10.88C47.9881 10.7781 47.9251 10.6518 47.9251 10.501C47.9251 10.4032 47.9521 10.3135 48.0105 10.2322C48.069 10.1506 48.15 10.0894 48.2578 10.0486C48.3659 10.004 48.5458 9.96709 48.8021 9.93463C49.2562 9.87764 49.5979 9.80844 49.8228 9.72254V9.93058Z" fill="#2A7CCE"/>
<path d="M53.7215 8.85075C53.771 8.96484 53.7934 9.13581 53.7934 9.3681V11.3975H54.4185V9.34778C54.4185 9.08698 54.405 8.90358 54.3825 8.79781C54.3465 8.63472 54.2836 8.49621 54.1891 8.37802C54.0947 8.25982 53.9553 8.16626 53.771 8.09279C53.5865 8.01948 53.3797 7.98297 53.1593 7.98297C52.6468 7.98297 52.2555 8.16626 51.9857 8.53294V8.06032H51.4236V11.3975H52.0531V9.57597C52.0531 9.14813 52.1476 8.85879 52.341 8.70392C52.5343 8.55326 52.7636 8.47585 53.029 8.47585C53.1954 8.47585 53.3392 8.50847 53.4652 8.57773C53.5865 8.64704 53.672 8.73665 53.7215 8.85075Z" fill="#2A7CCE"/>
<path d="M58.4296 11.3975L56.8827 9.29895L58.2901 8.06033H57.4807L56.0014 9.41731V6.78891H55.3763V11.3975H56.0014V10.0733L56.442 9.69022L57.6607 11.3975H58.4296Z" fill="#2A7CCE"/>
<path d="M42.4302 14.6735H44.1073V18.7401H44.7774V14.6735H46.4592V14.1316H42.4302V14.6735Z" fill="#2A7CCE"/>
<path d="M47.7588 15.4395C47.6374 15.5171 47.507 15.6717 47.3631 15.9082V15.403H46.801V18.7401H47.4215V16.992C47.4215 16.7516 47.4575 16.5316 47.5249 16.332C47.5745 16.2015 47.6508 16.0956 47.7588 16.0225C47.8668 15.9489 47.9926 15.9122 48.1275 15.9122C48.2804 15.9122 48.4333 15.953 48.5862 16.0344L48.8021 15.5087C48.5817 15.3864 48.3704 15.3257 48.159 15.3257C48.0151 15.3257 47.8802 15.3622 47.7588 15.4395Z" fill="#2A7CCE"/>
<path d="M52.188 18.3326C52.161 18.1941 52.1474 17.8602 52.1474 17.3344V16.5805C52.1474 16.3279 52.1385 16.1567 52.116 16.059C52.08 15.9001 52.017 15.7737 51.9227 15.6717C51.8327 15.57 51.6888 15.4845 51.491 15.4192C51.2976 15.3499 51.0414 15.3174 50.7266 15.3174C50.4073 15.3174 50.1284 15.358 49.8901 15.4355C49.6473 15.5171 49.463 15.6271 49.337 15.7737C49.2111 15.9205 49.1166 16.112 49.0628 16.3483L49.6743 16.4259C49.7417 16.1852 49.8451 16.0225 49.9846 15.9285C50.124 15.8349 50.3443 15.79 50.6365 15.79C50.9513 15.79 51.1897 15.8553 51.3471 15.9816C51.464 16.0794 51.5224 16.2382 51.5224 16.4705C51.5224 16.4908 51.5224 16.5397 51.518 16.6172C51.2796 16.6946 50.9064 16.7598 50.4027 16.8127C50.1554 16.8413 49.9711 16.8698 49.8497 16.8983C49.6833 16.9431 49.5349 17.0043 49.4 17.0857C49.2651 17.1673 49.1572 17.2773 49.0763 17.4118C48.9953 17.5464 48.9548 17.697 48.9548 17.8602C48.9548 18.1412 49.0673 18.3694 49.2831 18.5485C49.5034 18.728 49.8137 18.8176 50.2184 18.8176C50.4613 18.8176 50.6906 18.7809 50.9064 18.7075C51.1223 18.6343 51.3471 18.5079 51.5764 18.3286C51.599 18.4835 51.6393 18.622 51.6934 18.732H52.3454C52.2689 18.6058 52.2149 18.4712 52.188 18.3326ZM51.5269 17.2692C51.5269 17.5176 51.4956 17.7092 51.428 17.8355C51.3381 18.0025 51.2032 18.1332 51.0143 18.2266C50.8254 18.3205 50.6095 18.3694 50.3713 18.3694C50.1284 18.3694 49.9441 18.3205 49.8183 18.2186C49.6923 18.1166 49.6293 17.9904 49.6293 17.8398C49.6293 17.7419 49.6563 17.6522 49.7148 17.5707C49.7732 17.4891 49.8541 17.4281 49.9621 17.3873C50.0699 17.3425 50.2498 17.3058 50.5061 17.2733C50.9603 17.2162 51.3021 17.1469 51.5269 17.0614V17.2692Z" fill="#2A7CCE"/>
<path d="M55.8933 15.7207C55.7988 15.6025 55.6595 15.5087 55.4751 15.4355C55.2907 15.3622 55.0838 15.3257 54.8636 15.3257C54.3509 15.3257 53.9597 15.5087 53.6899 15.8757V15.403H53.1278V18.7441H53.7573V16.9228C53.7573 16.4951 53.8518 16.2056 54.0452 16.0509C54.2385 15.9001 54.4678 15.8226 54.7331 15.8226C54.8995 15.8226 55.0434 15.8553 55.1693 15.9245C55.2907 15.9938 55.3762 16.0835 55.4256 16.1975C55.4751 16.3116 55.4976 16.4828 55.4976 16.715V18.7441H56.1226V16.6905C56.1226 16.4297 56.1091 16.2464 56.0866 16.1405C56.0506 15.9774 55.9877 15.8389 55.8933 15.7207Z" fill="#2A7CCE"/>
<path d="M59.3243 16.9759C59.1489 16.9106 58.8387 16.8208 58.398 16.715C58.0922 16.6417 57.9079 16.5928 57.8449 16.5725C57.737 16.5316 57.656 16.4828 57.6066 16.4216C57.5572 16.3605 57.5301 16.2952 57.5301 16.222C57.5301 16.1079 57.5931 16.0059 57.7145 15.9205C57.8404 15.8349 58.0429 15.79 58.3305 15.79C58.5733 15.79 58.7578 15.8349 58.8928 15.9326C59.0276 16.0305 59.1085 16.1648 59.1355 16.3361L59.747 16.2587C59.7065 16.0428 59.6346 15.8715 59.5312 15.741C59.4232 15.6148 59.2659 15.513 59.0455 15.4355C58.8297 15.358 58.5733 15.3214 58.2856 15.3214C58.0922 15.3214 57.9123 15.346 57.746 15.3907C57.5796 15.4395 57.4492 15.4926 57.3503 15.5579C57.2199 15.6433 57.121 15.7494 57.0445 15.8757C56.968 16.002 56.9321 16.1364 56.9321 16.2872C56.9321 16.4501 56.9771 16.6009 57.067 16.7354C57.1569 16.8698 57.2918 16.9759 57.4671 17.0532C57.647 17.1306 57.9618 17.2203 58.4205 17.3261C58.7622 17.4037 58.9736 17.4688 59.0591 17.5176C59.1805 17.5911 59.2434 17.693 59.2434 17.8194C59.2434 17.9617 59.176 18.0842 59.0365 18.1901C58.8971 18.2959 58.6858 18.349 58.398 18.349C58.1102 18.349 57.8899 18.2879 57.7325 18.1697C57.5751 18.0474 57.4807 17.8763 57.4447 17.6522L56.8286 17.7419C56.896 18.0963 57.058 18.3652 57.3053 18.5485C57.5526 18.728 57.9213 18.8176 58.398 18.8176C58.6858 18.8176 58.9466 18.7688 59.176 18.6789C59.4052 18.5894 59.5806 18.4591 59.7021 18.292C59.819 18.1248 59.882 17.9456 59.882 17.7583C59.882 17.5625 59.8325 17.4037 59.7335 17.2733C59.6346 17.143 59.4997 17.0451 59.3243 16.9759Z" fill="#2A7CCE"/>
<path d="M61.5277 14.6735C61.6042 14.6002 61.739 14.5635 61.9279 14.5635C62.0448 14.5635 62.1663 14.5758 62.2966 14.5962L62.391 14.1031C62.1752 14.0663 61.9819 14.046 61.8065 14.046C61.5322 14.046 61.3209 14.0949 61.168 14.1847C61.0151 14.2781 60.9071 14.3965 60.8487 14.5431C60.8037 14.653 60.7812 14.8202 60.7812 15.0442V15.3987H60.2281V15.8389H60.7767V18.7361H61.4108V15.8389H62.1302V15.3949H61.4108V15.085C61.4108 14.8855 61.4513 14.747 61.5277 14.6735Z" fill="#2A7CCE"/>
<path d="M65.7818 17.0614C65.7818 16.5113 65.6243 16.0835 65.3141 15.7779C65.0038 15.4722 64.6035 15.3214 64.109 15.3214C63.6008 15.3214 63.1871 15.4763 62.8679 15.786C62.5486 16.0956 62.3912 16.5316 62.3912 17.0939C62.3912 17.6399 62.5486 18.0597 62.8633 18.3612C63.1781 18.6628 63.6053 18.8134 64.1449 18.8134C64.5766 18.8134 64.9273 18.7197 65.2016 18.5323C65.4759 18.345 65.6649 18.0801 65.7683 17.7378L65.1252 17.6644C65.0308 17.9006 64.9004 18.076 64.725 18.1859C64.5631 18.2959 64.3697 18.349 64.1404 18.349C63.8346 18.349 63.5783 18.2512 63.3715 18.0556C63.1691 17.8602 63.0521 17.5787 63.0297 17.2123H65.7772C65.7818 17.1469 65.7818 17.0939 65.7818 17.0614ZM63.0747 16.7477C63.0972 16.4582 63.205 16.2259 63.3985 16.0509C63.5963 15.8757 63.8346 15.79 64.1224 15.79C64.4372 15.79 64.698 15.9001 64.8959 16.1159C65.0218 16.2546 65.1026 16.4664 65.1297 16.7477H63.0747Z" fill="#2A7CCE"/>
<path d="M67.5038 15.4395C67.3825 15.5171 67.252 15.6717 67.1081 15.9082V15.403H66.5461V18.7401H67.1666V16.992C67.1666 16.7516 67.2026 16.5316 67.2701 16.332C67.3195 16.2015 67.3961 16.0956 67.5038 16.0225C67.6118 15.9489 67.7378 15.9122 67.8727 15.9122C68.0255 15.9122 68.1784 15.953 68.3313 16.0344L68.5471 15.5087C68.3268 15.3864 68.1154 15.3257 67.9042 15.3257C67.7601 15.3257 67.6253 15.3622 67.5038 15.4395Z" fill="#2A7CCE"/>
</svg>
