<svg width="88" height="24" viewBox="0 0 88 24" fill="none" xmlns="http://www.w3.org/2000/svg">
<path d="M26.3395 13.6148C25.5028 16.9706 22.1039 19.0129 18.7477 18.1761C15.3929 17.3394 13.3506 13.9403 14.1876 10.5847C15.0239 7.22851 18.4228 5.186 21.778 6.02266C25.134 6.85931 27.1761 10.2588 26.3395 13.6148V13.6148Z" fill="#F7931A"/>
<path d="M23.0253 11.2071C23.15 10.3736 22.5153 9.9255 21.6475 9.62658L21.929 8.49747L21.2417 8.32619L20.9677 9.42554C20.787 9.38052 20.6014 9.33804 20.417 9.29596L20.693 8.18935L20.0061 8.01807L19.7245 9.14679C19.5749 9.11272 19.4281 9.07906 19.2856 9.04363L19.2864 9.0401L18.3385 8.80343L18.1557 9.53751C18.1557 9.53751 18.6656 9.65438 18.6549 9.66162C18.9332 9.73111 18.9835 9.91532 18.9751 10.0614L18.6545 11.3477C18.6736 11.3526 18.6985 11.3596 18.7259 11.3706C18.703 11.3649 18.6785 11.3586 18.6533 11.3525L18.2038 13.1545C18.1698 13.239 18.0834 13.3659 17.8889 13.3177C17.8957 13.3277 17.3893 13.193 17.3893 13.193L17.0481 13.9798L17.9425 14.2027C18.1089 14.2444 18.272 14.2881 18.4325 14.3292L18.148 15.4712L18.8346 15.6425L19.1162 14.5126C19.3038 14.5635 19.4858 14.6105 19.664 14.6547L19.3833 15.7793L20.0705 15.9506L20.355 14.8108C21.527 15.0325 22.4082 14.9431 22.7792 13.8831C23.0781 13.0296 22.7643 12.5373 22.1477 12.2162C22.5968 12.1127 22.935 11.8173 23.0253 11.2071V11.2071ZM21.4549 13.4091C21.2425 14.2626 19.8055 13.8012 19.3396 13.6856L19.717 12.1726C20.1829 12.2888 21.6769 12.5191 21.4549 13.4091ZM21.6675 11.1948C21.4737 11.9711 20.2777 11.5767 19.8897 11.48L20.2318 10.1077C20.6198 10.2045 21.8693 10.3849 21.6675 11.1948Z" fill="white"/>
<path d="M32.3569 9.6254C32.8649 9.6254 33.3037 9.71642 33.6725 9.89515C34.0431 10.0756 34.3489 10.3188 34.5942 10.6245C34.8361 10.9319 35.0162 11.2911 35.1325 11.7027C35.248 12.1156 35.3059 12.5594 35.3059 13.0345C35.3059 13.7642 35.1722 14.4537 34.9023 15.1036C34.6323 15.7545 34.2661 16.319 33.8002 16.8006C33.3347 17.2816 32.785 17.6607 32.1511 17.9409C31.5183 18.2212 30.8302 18.3613 30.0914 18.3613C29.9959 18.3613 29.8279 18.3586 29.5907 18.3537C29.3534 18.3488 29.0807 18.3243 28.7754 18.283C28.468 18.2402 28.1431 18.1767 27.7999 18.0918C27.4569 18.0084 27.1312 17.8915 26.8245 17.7431L29.5674 6.2179L32.0241 5.83716L31.042 9.92706C31.2522 9.83231 31.464 9.7589 31.6755 9.70546C31.8871 9.6528 32.1141 9.6254 32.3569 9.6254ZM30.2962 16.4124C30.6661 16.4124 31.0148 16.3214 31.3423 16.1427C31.6708 15.9637 31.9542 15.7222 32.1917 15.4213C32.4291 15.1191 32.617 14.7786 32.7541 14.3983C32.8911 14.0179 32.9604 13.6211 32.9604 13.2083C32.9604 12.7011 32.8756 12.3055 32.7067 12.0195C32.5378 11.7347 32.2251 11.5914 31.7712 11.5914C31.6224 11.5914 31.4308 11.6197 31.1931 11.6704C30.9547 11.7243 30.7413 11.8361 30.5501 12.0042L29.5043 16.3476C29.5674 16.3588 29.6232 16.3693 29.6707 16.3793C29.7173 16.3901 29.7688 16.3977 29.8201 16.403C29.8743 16.4091 29.9364 16.4122 30.0113 16.4122C30.0863 16.4122 30.1801 16.4124 30.2962 16.4124Z" fill="white"/>
<path d="M37.8536 18.1407H35.5071L37.4888 9.80216H39.8513L37.8536 18.1407ZM38.9955 8.78619C38.668 8.78619 38.371 8.68871 38.1075 8.49334C37.8419 8.29916 37.7103 8.00024 37.7103 7.59738C37.7103 7.37578 37.7554 7.16789 37.8446 6.97174C37.9353 6.77599 38.0537 6.60745 38.2021 6.46415C38.3503 6.32203 38.5219 6.2085 38.7169 6.12295C38.9131 6.03878 39.1217 5.99669 39.3441 5.99669C39.6714 5.99669 39.9668 6.09418 40.2313 6.28954C40.4948 6.48588 40.6273 6.7848 40.6273 7.18551C40.6273 7.40788 40.5825 7.61656 40.4924 7.81231C40.4029 8.00807 40.2845 8.17661 40.1361 8.3199C39.9891 8.46222 39.8159 8.57536 39.6213 8.66012C39.425 8.74567 39.2171 8.78619 38.9955 8.78619Z" fill="white"/>
<path d="M41.9078 7.72461L44.3655 7.34386L43.762 9.80176H46.3941L45.9188 11.7354H43.3026L42.6057 14.6522C42.5415 14.8953 42.5051 15.1224 42.4949 15.3334C42.4833 15.5454 42.5101 15.7274 42.5736 15.8807C42.6366 16.0344 42.7499 16.1528 42.9144 16.2366C43.078 16.3218 43.3123 16.3646 43.6197 16.3646C43.8728 16.3646 44.1194 16.3405 44.3579 16.2928C44.5949 16.2458 44.8351 16.1804 45.0782 16.0949L45.2533 17.9029C44.9361 18.0191 44.5928 18.1192 44.2228 18.2033C43.8522 18.2887 43.4136 18.3298 42.9065 18.3298C42.1776 18.3298 41.6124 18.2216 41.2097 18.006C40.8077 17.7889 40.5234 17.4924 40.3533 17.1169C40.1856 16.7428 40.1106 16.3116 40.1315 15.8257C40.1533 15.3387 40.2267 14.8268 40.3533 14.2877L41.9078 7.72461Z" fill="white"/>
<path d="M46.2907 14.8109C46.2907 14.0927 46.407 13.4154 46.6394 12.7814C46.8713 12.1467 47.2055 11.5918 47.6391 11.1155C48.0711 10.6416 48.5975 10.2661 49.2171 9.99049C49.8337 9.71643 50.5241 9.57823 51.285 9.57823C51.7613 9.57823 52.1867 9.62325 52.5609 9.7135C52.9368 9.80452 53.2768 9.92217 53.5843 10.0698L52.7751 11.9099C52.5637 11.8241 52.3442 11.7486 52.1174 11.68C51.8903 11.6102 51.6131 11.5765 51.2852 11.5765C50.502 11.5765 49.8828 11.8464 49.422 12.3846C48.963 12.9231 48.7318 13.648 48.7318 14.5572C48.7318 15.0962 48.8481 15.5319 49.0814 15.8653C49.3136 16.1986 49.7425 16.3644 50.3652 16.3644C50.6725 16.3644 50.9691 16.3324 51.2531 16.2697C51.5393 16.2063 51.792 16.1264 52.0146 16.0321L52.1898 17.9184C51.893 18.0335 51.5657 18.1374 51.2067 18.2284C50.8469 18.3163 50.4186 18.3619 49.922 18.3619C49.2664 18.3619 48.7114 18.266 48.2575 18.0771C47.8033 17.8853 47.4281 17.6306 47.1325 17.308C46.8353 16.9846 46.6219 16.607 46.49 16.1736C46.3581 15.7406 46.2907 15.2856 46.2907 14.8109Z" fill="white"/>
<path d="M56.7147 18.3619C56.1546 18.3619 55.6681 18.2766 55.2555 18.1076C54.844 17.9387 54.5032 17.7017 54.2337 17.3943C53.9637 17.0885 53.7617 16.7262 53.6233 16.3087C53.4849 15.8913 53.4183 15.4291 53.4183 14.9227C53.4183 14.2875 53.5203 13.6525 53.7265 13.0192C53.9316 12.3846 54.236 11.8143 54.6389 11.3075C55.0386 10.7999 55.5317 10.3849 56.1123 10.0613C56.6923 9.73992 57.3595 9.57823 58.1088 9.57823C58.6587 9.57823 59.1426 9.66377 59.5609 9.83271C59.9773 10.0013 60.3203 10.2403 60.5914 10.546C60.8596 10.8534 61.0633 11.2142 61.2004 11.6323C61.3384 12.0488 61.4065 12.5122 61.4065 13.019C61.4065 13.6523 61.3059 14.2873 61.1062 14.9225C60.9064 15.5546 60.6098 16.1262 60.2183 16.6342C59.8275 17.141 59.3389 17.5558 58.7521 17.878C58.166 18.2002 57.4863 18.3619 56.7147 18.3619ZM57.8874 11.5767C57.5396 11.5767 57.232 11.6777 56.9687 11.8772C56.7045 12.079 56.4825 12.3327 56.3036 12.6387C56.1227 12.946 55.9886 13.2811 55.898 13.6454C55.8081 14.0105 55.7641 14.3556 55.7641 14.6835C55.7641 15.2126 55.8494 15.6247 56.0172 15.9213C56.1873 16.2163 56.4929 16.3646 56.937 16.3646C57.2861 16.3646 57.592 16.2644 57.8569 16.0628C58.1196 15.8625 58.3418 15.6086 58.5221 15.3021C58.7018 14.9963 58.837 14.6602 58.9277 14.2953C59.0163 13.9314 59.0616 13.5843 59.0616 13.257C59.0616 12.7293 58.9766 12.3162 58.8073 12.0201C58.6381 11.7251 58.3312 11.5767 57.8874 11.5767Z" fill="white"/>
<path d="M63.9634 18.1407H61.6149L63.5966 9.80216H65.9603L63.9634 18.1407ZM65.1035 8.78619C64.7762 8.78619 64.4794 8.68871 64.2163 8.49334C63.952 8.29916 63.8193 8.00024 63.8193 7.59738C63.8193 7.37578 63.8649 7.16789 63.9544 6.97174C64.0439 6.77599 64.1631 6.60745 64.3114 6.46415C64.4588 6.32203 64.6321 6.2085 64.8267 6.12295C65.0216 6.03878 65.2303 5.99669 65.4519 5.99669C65.78 5.99669 66.0764 6.09418 66.3402 6.28954C66.6043 6.48588 66.7376 6.7848 66.7376 7.18551C66.7376 7.40788 66.6903 7.61656 66.6016 7.81231C66.5129 8.00807 66.3937 8.17661 66.2459 8.3199C66.0971 8.46222 65.926 8.57536 65.7311 8.66012C65.5345 8.74567 65.3262 8.78619 65.1035 8.78619Z" fill="white"/>
<path d="M67.6514 10.1813C67.8296 10.1293 68.0284 10.0666 68.2448 9.99851C68.4619 9.93039 68.7044 9.86697 68.9753 9.8098C69.2433 9.75088 69.5458 9.70312 69.8783 9.66612C70.2109 9.62834 70.5899 9.60993 71.011 9.60993C72.2485 9.60993 73.1016 9.97032 73.5726 10.6889C74.0432 11.4076 74.1246 12.391 73.8193 13.6376L72.7399 18.1399H70.3779L71.424 13.7323C71.4878 13.4571 71.5379 13.1911 71.5749 12.9311C71.6123 12.6735 71.6102 12.4464 71.5665 12.2499C71.5248 12.0557 71.4265 11.8967 71.2741 11.7736C71.1192 11.6524 70.8853 11.5916 70.568 11.5916C70.262 11.5916 69.9508 11.6244 69.633 11.6879L68.095 18.1397H65.7321L67.6514 10.1813Z" fill="white"/>
</svg>
