<svg width="88" height="24" viewBox="0 0 88 24" fill="none" xmlns="http://www.w3.org/2000/svg">
<path d="M62.5491 2H25.4505C24.8012 2.00041 24.1784 2.25842 23.719 2.71743C23.2595 3.17644 23.001 3.79895 23 4.44836V19.425C23.0011 20.0743 23.2597 20.6967 23.7191 21.1557C24.1785 21.6147 24.8012 21.8726 25.4505 21.873H62.5491C63.1986 21.8726 63.8213 21.6147 64.2807 21.1557C64.7402 20.6968 64.9989 20.0744 65 19.425V4.44836C64.9989 3.79892 64.7403 3.17641 64.2809 2.71741C63.8214 2.25842 63.1986 2.00041 62.5491 2Z" fill="white"/>
<path d="M62.5493 2.2561H25.4507C25.1627 2.25594 24.8775 2.3125 24.6113 2.42257C24.3451 2.53264 24.1033 2.69406 23.8995 2.89761C23.6958 3.10114 23.5341 3.34283 23.4237 3.60887C23.3133 3.87489 23.2564 4.16006 23.2562 4.44808V19.425C23.2564 19.713 23.3133 19.9982 23.4237 20.2642C23.5341 20.5302 23.6958 20.7718 23.8995 20.9754C24.1033 21.1789 24.3452 21.3403 24.6113 21.4503C24.8775 21.5603 25.1627 21.6169 25.4507 21.6167H62.5493C62.8373 21.6168 63.1225 21.5602 63.3886 21.4502C63.6547 21.3402 63.8966 21.1788 64.1003 20.9753C64.304 20.7718 64.4657 20.5301 64.576 20.2641C64.6864 19.9981 64.7433 19.713 64.7434 19.425V4.44808C64.7431 3.86646 64.5118 3.30878 64.1003 2.89771C63.6888 2.48664 63.1309 2.25585 62.5493 2.2561Z" fill="url(#paint0_linear_27741_6609)"/>
<path d="M39.0299 6.62308C39.0377 5.41097 38.0615 4.42198 36.8494 4.41411C35.6373 4.40624 34.6483 5.38247 34.6404 6.59458C34.6325 7.80669 35.6088 8.79571 36.8209 8.80353C38.033 8.81141 39.022 7.83518 39.0299 6.62308Z" fill="url(#paint1_linear_27741_6609)"/>
<path d="M43.2089 5.1178H40.7556V19.0382H43.2089V5.1178Z" fill="white"/>
<path d="M47.8394 9.92065H45.3861V19.0382H47.8394V9.92065Z" fill="white"/>
<path fill-rule="evenodd" clip-rule="evenodd" d="M34.3773 9.82961C33.6092 9.82855 32.8528 10.0183 32.1762 10.382V5.11804H29.7227V14.4823C29.7224 15.4028 29.9951 16.3027 30.5063 17.0682C31.0175 17.8337 31.7443 18.4304 32.5946 18.7829C33.4449 19.1353 34.3807 19.2277 35.2835 19.0483C36.1864 18.8689 37.0158 18.4258 37.6668 17.7751C38.3178 17.1243 38.7612 16.2951 38.941 15.3923C39.1207 14.4896 39.0287 13.5537 38.6766 12.7033C38.3245 11.8528 37.728 11.1259 36.9628 10.6143C36.1975 10.1028 35.2977 9.82974 34.3773 9.82961ZM34.3773 16.7223C33.9343 16.7223 33.5012 16.5909 33.1329 16.3448C32.7647 16.0988 32.4776 15.7491 32.3081 15.3398C32.1386 14.9306 32.0942 14.4803 32.1806 14.0458C32.2669 13.6114 32.4802 13.2123 32.7934 12.8991C33.1066 12.5859 33.5057 12.3725 33.9401 12.286C34.3745 12.1996 34.8249 12.2439 35.2341 12.4134C35.6434 12.5828 35.9931 12.8698 36.2393 13.2381C36.4854 13.6064 36.6168 14.0394 36.6169 14.4823C36.617 14.7765 36.5592 15.0678 36.4466 15.3396C36.3341 15.6114 36.1692 15.8584 35.9612 16.0664C35.7532 16.2744 35.5062 16.4394 35.2344 16.5519C34.9627 16.6645 34.6714 16.7224 34.3773 16.7223Z" fill="white"/>
<path d="M59.0702 19.0388H55.91L52.4671 14.1731L52.4689 19.0388H50.015V5.11963H52.4689V14.1613L55.8499 9.9213H58.7164L55.2734 14.135L59.0702 19.0388Z" fill="white"/>
<defs>
<linearGradient id="paint0_linear_27741_6609" x1="43.9998" y1="21.4812" x2="43.9998" y2="2.33354" gradientUnits="userSpaceOnUse">
<stop stop-color="#5A5A5A"/>
<stop offset="0.146" stop-color="#484848"/>
<stop offset="0.52" stop-color="#212121"/>
<stop offset="0.817" stop-color="#080808"/>
<stop offset="1"/>
</linearGradient>
<linearGradient id="paint1_linear_27741_6609" x1="35.2713" y1="8.14818" x2="38.3991" y2="5.06506" gradientUnits="userSpaceOnUse">
<stop stop-color="#E52F08"/>
<stop offset="1" stop-color="#E94F96"/>
</linearGradient>
</defs>
</svg>
