<svg width="88" height="25" viewBox="0 0 88 25" fill="none" xmlns="http://www.w3.org/2000/svg">
<path d="M35.5527 6H37.084L40.1213 13.129L43.0833 6H44.6146V16.9445H43.008V10.1167H42.9578L40.6233 15.84H39.6193L37.1844 10.1167H37.1593V16.9445H35.5527V6Z" fill="#2399D2"/>
<path d="M48.4055 9.1377H46.8994V16.9193H48.4055V9.1377Z" fill="#2399D2"/>
<path d="M50.6396 6H56.639V7.55632H52.2463V10.7945H56.639V12.2504H52.2463V16.9445H50.6396V6Z" fill="#2399D2"/>
<path d="M59.7263 9.1377H58.2202V16.9193H59.7263V9.1377Z" fill="#2399D2"/>
<path d="M61.8098 9.13776H63.3159V9.96613H63.341C63.843 9.33858 64.4957 9.03735 65.2989 9.03735C65.9265 9.03735 66.5038 9.26327 67.0059 9.71511C67.5079 10.1669 67.784 10.8447 67.8091 11.7484V16.9194H66.303V12.3006C66.303 11.7484 66.1524 11.3467 65.8763 11.0455C65.6002 10.7443 65.2487 10.6188 64.7969 10.6188C64.3702 10.6188 63.9936 10.7694 63.7175 11.0455C63.4414 11.3216 63.2908 11.7484 63.2908 12.3006V16.9445H61.7847L61.8098 9.13776Z" fill="#2399D2"/>
<path d="M71.3235 9.1377H69.8174V16.9193H71.3235V9.1377Z" fill="#2399D2"/>
<path d="M73.5826 6.02515H75.0888V9.13779H76.1932V10.3427H75.0888V14.8861C75.0888 15.2878 75.2645 15.4635 75.6159 15.4635H76.1932V16.9445H75.4151C74.8879 16.9445 74.4361 16.7688 74.1098 16.4425C73.7584 16.1161 73.5826 15.6392 73.5826 15.0368V10.3427H72.8296V9.13779H73.5826V6.02515Z" fill="#2399D2"/>
<path d="M77.1973 9.1377H78.8038L80.586 14.5848H80.6111L82.3934 9.1377H83.9999L80.7618 18.5509C80.5609 19.1282 80.2597 19.5299 79.9083 19.7558C79.5318 19.9817 79.105 20.0821 78.6532 20.0821H78.1511V18.6011H78.603C78.8038 18.6011 78.9795 18.5509 79.1552 18.4254C79.3309 18.2999 79.4313 18.1493 79.5067 17.9233L79.9083 16.618L77.1973 9.1377Z" fill="#2399D2"/>
<path d="M47.6524 7.85755C48.1654 7.85755 48.5812 7.44172 48.5812 6.92877C48.5812 6.41583 48.1654 6 47.6524 6C47.1395 6 46.7236 6.41583 46.7236 6.92877C46.7236 7.44172 47.1395 7.85755 47.6524 7.85755Z" fill="#2399D2"/>
<path d="M58.9737 7.85755C59.4866 7.85755 59.9024 7.44172 59.9024 6.92877C59.9024 6.41583 59.4866 6 58.9737 6C58.4607 6 58.0449 6.41583 58.0449 6.92877C58.0449 7.44172 58.4607 7.85755 58.9737 7.85755Z" fill="#2399D2"/>
<path d="M70.5704 7.85755C71.0833 7.85755 71.4991 7.44172 71.4991 6.92877C71.4991 6.41583 71.0833 6 70.5704 6C70.0574 6 69.6416 6.41583 69.6416 6.92877C69.6416 7.44172 70.0574 7.85755 70.5704 7.85755Z" fill="#2399D2"/>
<path d="M15.4968 10.0413C15.7463 10.0413 15.9486 9.83907 15.9486 9.58953C15.9486 9.33999 15.7463 9.1377 15.4968 9.1377C15.2472 9.1377 15.0449 9.33999 15.0449 9.58953C15.0449 9.83907 15.2472 10.0413 15.4968 10.0413Z" fill="#2399D2"/>
<path d="M14.3673 9.13787C14.6445 9.13787 14.8693 8.9131 14.8693 8.63583C14.8693 8.35856 14.6445 8.13379 14.3673 8.13379C14.09 8.13379 13.8652 8.35856 13.8652 8.63583C13.8652 8.9131 14.09 9.13787 14.3673 9.13787Z" fill="#2399D2"/>
<path d="M13.0618 8.30941C13.3529 8.30941 13.589 8.0734 13.589 7.78227C13.589 7.49114 13.3529 7.25513 13.0618 7.25513C12.7707 7.25513 12.5347 7.49114 12.5347 7.78227C12.5347 8.0734 12.7707 8.30941 13.0618 8.30941Z" fill="#2399D2"/>
<path d="M11.5306 7.73202C11.8217 7.73202 12.0577 7.49601 12.0577 7.20488C12.0577 6.91374 11.8217 6.67773 11.5306 6.67773C11.2394 6.67773 11.0034 6.91374 11.0034 7.20488C11.0034 7.49601 11.2394 7.73202 11.5306 7.73202Z" fill="#2399D2"/>
<path d="M9.84874 7.65671C10.1953 7.65671 10.4763 7.37575 10.4763 7.02916C10.4763 6.68257 10.1953 6.40161 9.84874 6.40161C9.50215 6.40161 9.22119 6.68257 9.22119 7.02916C9.22119 7.37575 9.50215 7.65671 9.84874 7.65671Z" fill="#2399D2"/>
<path d="M8.01633 8.10859C8.40451 8.10859 8.71919 7.79391 8.71919 7.40574C8.71919 7.01756 8.40451 6.70288 8.01633 6.70288C7.62816 6.70288 7.31348 7.01756 7.31348 7.40574C7.31348 7.79391 7.62816 8.10859 8.01633 8.10859Z" fill="#2399D2"/>
<path d="M6.25912 9.41375C6.68888 9.41375 7.03728 9.06535 7.03728 8.63558C7.03728 8.20582 6.68888 7.85742 6.25912 7.85742C5.82935 7.85742 5.48096 8.20582 5.48096 8.63558C5.48096 9.06535 5.82935 9.41375 6.25912 9.41375Z" fill="#2399D2"/>
<path d="M5.00415 11.2212C5.46164 11.2212 5.83251 10.8503 5.83251 10.3928C5.83251 9.93533 5.46164 9.56445 5.00415 9.56445C4.54665 9.56445 4.17578 9.93533 4.17578 10.3928C4.17578 10.8503 4.54665 11.2212 5.00415 11.2212Z" fill="#2399D2"/>
<path d="M4.90367 13.8067C5.40275 13.8067 5.80734 13.4021 5.80734 12.903C5.80734 12.4039 5.40275 11.9993 4.90367 11.9993C4.40459 11.9993 4 12.4039 4 12.903C4 13.4021 4.40459 13.8067 4.90367 13.8067Z" fill="#2399D2"/>
<path d="M6.33436 16.1412C6.90276 16.1412 7.36354 15.6804 7.36354 15.112C7.36354 14.5436 6.90276 14.0828 6.33436 14.0828C5.76596 14.0828 5.30518 14.5436 5.30518 15.112C5.30518 15.6804 5.76596 16.1412 6.33436 16.1412Z" fill="#2399D2"/>
<path d="M17.3041 12.6269C17.8031 12.6269 18.2077 12.2223 18.2077 11.7233C18.2077 11.2242 17.8031 10.8196 17.3041 10.8196C16.805 10.8196 16.4004 11.2242 16.4004 11.7233C16.4004 12.2223 16.805 12.6269 17.3041 12.6269Z" fill="#2399D2"/>
<path d="M19.262 10.669C19.7888 10.669 20.2159 10.2419 20.2159 9.71511C20.2159 9.18829 19.7888 8.76123 19.262 8.76123C18.7352 8.76123 18.3081 9.18829 18.3081 9.71511C18.3081 10.2419 18.7352 10.669 19.262 10.669Z" fill="#2399D2"/>
<path d="M15.0451 14.6603C15.5996 14.6603 16.0492 14.2108 16.0492 13.6562C16.0492 13.1017 15.5996 12.6521 15.0451 12.6521C14.4906 12.6521 14.041 13.1017 14.041 13.6562C14.041 14.2108 14.4906 14.6603 15.0451 14.6603Z" fill="#2399D2"/>
<path d="M12.4842 16.4424C13.1496 16.4424 13.6891 15.903 13.6891 15.2375C13.6891 14.5721 13.1496 14.0327 12.4842 14.0327C11.8187 14.0327 11.2793 14.5721 11.2793 15.2375C11.2793 15.903 11.8187 16.4424 12.4842 16.4424Z" fill="#2399D2"/>
<path d="M9.29662 17.3713C10.0591 17.3713 10.6772 16.7532 10.6772 15.9907C10.6772 15.2282 10.0591 14.6101 9.29662 14.6101C8.53413 14.6101 7.91602 15.2282 7.91602 15.9907C7.91602 16.7532 8.53413 17.3713 9.29662 17.3713Z" fill="#2399D2"/>
<path d="M21.8974 9.23809C22.5351 9.23809 23.0521 8.72112 23.0521 8.0834C23.0521 7.44568 22.5351 6.92871 21.8974 6.92871C21.2597 6.92871 20.7427 7.44568 20.7427 8.0834C20.7427 8.72112 21.2597 9.23809 21.8974 9.23809Z" fill="#2399D2"/>
<path d="M25.0857 8.5102C25.7788 8.5102 26.3408 7.94827 26.3408 7.2551C26.3408 6.56193 25.7788 6 25.0857 6C24.3925 6 23.8306 6.56193 23.8306 7.2551C23.8306 7.94827 24.3925 8.5102 25.0857 8.5102Z" fill="#2399D2"/>
<path d="M27.9218 9.188C28.4902 9.188 28.9509 8.72722 28.9509 8.15882C28.9509 7.59042 28.4902 7.12964 27.9218 7.12964C27.3534 7.12964 26.8926 7.59042 26.8926 8.15882C26.8926 8.72722 27.3534 9.188 27.9218 9.188Z" fill="#2399D2"/>
<path d="M29.3529 11.447C29.852 11.447 30.2566 11.0424 30.2566 10.5433C30.2566 10.0443 29.852 9.63965 29.3529 9.63965C28.8538 9.63965 28.4492 10.0443 28.4492 10.5433C28.4492 11.0424 28.8538 11.447 29.3529 11.447Z" fill="#2399D2"/>
<path d="M29.3026 13.8068C29.7323 13.8068 30.0807 13.4584 30.0807 13.0286C30.0807 12.5989 29.7323 12.2505 29.3026 12.2505C28.8728 12.2505 28.5244 12.5989 28.5244 13.0286C28.5244 13.4584 28.8728 13.8068 29.3026 13.8068Z" fill="#2399D2"/>
<path d="M27.9978 15.4885C28.3859 15.4885 28.7006 15.1739 28.7006 14.7857C28.7006 14.3975 28.3859 14.0828 27.9978 14.0828C27.6096 14.0828 27.2949 14.3975 27.2949 14.7857C27.2949 15.1739 27.6096 15.4885 27.9978 15.4885Z" fill="#2399D2"/>
<path d="M26.3406 16.6181C26.7287 16.6181 27.0434 16.3034 27.0434 15.9153C27.0434 15.5271 26.7287 15.2124 26.3406 15.2124C25.9524 15.2124 25.6377 15.5271 25.6377 15.9153C25.6377 16.3034 25.9524 16.6181 26.3406 16.6181Z" fill="#2399D2"/>
<path d="M24.483 16.9194C24.8296 16.9194 25.1106 16.6385 25.1106 16.2919C25.1106 15.9453 24.8296 15.6643 24.483 15.6643C24.1364 15.6643 23.8555 15.9453 23.8555 16.2919C23.8555 16.6385 24.1364 16.9194 24.483 16.9194Z" fill="#2399D2"/>
<path d="M22.7264 16.6934C23.0175 16.6934 23.2535 16.4574 23.2535 16.1663C23.2535 15.8752 23.0175 15.6392 22.7264 15.6392C22.4352 15.6392 22.1992 15.8752 22.1992 16.1663C22.1992 16.4574 22.4352 16.6934 22.7264 16.6934Z" fill="#2399D2"/>
<path d="M21.2701 16.0407C21.5474 16.0407 21.7721 15.8159 21.7721 15.5386C21.7721 15.2614 21.5474 15.0366 21.2701 15.0366C20.9928 15.0366 20.7681 15.2614 20.7681 15.5386C20.7681 15.8159 20.9928 16.0407 21.2701 16.0407Z" fill="#2399D2"/>
<path d="M19.9396 15.2376C20.1892 15.2376 20.3915 15.0353 20.3915 14.7858C20.3915 14.5363 20.1892 14.334 19.9396 14.334C19.6901 14.334 19.4878 14.5363 19.4878 14.7858C19.4878 15.0353 19.6901 15.2376 19.9396 15.2376Z" fill="#2399D2"/>
</svg>
