<svg width="88" height="24" viewBox="0 0 88 24" fill="none" xmlns="http://www.w3.org/2000/svg">
<path d="M15.2003 7.89655C14.651 7.36991 13.9644 7.15047 13.0947 7.15047C12.6828 7.15047 12.225 7.19436 11.8131 7.3699C11.7215 7.41379 11.5842 7.41379 11.4927 7.50156C10.9892 7.721 10.4857 8.11599 10.028 8.55486L10.1653 7.23825H8.56326C8.51749 7.63323 8.51749 7.98433 8.47171 8.33543C8.42594 8.73041 8.33439 9.08151 8.28862 9.43261L6 19H7.73935L8.79212 14.6113C9.11253 15.0502 9.52448 15.4012 9.93643 15.6207C10.3942 15.8401 10.8977 15.9718 11.5385 15.9718C11.63 15.9718 11.7215 15.9718 11.8131 15.9718C12.4539 15.9279 13.049 15.7523 13.5982 15.4451C14.239 15.094 14.7883 14.6113 15.2003 13.9091C15.5664 13.3824 15.8411 12.7241 15.9784 12.0219C16.1615 11.2759 16.253 10.6176 16.1615 9.95924C16.0699 9.12539 15.7953 8.37931 15.2003 7.89655ZM14.2848 11.7147C14.1017 12.3291 13.8729 12.8558 13.5982 13.3386C13.3236 13.8652 12.9574 14.2163 12.4997 14.4796C12.3166 14.5674 12.0877 14.6552 11.8589 14.7429C11.63 14.7868 11.3554 14.8307 11.0807 14.8307C10.5315 14.8307 10.1195 14.6552 9.79911 14.3918C9.4787 14.0846 9.24984 13.6896 9.24984 13.2069C9.20407 12.768 9.24984 12.2414 9.43293 11.5392C9.61602 10.8809 9.84488 10.2665 10.1195 9.7837C10.3942 9.25705 10.7603 8.86206 11.1723 8.59874C11.4011 8.46708 11.63 8.33542 11.8589 8.29154C12.042 8.24765 12.2708 8.20376 12.4997 8.20376C13.0489 8.20376 13.5067 8.37931 13.8729 8.73041C14.1933 9.08151 14.4221 9.52038 14.4679 10.0909C14.4679 10.5298 14.4221 11.1003 14.2848 11.7147Z" fill="#1545B3"/>
<path d="M57.3566 7.76489C56.8531 7.28213 56.1666 7.01881 55.2969 7.01881C54.7476 7.01881 54.1983 7.10658 53.7406 7.32601C53.6949 7.3699 53.6033 7.36991 53.5118 7.41379C53.0998 7.63323 52.7336 7.94044 52.3675 8.24765L52.4132 7.19436H49.9415C49.8957 7.76489 49.7127 8.64263 49.438 9.82759L47.3325 19H50.0788L51.1316 14.4796C51.4062 14.9624 51.7724 15.3135 52.2301 15.5329C52.5963 15.7085 53.0083 15.8401 53.5118 15.884C53.6033 15.884 53.7406 15.9279 53.8322 15.9279C55.2053 15.9279 56.3497 15.3135 57.1736 14.1285C58.0432 12.9436 58.3636 11.4953 58.1806 9.7837C58.1806 8.94984 57.8601 8.24764 57.3566 7.76489ZM55.4342 11.4953C55.2969 12.0658 55.1138 12.5925 54.8849 13.0752C54.6561 13.5141 54.4272 13.8213 54.1068 14.0408C53.9237 14.1724 53.7406 14.2602 53.5575 14.3041C53.4202 14.348 53.2829 14.348 53.1456 14.348C52.6879 14.348 52.3217 14.1724 52.047 13.9091C51.7724 13.6458 51.6351 13.2069 51.5436 12.6803C51.452 11.627 51.6351 10.7053 52.1844 9.82759C52.5505 9.21317 53.0083 8.81818 53.5575 8.64263C53.7406 8.59874 53.9237 8.59874 54.1068 8.59874C54.5187 8.59874 54.8849 8.73041 55.1138 8.99373C55.3427 9.21317 55.5257 9.56426 55.5257 10.047C55.5715 10.442 55.5715 10.9248 55.4342 11.4953Z" fill="#1545B3"/>
<path d="M66.4196 7.67712C65.7788 7.28213 64.9549 7.15047 63.7648 7.15047C63.3986 7.15047 63.0324 7.15047 62.712 7.19436C62.0254 7.28213 61.4762 7.45768 60.9727 7.76489C60.3318 8.20376 59.9199 8.81818 59.8741 9.60815H62.4832C62.5289 9.34483 62.6205 9.1254 62.7578 8.99373C62.8036 8.90596 62.8493 8.86206 62.9409 8.81817C63.124 8.64263 63.4444 8.55486 63.8106 8.55486C64.131 8.55486 64.4056 8.59875 64.5887 8.73041C64.7718 8.86207 64.8633 9.03761 64.9091 9.30094C64.9091 9.4326 64.9091 9.56426 64.8633 9.69592C64.8633 9.87147 64.8175 10.0909 64.726 10.442C64.6345 10.442 64.5429 10.442 64.4514 10.442C64.3598 10.442 64.1767 10.442 63.9936 10.442C63.5817 10.442 63.124 10.442 62.7578 10.4859C61.4762 10.5737 60.4692 10.8809 59.7368 11.3197C58.8214 11.8903 58.3636 12.7241 58.5009 13.7774C58.5467 14.4796 58.8214 15.0063 59.3249 15.4012C59.8284 15.7962 60.4234 16.0157 61.2473 16.0157C61.7966 16.0157 62.2543 15.884 62.712 15.6646L62.7578 15.6207C63.1697 15.4451 63.5359 15.094 63.8563 14.6552C63.8563 14.8746 63.8106 15.0502 63.8106 15.2696C63.8106 15.489 63.8106 15.6646 63.8106 15.884H66.328C66.328 15.489 66.328 15.1379 66.3738 14.7868C66.4196 14.3918 66.4654 14.0408 66.5569 13.7335L67.2435 10.837C67.2893 10.5737 67.3808 10.2665 67.4266 10.047C67.4723 9.7837 67.4723 9.56426 67.4266 9.34483C67.335 8.59874 67.0146 8.02822 66.4196 7.67712ZM63.5359 13.6897C63.2613 13.953 62.9867 14.1724 62.7578 14.3041C62.5747 14.3918 62.3458 14.4357 62.117 14.4357C61.8423 14.4357 61.5677 14.3919 61.4304 14.2163C61.2473 14.0408 61.1558 13.8213 61.1558 13.558C61.11 13.0313 61.3388 12.5925 61.8881 12.2414C62.1627 12.0658 62.4374 11.9342 62.8036 11.8464C63.124 11.7586 63.5359 11.7147 63.9479 11.7147C64.0852 11.7147 64.131 11.7147 64.2225 11.7147C64.2683 11.7147 64.3598 11.7147 64.4056 11.7586C64.2683 12.5486 63.9479 13.2069 63.5359 13.6897Z" fill="#1545B3"/>
<path d="M75.4367 7.19436L71.958 13.1191L71.1799 7.19436H68.4793L70.0356 15.8401L67.8843 19H70.768L72.4158 16.1912L78 7.19436H75.4367Z" fill="#1545B3"/>
<path d="M25.1329 9.87148C25.0413 8.99373 24.7209 8.29153 24.0343 7.76489C23.3935 7.28213 22.5696 7.01881 21.5169 7.01881C21.2422 7.01881 20.9218 7.0188 20.6472 7.06269C20.0979 7.10658 19.5944 7.23824 19.1825 7.41379C18.5416 7.67712 17.9924 8.07209 17.5804 8.59874C17.1227 9.21316 16.8023 9.91536 16.5734 10.7053C16.2988 11.5392 16.253 12.2853 16.2988 13.0313C16.3446 13.953 16.7107 14.6552 17.3973 15.1818C18.0381 15.7085 18.8621 15.9718 19.9148 15.9718C20.1895 15.9718 20.4641 15.9279 20.6929 15.9279C21.3338 15.884 21.9288 15.7524 22.3865 15.5329C23.0273 15.2696 23.5766 14.7868 24.0343 14.1285C24.4463 13.558 24.7209 12.8558 24.904 12.0658C25.1329 11.3198 25.2244 10.5298 25.1329 9.87148ZM23.1647 11.7586C22.9816 12.4169 22.7527 13.0313 22.4323 13.558C22.1577 14.0408 21.7915 14.3918 21.4253 14.6113C21.2422 14.7429 20.9676 14.8307 20.6929 14.8746C20.5098 14.9185 20.281 14.9185 20.0521 14.9185C19.4571 14.9185 18.9994 14.7429 18.6332 14.4357C18.3128 14.1285 18.0839 13.6897 18.0381 13.1191C17.9924 12.5925 18.0381 12.0219 18.2212 11.3197C18.4043 10.6176 18.6332 10.047 18.9078 9.56426C19.1825 9.03762 19.5486 8.68651 19.9606 8.3793C20.1895 8.24764 20.4641 8.15988 20.6929 8.11599C20.9218 8.0721 21.1049 8.02821 21.3338 8.02821C21.9746 8.02821 22.4323 8.20376 22.7527 8.51097C23.0731 8.7743 23.302 9.25705 23.3477 9.91535C23.3935 10.4859 23.3478 11.0564 23.1647 11.7586Z" fill="#1545B3"/>
<path d="M32.0445 7.50156C31.541 7.23824 30.8086 7.06269 29.7559 7.06269C28.6573 7.06269 27.7419 7.32602 27.1011 7.80878C26.4603 8.33542 26.1856 8.90596 26.2314 9.65204C26.2772 10.0909 26.4603 10.4859 26.8722 10.837C27.2384 11.1881 27.8792 11.5831 28.7947 11.9781C29.527 12.2853 29.9847 12.5486 30.2136 12.7241C30.4425 12.8997 30.5798 13.1191 30.5798 13.3824C30.6255 13.7774 30.4425 14.1285 30.0305 14.4357C29.6186 14.6991 29.1151 14.8307 28.4285 14.8307C27.8792 14.8307 27.5588 14.7868 27.2842 14.5674C27.0095 14.3918 26.8722 14.1724 26.8722 13.8213C26.8264 13.7335 26.8264 13.6458 26.8722 13.5141C26.8722 13.3824 26.918 13.2508 26.9638 13.1191H25.1786C25.1329 13.2947 25.1329 13.5141 25.0871 13.6458C25.0413 13.8213 25.0413 13.9969 25.0871 14.1285C25.1329 14.7429 25.4533 15.2257 26.0025 15.5768C26.5976 15.884 27.3757 16.1034 28.3369 16.1034C29.5728 16.1034 30.6256 15.8401 31.3579 15.2696C32.136 14.7429 32.4564 14.0407 32.4107 13.2508C32.3649 12.768 32.1818 12.373 31.8614 12.0658C31.5868 11.7586 30.8544 11.3197 29.8017 10.8809C29.0235 10.5298 28.5658 10.2665 28.3369 10.0909C28.1081 9.91536 28.0165 9.69592 27.9708 9.47648C27.925 9.0815 28.0623 8.7743 28.3827 8.55486C28.6573 8.33543 29.1151 8.20376 29.6643 8.20376C30.1678 8.20376 30.534 8.29153 30.7629 8.46708C31.0375 8.64263 31.1748 8.86207 31.1748 9.21317C31.1748 9.25706 31.1748 9.38872 31.1748 9.43261C31.1748 9.47649 31.1748 9.60814 31.1748 9.69592H32.7769C32.8226 9.47648 32.8226 9.30094 32.8226 9.21317C32.8226 9.08151 32.8226 8.99373 32.8226 8.90595C32.8226 8.15987 32.548 7.76488 32.0445 7.50156Z" fill="#1545B3"/>
<path d="M37.0337 14.7868C36.6217 14.7868 36.3471 14.7429 36.164 14.6113C35.9809 14.5235 35.8894 14.348 35.8894 14.0846C35.8436 13.9969 35.8894 13.8652 35.9352 13.6897C35.9352 13.5141 35.9809 13.2947 36.1182 12.9436L37.1252 8.46708H39.0477L39.3223 7.3699H37.3999L37.9491 5L36.2098 5.39498L35.7521 7.3699H34.0585L33.7839 8.46708H35.4317L34.4247 12.768C34.3789 13.163 34.2416 13.558 34.2416 13.953C34.1958 14.3041 34.1958 14.5674 34.1958 14.7429C34.2416 15.2257 34.3789 15.5768 34.7451 15.7524C35.0197 15.9718 35.5232 16.0596 36.2098 16.0596C36.4387 16.0596 36.7133 16.0157 36.9879 16.0157C37.2626 15.9718 37.5372 15.9718 37.8576 15.9279L38.1322 14.6552C37.9491 14.6991 37.7661 14.7429 37.583 14.7429C37.3541 14.7429 37.171 14.7868 37.0337 14.7868Z" fill="#1545B3"/>
<path d="M40.8786 11.7586H47.3325C47.424 11.3636 47.5156 11.0125 47.5156 10.6614C47.5613 10.3103 47.5613 9.95925 47.5156 9.65204C47.4698 8.73041 47.1036 8.0721 46.5086 7.67712C45.9135 7.28213 45.0439 7.06269 43.8538 7.06269C43.7165 7.06269 43.6249 7.06269 43.4876 7.06269C42.801 7.10658 42.206 7.23824 41.6567 7.54545C41.0159 7.80877 40.5124 8.29153 40.1004 8.86206C39.7343 9.47648 39.4139 10.1787 39.2308 11.0125C39.0019 11.8464 38.9561 12.6364 39.0019 13.2947C39.0477 14.1724 39.4139 14.8746 40.0089 15.3574C40.6497 15.8401 41.4736 16.1034 42.5264 16.1034C42.8468 16.1034 43.1672 16.0596 43.4876 16.0596C44.22 15.9718 44.8608 15.7523 45.3643 15.4012C46.1424 14.9185 46.6001 14.2602 46.829 13.4263H44.9066C44.7235 13.9091 44.4488 14.2602 44.0369 14.5235C43.8538 14.6113 43.6707 14.6991 43.4876 14.7868C43.2587 14.8746 42.9841 14.9185 42.7095 14.9185C42.0687 14.9185 41.6109 14.743 41.2448 14.4796C40.9244 14.2163 40.6955 13.7774 40.6497 13.2508C40.6497 13.0752 40.6497 12.8558 40.6955 12.6364C40.7413 12.2414 40.787 11.9781 40.8786 11.7586ZM42.1602 8.68652C42.5264 8.29153 42.9841 8.11599 43.5334 8.0721C43.6249 8.0721 43.7622 8.02821 43.8538 8.02821C44.4488 8.02821 44.9065 8.20376 45.2727 8.42319C45.5931 8.68652 45.822 9.03761 45.822 9.47648C45.8678 9.60814 45.8678 9.73982 45.822 9.87148C45.822 10.047 45.7762 10.2665 45.7762 10.5298H41.2448C41.3363 9.73982 41.7025 9.0815 42.1602 8.68652Z" fill="#1545B3"/>
</svg>
