<svg width="88" height="25" viewBox="0 0 88 25" fill="none" xmlns="http://www.w3.org/2000/svg">
<g clip-path="url(#clip0)">
<path d="M65.8968 19.0376C64.82 19.0376 63.7432 19.0376 62.6503 19.0376C62.5315 18.4635 62.4041 17.9019 62.3035 17.3356C62.2618 17.1005 62.187 17.0093 61.9262 17.0127C60.6244 17.0296 59.3223 17.0254 58.0205 17.015C57.8234 17.0135 57.745 17.0789 57.6851 17.2595C57.5057 17.7992 57.3096 18.3334 57.1089 18.8656C57.0817 18.9378 56.9914 19.0369 56.9296 19.0374C55.7562 19.0477 54.5826 19.045 53.3753 19.045C53.5953 18.5121 53.8037 18.0034 54.0152 17.4959C55.5282 13.8655 57.0418 10.2353 58.5553 6.60512C58.8831 5.81886 59.3745 5.48962 60.2199 5.48957C61.1619 5.48951 62.104 5.48955 63.0701 5.48955C63.1643 5.93215 63.2591 6.36828 63.3498 6.80527C64.0944 10.3929 64.8372 13.9809 65.5835 17.5682C65.6791 18.0277 65.7919 18.4836 65.8968 18.9412C65.8968 18.9733 65.8968 19.0054 65.8968 19.0376ZM61.6478 14.2232C61.3018 12.555 60.9605 10.9092 60.6191 9.26338C60.6052 9.26064 60.5912 9.25789 60.5773 9.25515C59.9826 10.9051 59.3878 12.555 58.7864 14.2232C59.7577 14.2232 60.6877 14.2232 61.6478 14.2232Z" fill="#3A46FF"/>
<path d="M51.7538 5.24829C52.1822 5.3283 52.6139 5.39407 53.0382 5.49248C53.4252 5.58228 53.8043 5.70744 54.2157 5.82529C54.0083 6.8005 53.8059 7.75233 53.6079 8.68363C53.0651 8.52354 52.5463 8.33922 52.013 8.22085C51.2836 8.05894 50.5363 7.99724 49.8066 8.20173C49.5099 8.28485 49.2097 8.44447 48.9762 8.64569C48.5756 8.99083 48.5702 9.48768 48.9529 9.85003C49.2167 10.0999 49.5293 10.305 49.8418 10.494C50.5521 10.9236 51.2979 11.2971 51.9882 11.756C52.8012 12.2964 53.3942 13.0394 53.5187 14.044C53.7389 15.8207 53.0856 17.2202 51.6015 18.2103C50.6683 18.8329 49.6122 19.111 48.5119 19.214C46.9754 19.3578 45.4693 19.1847 44.0012 18.6997C43.9028 18.6672 43.807 18.6266 43.7111 18.5871C43.6824 18.5753 43.6575 18.5544 43.6136 18.5269C43.821 17.5502 44.0287 16.5721 44.2422 15.5665C44.4924 15.6764 44.7274 15.7865 44.9675 15.8838C46.1144 16.3486 47.2989 16.5612 48.5265 16.3299C48.8459 16.2698 49.1716 16.1279 49.4423 15.9454C50.0298 15.5494 50.0861 14.8051 49.5512 14.34C49.1996 14.0342 48.777 13.8084 48.3764 13.563C47.7508 13.1797 47.0861 12.853 46.494 12.424C45.7351 11.8742 45.1854 11.141 45.0812 10.1665C44.9252 8.70742 45.4636 7.52268 46.5772 6.60212C47.5462 5.80115 48.6966 5.44569 49.9223 5.2964C49.9904 5.28811 50.0567 5.26468 50.1238 5.24829C50.6671 5.24829 51.2105 5.24829 51.7538 5.24829Z" fill="#3A46FF"/>
<path d="M39.1292 5.50059C38.9468 5.94193 38.7742 6.36273 38.5992 6.78255C36.9283 10.791 35.2554 14.7986 33.5914 18.8099C33.5122 19.001 33.4152 19.0512 33.2225 19.0496C32.1679 19.0408 31.1132 19.0373 30.0588 19.0519C29.8352 19.055 29.7624 18.9762 29.7109 18.7745C28.8169 15.2708 27.9079 11.7709 27.0241 8.26467C26.8619 7.62141 26.5373 7.18207 25.9285 6.91245C24.9526 6.48025 23.9395 6.17665 22.9062 5.92987C22.8604 5.91896 22.8149 5.90701 22.772 5.89623C22.7771 5.48958 22.7771 5.48956 23.1617 5.48955C25.0072 5.48955 26.8528 5.48914 28.6983 5.48974C29.5737 5.49002 30.2055 6.0014 30.371 6.87275C30.8395 9.33946 31.2981 11.8081 31.7608 14.2759C31.7811 14.3838 31.8042 14.4912 31.8348 14.6432C31.8827 14.5527 31.9161 14.5019 31.9379 14.4465C33.0841 11.5308 34.2307 8.6152 35.3711 5.6972C35.4334 5.53791 35.5101 5.48388 35.6812 5.48525C36.7517 5.49378 37.8223 5.48938 38.8929 5.48997C38.9621 5.49001 39.0312 5.49602 39.1292 5.50059Z" fill="#3A46FF"/>
<path d="M37.7316 19.0454C38.6957 14.5141 39.6531 10.0145 40.6128 5.50403C41.7802 5.50403 42.9339 5.50403 44.1096 5.50403C43.9641 6.19101 43.8218 6.86487 43.6785 7.53853C42.8863 11.2642 42.0911 14.9892 41.3076 18.7167C41.2532 18.9756 41.1619 19.0579 40.8946 19.0527C39.9363 19.0341 38.9775 19.0454 38.0188 19.0454C37.9328 19.0454 37.8468 19.0454 37.7316 19.0454Z" fill="#3A46FF"/>
</g>
<defs>
<clipPath id="clip0">
<rect width="88" height="24.0025" fill="white"/>
</clipPath>
</defs>
</svg>
