<svg width="88" height="24" viewBox="0 0 88 24" fill="none" xmlns="http://www.w3.org/2000/svg">
<path d="M22.8399 9.83477C23.8946 9.8802 24.712 10.327 25.2317 11.2617C25.5034 11.7504 26.082 11.9607 26.5947 11.7395C27.1005 11.5212 27.3509 10.9562 27.1767 10.4314C27.1322 10.297 27.062 10.1761 26.9931 10.0541C26.6878 9.51396 26.5664 8.931 26.6641 8.32321C26.8066 7.43598 27.28 6.7564 28.0742 6.32219C28.5067 6.08577 28.9796 5.97251 29.4768 6.00566C31.2297 6.12253 32.3791 7.6396 32.0205 9.30028C31.8835 9.93498 31.5543 10.4776 31.0176 10.8712C30.4944 11.255 29.9134 11.4588 29.2551 11.4215C28.8379 11.3978 28.42 11.6856 28.2589 12.0937C28.0989 12.4992 28.2226 12.9852 28.5445 13.2708C28.8168 13.5125 29.1366 13.5695 29.4877 13.5748C30.7307 13.5936 31.7828 14.4235 32.0948 15.616C32.5031 17.1762 31.4262 18.7651 29.8175 18.976C28.3545 19.1678 27.0047 18.1884 26.7643 16.7476C26.6531 16.0811 26.7674 15.4497 27.1326 14.8715C27.3961 14.4545 27.3402 13.9193 26.9977 13.5715C26.6496 13.218 26.0946 13.151 25.67 13.3883C25.4241 13.5258 25.3066 13.7547 25.1626 13.9731C24.8275 14.481 24.3915 14.8726 23.8122 15.09C22.1848 15.7006 20.4237 14.6816 20.1471 12.9689C19.9098 11.4994 20.9587 10.0762 22.4286 9.8693C22.5648 9.85014 22.7008 9.84712 22.8399 9.83477Z" fill="#3774AB"/>
<path d="M52.6624 15.7939C52.6624 15.8332 52.6624 15.8713 52.6624 15.9094C52.6624 16.8994 52.6612 17.8894 52.6644 18.8795C52.6647 18.9696 52.6455 19.0005 52.544 18.9995C52.0061 18.9942 51.4681 18.9945 50.9302 18.9994C50.8336 19.0002 50.8152 18.9713 50.8153 18.8849C50.8176 16.0262 50.8175 13.1674 50.8155 10.3086C50.8154 10.2258 50.8269 10.1924 50.927 10.1935C51.4442 10.1991 51.9615 10.1979 52.4787 10.1942C52.5624 10.1936 52.5951 10.2094 52.5899 10.2968C52.5817 10.4347 52.5877 10.5734 52.5877 10.7112C52.6014 10.7133 52.6125 10.7181 52.6157 10.7151C53.0615 10.3002 53.6105 10.1105 54.2149 10.0661C55.2082 9.99312 56.0804 10.2608 56.7746 10.9709C57.2217 11.4282 57.4637 11.9841 57.5623 12.5982C57.6918 13.4055 57.6069 14.1878 57.1846 14.9082C56.5574 15.978 55.5872 16.4641 54.3171 16.4049C53.7256 16.3773 53.1965 16.1856 52.7352 15.8261C52.7224 15.8161 52.709 15.8066 52.6949 15.7985C52.6891 15.7951 52.6805 15.7962 52.6624 15.7939ZM54.1829 14.781C55.0888 14.784 55.7592 14.1339 55.7656 13.2464C55.7719 12.352 55.106 11.6874 54.198 11.6822C53.2943 11.677 52.6132 12.3429 52.613 13.2319C52.6128 14.1188 53.2808 14.778 54.1829 14.781Z" fill="white"/>
<path d="M45.0371 10.7357C46.7468 9.34437 49.3516 10.1409 49.923 12.2199C50.2115 13.2695 50.1052 14.2857 49.446 15.1955C48.8025 16.0835 47.8877 16.4618 46.7713 16.406C46.1708 16.376 45.6348 16.1823 45.1684 15.8153C45.1563 15.8058 45.1427 15.7981 45.1117 15.7775C45.1117 15.8325 45.1117 15.8739 45.1117 15.9152C45.1117 16.9014 45.1102 17.8875 45.114 18.8737C45.1144 18.97 45.0936 19.0008 44.9873 18.9996C44.4618 18.9939 43.9361 18.9931 43.4106 18.9999C43.2906 19.0015 43.2609 18.9716 43.2611 18.8564C43.2647 16.0809 43.2638 13.3054 43.2642 10.5298C43.2642 10.4231 43.2266 10.2794 43.283 10.2191C43.349 10.1485 43.5013 10.1978 43.6159 10.1971C44.0545 10.1945 44.4932 10.1987 44.9318 10.1939C45.0215 10.1929 45.0432 10.2185 45.039 10.3004C45.0319 10.4379 45.0371 10.5761 45.0371 10.7357ZM46.6401 14.781C47.5483 14.7801 48.2182 14.1184 48.2151 13.2254C48.212 12.3408 47.5372 11.6812 46.6365 11.6822C45.73 11.6832 45.0589 12.3477 45.0623 13.2409C45.0657 14.1278 45.7358 14.7819 46.6401 14.781Z" fill="white"/>
<path d="M65.111 13.903C64.3994 13.903 63.6877 13.905 62.9761 13.9009C62.8667 13.9003 62.8536 13.9262 62.8846 14.0225C63.0517 14.5402 63.5451 14.8894 64.1279 14.9247C64.8063 14.9659 65.3178 14.6857 65.7263 14.1963C65.8069 14.0997 65.8549 14.0989 65.9531 14.1726C66.3277 14.4539 66.709 14.727 67.0904 14.9998C67.1546 15.0456 67.1755 15.0712 67.1167 15.1437C66.5777 15.8085 65.8863 16.2273 65.0164 16.3643C63.6959 16.5724 62.2483 16.1205 61.4921 14.9824C61.0505 14.3178 60.9069 13.5905 61.0021 12.8163C61.1144 11.9032 61.5438 11.1505 62.3453 10.6459C63.4142 9.97301 64.5679 9.83116 65.7526 10.3459C66.5388 10.6875 66.9718 11.3313 67.2109 12.1068C67.3849 12.6711 67.3828 13.2518 67.3796 13.8326C67.3791 13.9295 67.3091 13.9021 67.2584 13.9021C66.5426 13.9034 65.8268 13.903 65.111 13.903ZM64.1896 12.4884C64.5947 12.4884 64.9999 12.4846 65.405 12.491C65.5077 12.4926 65.5182 12.4621 65.4994 12.378C65.4068 11.9636 65.1616 11.6802 64.7395 11.5444C64.6054 11.5013 64.4665 11.4838 64.3264 11.4722C63.608 11.4127 63.0723 11.7566 62.8838 12.392C62.8588 12.4762 62.8771 12.4907 62.9619 12.4899C63.3711 12.4865 63.7804 12.4884 64.1896 12.4884Z" fill="white"/>
<path d="M60.2389 11.7012C60.2389 13.2159 60.2375 14.7305 60.2417 16.2452C60.242 16.3559 60.2104 16.3805 60.0997 16.3793C59.5702 16.3736 59.0405 16.375 58.511 16.3785C58.4252 16.379 58.3914 16.3678 58.3915 16.2718C58.3947 13.2186 58.3945 10.1654 58.392 7.11226C58.3919 7.02313 58.4146 6.99961 58.508 7.0004C59.0458 7.00498 59.5837 7.00563 60.1215 7.00002C60.2254 6.99894 60.2408 7.03353 60.2407 7.12148C60.2382 8.64806 60.2389 10.1746 60.2389 11.7012Z" fill="white"/>
<path d="M37.0454 10.7243C37.1252 10.6514 37.1836 10.5911 37.2493 10.539C37.8636 10.0517 38.5551 9.9467 39.3098 10.1586C39.3539 10.171 39.3767 10.188 39.3765 10.2392C39.3743 10.7915 39.3751 11.3439 39.3751 11.909C39.2219 11.8741 39.0766 11.8395 38.9306 11.8082C38.6698 11.7522 38.4061 11.7355 38.1422 11.7799C37.5639 11.8772 37.1553 12.2925 37.0663 12.8651C37.0516 12.9597 37.0448 13.0542 37.0449 13.1499C37.0458 14.1476 37.0436 15.1453 37.0481 16.143C37.0486 16.2483 37.022 16.2752 36.9123 16.274C36.3787 16.2681 35.845 16.2697 35.3113 16.273C35.2277 16.2735 35.1987 16.2556 35.1988 16.1692C35.2013 14.2095 35.2013 12.2498 35.1987 10.2901C35.1986 10.2073 35.2284 10.1943 35.3045 10.1946C35.8505 10.1974 36.3966 10.1975 36.9426 10.1945C37.0204 10.1941 37.0519 10.2095 37.0474 10.2912C37.0401 10.4259 37.0454 10.5613 37.0454 10.7243Z" fill="white"/>
<path d="M42.0911 13.2396C42.0911 14.2097 42.0896 15.1797 42.0934 16.1497C42.0937 16.2482 42.0678 16.2765 41.9635 16.2755C41.4298 16.2704 40.896 16.2714 40.3623 16.2749C40.2755 16.2755 40.242 16.2621 40.2421 16.1668C40.2454 14.2108 40.2452 12.2548 40.2425 10.2988C40.2424 10.2148 40.2646 10.1939 40.3514 10.1945C40.8934 10.1985 41.4355 10.1988 41.9774 10.1943C42.0704 10.1935 42.0936 10.2162 42.0933 10.3056C42.0897 11.2836 42.0911 12.2616 42.0911 13.2396Z" fill="white"/>
<path d="M41.1638 7.55891C41.6301 7.58715 41.9648 7.80746 42.0809 8.14239C42.2597 8.65861 41.903 9.1969 41.3365 9.26609C41.0327 9.3032 40.7505 9.2594 40.5156 9.05444C40.2341 8.80879 40.1376 8.50144 40.2571 8.15818C40.377 7.81384 40.6423 7.61343 41.0243 7.56938C41.0816 7.56277 41.1394 7.56067 41.1638 7.55891Z" fill="white"/>
</svg>
