<?xml version="1.0" encoding="UTF-8" standalone="yes"?><svg xmlns="http://www.w3.org/2000/svg" width="16" height="16" fill="none" viewBox="0 0 16 16"><path fill="#FFCD34" fill-rule="evenodd" d="M14.6238 10.0001C14.6238 10.6388 14.1741 11.1748 13.5796 11.3039C13.5158 11.3006 13.4552 11.3082 13.3936 11.3246C13.3634 11.3268 13.3363 11.3334 13.3061 11.3334L12.6466 11.3334L12.6466 8.00061L13.3061 8.00061C14.0314 8.00061 14.6238 8.60001 14.6238 9.33394L14.6238 10.0001ZM8.03501 14.6673C7.50747 14.6673 7.37558 14.2669 7.37558 14.0001C7.37558 13.7343 7.50747 13.3339 8.03501 13.3339C8.56254 13.3339 8.69443 13.7343 8.69443 14.0001C8.69443 14.2669 8.56254 14.6673 8.03501 14.6673ZM3.42337 11.3334L2.76395 11.3334C2.03858 11.3334 1.44618 10.7329 1.44618 10.0001L1.44618 9.33394C1.44618 8.60001 2.03858 8.00061 2.76395 8.00061L3.42337 8.00061L3.42337 11.3334ZM14.6173 7.03588C14.6217 6.91885 14.6238 6.80072 14.6238 6.66727C14.6238 3.00088 11.6586 -0.000488275 8.03501 -0.000488277C4.41142 -0.000488279 1.44618 3.00088 1.44618 6.66727C1.44618 6.79853 1.44834 6.91885 1.45699 7.03369C0.667847 7.49527 0.128418 8.34953 0.128418 9.33394L0.128418 10.0001C0.128418 11.4668 1.3143 12.6667 2.76395 12.6667L4.08171 12.6667C4.47737 12.6667 4.74005 12.3998 4.74005 12.0006L4.74005 7.33339C4.74005 6.93306 4.47737 6.66727 4.08171 6.66727L2.76395 6.66727C2.76395 3.73372 5.13571 1.33394 8.03501 1.33394C10.9343 1.33394 13.3061 3.73372 13.3061 6.66727L11.9883 6.66727C11.5926 6.66727 11.33 6.93306 11.33 7.33339L11.33 12.0006C11.33 12.3998 11.5926 12.6667 11.9883 12.6667L12.4207 12.6667C11.8532 13.5057 11.0284 14.1018 9.94517 14.4004C10.0111 14.2669 10.0111 14.1335 10.0111 14.0001C10.0111 13.2005 9.48466 12.0006 8.03501 12.0006C6.58536 12.0006 6.0589 13.2005 6.0589 14.0001C6.0589 14.8007 6.58536 16.0006 8.03501 16.0006C11.5981 16.0006 13.2704 14.2035 14.0141 12.5563C15.12 12.2391 15.9416 11.2175 15.9416 10.0001L15.9416 9.33394C15.9416 8.35171 15.4043 7.49856 14.6173 7.03588Z" clip-rule="evenodd" style=""/></svg>