<?xml version="1.0" encoding="UTF-8" standalone="yes"?><svg xmlns="http://www.w3.org/2000/svg" viewBox="0 0 92 48"><path d="M37.8874 74.7439C37.3625 74.5024 34.0502 76.4432 33.2104 78.3077C32.3706 80.1722 30.3974 81.4206 30.9223 81.6621C31.4471 81.9036 34.2712 81.0466 35.1111 79.1821C35.9509 77.3176 38.4122 74.9854 37.8874 74.7439ZM15.449 27.4785C15.0607 29.4153 17.0302 29.3879 19.2167 27.1804C21.8155 24.5567 24.9819 19.2605 28.5098 16.2181C31.9499 13.2515 35.3508 13.2124 36.6519 13.3378C38.81 13.549 28.1986 23.198 23.317 34.0354C23.071 34.5814 25.8544 33.4834 25.7417 35.1509C25.5914 37.3754 22.968 42.4549 23.2253 43.1454C23.6951 44.4145 1.7754 65.6387 6.68024 65.3763C11.635 65.1369 34.6435 39.2461 36.5677 40.1313C38.4919 41.0165 20.3159 57.655 23.1203 58.9452C25.9247 60.2353 32.1368 49.6444 34.8032 46.2244C38.2331 41.8697 43.5991 44.9345 38.032 49.9571C37.6506 50.3055 31.9014 52.7356 31.4322 53.1531C27.3185 56.8504 25.3673 60.7436 25.2454 63.5613C24.884 70.5076 40.9254 49.0409 47.3726 45.1021C50.9216 42.9841 52.291 38.2955 53.1527 37.7592C53.5828 37.4922 55.8684 37.2479 53.4865 40.4656C50.5923 44.4009 40.3378 53.7869 37.9946 58.3795C34.5288 65.1715 36.9092 65.9947 37.5305 65.5745C38.3472 65.024 33.5763 70.6914 34.9373 70.5388C36.2613 70.3926 38.1799 69.7594 41.3487 67.331C48.9825 61.6181 66.7897 46.5857 67.4507 46.8898C68.0599 47.17 69.4851 49.9139 64.8596 52.2819C62.9315 53.284 57.8615 55.6334 55.5736 58.0269C52.4354 61.3389 50.3498 64.6979 51.5153 65.2341C53.5254 66.1589 81.2439 49.0069 85.7063 45.4541C92.8273 39.7847 111.818 16.6029 101.275 8.22461C100.929 7.95191 104.272 -9.58994 78.0754 -10.379C57.7188 -10.9922 36.1946 -0.821025 24.1976 15.6361C22.9015 17.4141 19.331 19.0252 18.6562 20.0974C16.7345 23.151 15.6941 26.1931 15.449 27.4785ZM9.86945 21.4174C9.14165 21.0826 8.28362 21.4062 7.95296 22.1403C7.6223 22.8744 7.94423 23.7409 8.67202 24.0757C9.39981 24.4105 10.2579 24.0869 10.5885 23.3528C10.9192 22.6187 10.5972 21.7522 9.86945 21.4174ZM16.6105 70.7306C16.0282 70.4628 15.3418 70.7217 15.0773 71.309C14.8127 71.8962 15.0703 72.5895 15.6525 72.8573C16.2347 73.1252 16.9212 72.8662 17.1857 72.279C17.4502 71.6917 17.1927 70.9985 16.6105 70.7306ZM33.7873 65.796C33.3506 65.5951 32.8358 65.7893 32.6374 66.2298C32.439 66.6702 32.6322 67.1901 33.0689 67.391C33.5056 67.5919 34.0204 67.3977 34.2188 66.9573C34.4172 66.5168 34.224 65.9969 33.7873 65.796ZM85.0785 51.5239C84.4962 51.256 83.8098 51.5149 83.5452 52.1022C83.2807 52.6894 83.5383 53.3827 84.1205 53.6505C84.7027 53.9184 85.3892 53.6594 85.6537 53.0722C85.9182 52.4849 85.6607 51.7917 85.0785 51.5239ZM42.4589 76.4951C45.8781 73.0786 48.014 72.1355 48.64 68.9478C49.2661 65.76 45.8846 71.7011 42.4654 75.1175C39.0463 78.534 37.1463 78.2009 36.2583 81.3198C35.3702 84.4387 39.0398 79.9115 42.4589 76.4951ZM26.0707 23.2064C25.5459 22.9649 24.4396 24.2806 23.5997 26.1451C22.7599 28.0096 22.5046 29.7167 23.0294 29.9582C23.5543 30.1997 24.6606 28.8839 25.5004 27.0195C26.3403 25.155 26.5956 23.4478 26.0707 23.2064ZM61.9991 19.1879C81.0739 -0.853451 62.2393 21.1188 61.4015 22.9788C60.5636 24.8388 55.8196 27.4488 55.3118 27.2153C54.8041 26.9817 58.7248 23.9929 59.5627 22.1329C60.4005 20.2728 42.9243 39.2293 61.9991 19.1879ZM89.7313 15.2121C93.7155 14.8969 87.6695 21.4063 83.588 27.2573C79.5064 33.1082 77.9778 40.4948 73.6638 38.0818C69.3498 35.6689 76.2714 32.4462 78.6809 26.0905C81.0903 19.7348 85.7471 15.5274 89.7313 15.2121ZM70.8801 24.8615C72.7061 24.7171 69.9416 27.7819 68.077 30.5381C66.2123 33.2944 65.5194 36.7779 63.5394 35.6348C61.5593 34.4917 64.7287 32.9786 65.8264 29.9824C66.924 26.9862 69.0541 25.006 70.8801 24.8615ZM48.4431 34.9923C49.5587 34.904 47.4835 38.1082 47.5726 39.2343C47.6617 40.3604 44.8673 42.2336 43.7517 42.3219C42.6361 42.4102 43.6218 40.6801 43.5327 39.554C43.4436 38.4279 47.3275 35.0806 48.4431 34.9923ZM49.0524 21.2377C49.6899 21.1873 50.2479 21.6681 50.2988 22.3115C50.3498 22.955 49.8742 23.5176 49.2368 23.568C48.5993 23.6185 48.0412 23.1377 47.9903 22.4942C47.9394 21.8507 48.4149 21.2882 49.0524 21.2377ZM54.7315 19.616C55.369 19.5655 55.927 20.0463 55.9779 20.6898C56.0289 21.3333 55.5534 21.8958 54.9159 21.9462C54.2784 21.9967 53.7203 21.5159 53.6694 20.8724C53.6185 20.2289 54.094 19.6664 54.7315 19.616ZM96.3027 38.9294C94.4767 39.0738 92.3466 41.054 91.249 44.0502C90.1513 47.0464 86.982 48.5595 88.962 49.7026C90.9421 50.8457 91.6349 47.3622 93.4996 44.606C95.3642 41.8497 98.1287 38.7849 96.3027 38.9294ZM16.3675 35.7735C9.0541 41.4842 9.25329 40.8749 7.84299 42.2666C6.43269 43.6583 4.47711 44.4313 5.34851 45.4855C6.21992 46.5398 8.74739 45.4851 10.3772 44.5229C12.0069 43.5607 23.6809 30.0628 16.3675 35.7735Z" style=""/></svg>