<svg width="4320" height="1200" viewBox="0 0 4320 1200" fill="none" xmlns="http://www.w3.org/2000/svg">
<g clip-path="url(#clip0)">
<path d="M4320 0H0V1200H4320V0Z" fill="#090E12"/>
<path fill-rule="evenodd" clip-rule="evenodd" d="M125.285 777.814C72.2983 777.814 196.879 843.823 198.817 859.599C200.366 872.205 81.9903 840.714 38.2464 806.267C-34.3988 749.06 -66.758 609.909 -141.121 510.506C-175.954 463.944 -228.628 383.684 -299.142 269.727C-258.654 295.383 -217.937 328.723 -176.989 369.747C-133.316 413.503 -31.5764 634.239 26.7381 650.067C85.0525 665.896 183.787 675.071 287.39 665.896C370.213 658.561 477.599 616.252 511.734 650.067C519.314 657.577 417.186 671.573 418.343 679.756C426.305 736.108 653.073 674.265 758.495 617.134C791.915 599.024 866.223 508.245 954.53 432.254C999.353 393.683 1073.27 346.77 1095.79 338.944C1118.31 331.119 1023.81 420.232 1054.42 407.699C1141.39 372.087 1292.07 329.163 1364.55 298.917C1462.54 258.026 1457.1 247.727 1559.21 187.648C1652.01 133.043 1755.79 -24.9761 1788.57 -86.6912C1821.5 -148.69 1825.18 -95.8851 1813.66 -86.6912C1782.46 -61.7854 1714 149.675 1532.15 275.93C1350.3 402.184 1425.89 354.291 1364.55 382.387C1194.12 460.452 994.028 498.339 975.372 541.217C966.135 562.449 1085.77 497.795 1085.77 523.081C1085.77 534.778 1075.41 617.463 892.408 713.15C709.406 808.838 666.688 805.861 488.388 835.439C378.307 853.701 148.692 777.814 125.285 777.814Z" fill="#302F36"/>
<path d="M2149.21 57.4294C2148.1 54.7603 2132.56 46.7635 2113.12 50.9405C2104.18 52.8632 2094.32 64.2729 2084.81 67.6376C2078.03 70.0359 2070.35 98.6926 2062.03 90.831C2053.72 82.9695 2076.69 74.7868 2084.81 61.81C2103.16 32.4769 2128.84 -15.467 2084.81 10.1455C2021.3 47.0888 2048.15 -19.3922 2021.3 -3.92204C1978.01 21.02 2000.64 -11.5128 1987.21 -3.92203C1859.94 67.9848 1705.73 213.602 1714.7 200.347C1723.57 187.256 1959.98 -45.6489 2113.12 -153.255C2273.56 -265.981 2350.3 -252.951 2324.68 -235.865C2274.63 -202.469 2334.24 -84.7637 2324.68 -50.4911C2324.68 -50.4911 2300.96 62.6892 2177.26 81.5953C2148.47 85.9961 2151.39 62.6892 2149.21 57.4294Z" fill="white"/>
<path d="M1997.9 96.8694C2002.16 106.027 2021.46 77.7226 2035.66 67.3245C2049.85 56.9264 2070.42 47.0689 2062.03 39.1583C2053.65 31.2477 2041.37 53.8193 2029.05 64.2173C2016.73 74.6154 1993.63 87.7117 1997.9 96.8694Z" fill="white"/>
<path d="M216.771 829.997C211.019 838.256 244.546 841.83 260.305 849.504C276.064 857.178 294.455 870.83 297.142 859.479C299.83 848.129 274.606 848.075 259.754 842.077C244.902 836.078 222.524 821.738 216.771 829.997Z" fill="#9C780A"/>
<path d="M-16.7928 159.232C-27.2516 169.394 17.6588 182.935 38.0937 198.38C58.5286 213.825 102.505 257.115 107.951 240.914C113.397 224.714 60.9373 201.505 41.3436 188.712C21.7499 175.919 -6.33397 149.069 -16.7928 159.232Z" fill="#9C780A"/>
<path d="M3206.51 87.2157C3228.82 79.1273 3156.19 82.8245 3131.61 89.372C3107.03 95.9194 3051.21 116.068 3052.94 126.107C3054.67 136.147 3111.27 106.779 3133.31 99.2325C3155.35 91.6858 3184.19 95.3041 3206.51 87.2157Z" fill="#9C780A"/>
<path d="M16.7684 -128.653C99.5169 67.4403 224.841 158.574 392.74 144.748C426.157 141.996 423.165 44.4104 450.955 44.8127C497.62 45.4882 551.594 119.707 580.856 104.055C608.055 89.5067 636.019 -5.58259 664.9 -51.5578C677.691 -71.9185 697.273 -87.7844 723.647 -99.1556L777.124 -74.7672C734.773 -60.712 707.091 -46.1657 694.079 -31.1284C647.65 22.5266 619.71 112.412 585.643 130.789C558.907 145.21 503.817 64.431 456.607 71.9405C432.38 75.7942 439.998 158.058 397.121 168.668C370.299 175.305 301.085 157.043 262.641 143.503C204.816 123.138 101.476 39.0935 -47.3785 -108.631L16.7684 -128.653Z" fill="white"/>
<path fill-rule="evenodd" clip-rule="evenodd" d="M3962.14 -116.028C4011.19 -120.844 3988.95 -77.8578 4048.03 -84.9391C4132.53 -95.0689 4336.17 -99.3226 4375.27 -84.9391C4400.72 -75.5732 4456.13 -49.6442 4541.49 -7.152C4542.78 -6.50668 4543.53 -5.08285 4543.34 -3.61949C4543.09 -1.74527 4541.41 -0.428816 4539.58 -0.679096L4534.31 -1.40002C4360.86 -25.0676 4255.87 -36.5467 4219.32 -35.837C4114.63 -33.8042 4236.22 41.3996 4199.73 34.4157C4155.63 25.9766 4047.88 -13.7824 3988.52 -12.6295C3896.37 -10.8399 3637.2 188.254 3562.93 188.254C3549.11 188.254 3653.32 75.0483 3637.5 79.0649C3611.14 85.7563 3584.03 94.3922 3562.93 92.8804C3477.38 86.7517 3435.32 65.3281 3388.45 38.3909C3374.59 30.4299 3313.79 11.6202 3198.34 30.809C3125.65 42.8911 2973.19 79.4986 2740.95 140.632C2739.29 141.069 2737.58 140.148 2736.99 138.501C2736.35 136.727 2737.23 134.758 2738.96 134.104C2979.09 43.3495 3135.75 -13.2974 3208.93 -35.837C3356.78 -81.3703 3383.77 -71.9083 3416.67 -56.9642C3449.19 -42.2001 3519.9 -5.50875 3562.93 2.14031C3597.6 8.30305 3737.3 -84.9391 3775.26 -84.9391C3786.11 -84.9391 3705.87 8.21673 3719.28 3.10641C3790.06 -23.8579 3890.92 -109.035 3962.14 -116.028ZM3589.14 53.1892C3576.32 53.1892 3547.11 60.543 3547.11 68.8721C3547.11 77.2012 3579.16 77.2012 3589.25 68.8721C3595.43 63.7626 3619.51 59.3542 3629.2 53.0694C3635.31 49.1093 3647.05 42.7123 3646.57 40.5758C3645.32 35.0487 3601.96 53.1892 3589.14 53.1892Z" fill="#735900"/>
<g opacity="0.9">
<path opacity="0.9" fill-rule="evenodd" clip-rule="evenodd" d="M4725.76 135.279C4822.36 195.631 4878.82 277.579 4923.3 392.642C4948.01 456.576 4978.31 513.957 4978.31 586.888C4978.31 646.501 4997.42 701.885 4978.31 749.419C4956.31 804.134 4893.54 849.714 4855.73 900.31C4791.74 985.921 4749.81 1063.61 4651.6 1108.47C4595.84 1133.93 4493.8 1148.64 4429.39 1148.64C4392.01 1148.64 4340.48 1115.75 4305.19 1108.47C4197.43 1086.21 4088.05 1051.59 4016.38 981.138C3992.77 957.929 3976.42 923.803 3963.02 887.509C4030.31 972.015 4120.46 1034.32 4222.99 1063C4289.7 1099.84 4365.15 1120.61 4445.05 1120.61C4716.86 1120.61 4937.21 880.308 4937.21 583.884C4937.21 407.144 4858.88 250.358 4738.01 152.561C4732.47 145.652 4726.77 138.892 4720.93 132.288C4722.55 133.284 4724.16 134.28 4725.76 135.279ZM4814.2 278.236C4872.96 363.145 4907.86 468.993 4907.86 583.884C4907.86 864.128 4700.22 1090.57 4445.05 1090.57C4413.56 1090.57 4382.8 1087.12 4353.07 1080.55C4437 1080.21 4516.18 1057.94 4586.04 1018.72C4756.28 944.515 4876.55 762.995 4876.55 550.839C4876.55 487.342 4865.78 426.588 4846.11 370.635C4838.02 338.9 4827.43 308.3 4814.58 279.102L4814.2 278.236ZM4090.4 909.423C4160.65 985.013 4253.02 1036.22 4355.96 1050.48L4351.12 1050.51C4310.75 1050.51 4271.52 1045.1 4234.01 1034.91C4180.35 1004.76 4132.76 963.461 4093.79 913.795L4090.4 909.423ZM4376.74 990.306C4407.88 990.306 4471.27 1013.69 4515.27 1019.28C4499.7 1025.43 4483.76 1030.72 4467.5 1035.11C4450.19 1037.35 4432.58 1038.5 4414.72 1038.5C4319.26 1038.5 4230.74 1005.7 4158.14 949.829C4220.72 975.258 4306.68 990.306 4376.74 990.306ZM4021.56 286.428C3978.02 363.281 3952.89 453.859 3952.89 550.839C3952.89 556.31 3952.97 561.761 3953.12 567.19L3952.95 575.008L3952.89 583.884C3952.89 743.708 4016.94 887.216 4118.59 985.54C4035.52 935.73 3967.22 860.045 3922.81 768.344C3900.87 708.661 3880.48 660.01 3880.48 586.888C3880.48 528.977 3914.79 474.589 3930.69 422.025C3947.32 367.024 3981.56 325.008 4020.29 287.664L4021.56 286.428ZM4445.05 77.2012C4496.69 77.2012 4546.39 86.476 4592.81 103.594C4664.41 137.707 4726.26 191.761 4772.45 259.361C4796.05 304.744 4813.7 354.323 4824.22 406.837C4790.22 332.636 4737.35 279.65 4671.24 231.409C4603.23 181.775 4521.21 135.279 4431.35 135.279C4357.24 135.279 4289.09 199.774 4231.18 231.409C4139.25 281.628 4071.55 320.421 4034.77 427.971C4018.86 474.482 3992.02 532.817 3992.02 584.885C3992.02 692.134 4017.81 723.178 4055.91 790.162C4066.53 808.821 4073.25 846.312 4083.94 878.091C4053.48 841.358 4028.08 799.518 4008.93 753.884C3991.65 700.769 3982.24 643.546 3982.24 583.884C3982.24 303.639 4189.88 77.2012 4445.05 77.2012ZM4840.7 696.351C4823.43 756.809 4795.68 812.198 4759.79 859.991C4792.73 812.936 4818.98 760.025 4837 702.94C4838.24 700.752 4839.47 698.563 4840.68 696.364L4840.7 696.351ZM4343.76 53.0693C4280.95 63.6329 4222.31 87.999 4170.54 123.238C4180.3 110.46 4191.92 99.1983 4208.02 91.2201C4248.63 71.09 4294.46 59.2795 4342.75 53.2103L4343.76 53.0693Z" fill="#917200"/>
</g>
<g opacity="0.9">
<path opacity="0.9" fill-rule="evenodd" clip-rule="evenodd" d="M652.118 -597.385C760.834 -529.489 824.374 -437.297 874.427 -307.852C902.238 -235.925 936.331 -171.371 936.331 -89.3245C936.331 -22.2593 957.834 40.0479 936.331 93.5238C911.579 155.078 840.936 206.356 798.379 263.276C726.371 359.589 679.189 446.988 568.655 497.452C505.911 526.098 391.072 542.653 318.595 542.653C276.52 542.653 218.532 505.652 178.82 497.452C57.5436 472.409 -65.5507 433.462 -146.204 354.208C-172.775 328.098 -191.17 289.706 -206.251 248.874C-130.524 343.945 -29.0679 414.035 86.311 446.303C161.388 487.753 246.298 511.111 336.213 511.111C642.107 511.111 890.083 240.774 890.083 -92.7041C890.083 -291.536 801.928 -467.921 665.903 -577.942C659.666 -585.716 653.253 -593.323 646.675 -600.754C648.499 -599.631 650.316 -598.51 652.118 -597.385ZM751.636 -436.568C817.773 -341.044 857.049 -221.961 857.049 -92.7041C857.049 222.572 623.377 477.315 336.213 477.315C300.782 477.315 266.166 473.437 232.702 466.046C327.158 465.661 416.264 440.605 494.883 396.487C686.465 313.003 821.813 108.794 821.813 -129.879C821.813 -201.319 809.687 -269.671 787.556 -332.622C778.454 -368.319 766.535 -402.74 752.079 -435.585L751.636 -436.568ZM-62.9095 273.525C16.1592 358.566 120.107 416.181 235.955 432.218L230.504 432.254C185.079 432.254 140.934 426.17 98.7204 414.703C38.3321 380.781 -15.2334 334.322 -59.0863 278.447L-62.9095 273.525ZM259.34 364.522C294.385 364.522 365.721 390.834 415.24 397.114C397.718 404.034 379.777 409.984 361.474 414.923C341.995 417.445 322.173 418.736 302.078 418.736C194.648 418.736 95.035 381.842 13.3295 318.986C83.7546 347.593 180.498 364.522 259.34 364.522ZM-140.364 -427.348C-189.374 -340.887 -217.657 -238.984 -217.657 -129.879C-217.657 -123.727 -217.567 -117.598 -217.389 -111.493L-217.583 -102.689L-217.657 -92.7041C-217.657 87.0991 -145.568 248.547 -31.1798 359.162C-124.665 303.124 -201.534 217.974 -251.51 114.806L-251.496 114.795C-276.192 47.6669 -299.141 -7.06497 -299.141 -89.3245C-299.141 -154.474 -260.533 -215.661 -242.639 -274.795C-223.916 -336.672 -185.392 -383.94 -141.807 -425.952L-140.364 -427.348ZM336.213 -662.723C394.33 -662.723 450.256 -652.289 502.498 -633.031C583.078 -594.657 652.679 -533.848 704.66 -457.801C731.221 -406.743 751.081 -350.963 762.926 -291.881C724.663 -375.358 665.159 -434.968 590.764 -489.239C514.222 -545.077 421.917 -597.385 320.797 -597.385C237.396 -597.385 160.698 -524.828 95.5293 -489.239C-7.92389 -432.742 -84.1113 -389.1 -125.506 -268.107C-143.408 -215.781 -173.612 -150.155 -173.612 -91.5775C-173.612 29.0777 -144.59 64.0025 -101.711 139.359C-89.7664 160.352 -82.1994 202.53 -70.1709 238.281C-104.451 196.952 -133.039 149.878 -154.588 98.5343C-174.034 38.7817 -184.623 -25.5896 -184.623 -92.7041C-184.623 -407.98 49.0489 -662.723 336.213 -662.723ZM781.465 33.82C762.03 101.838 730.805 164.152 690.412 217.92C727.483 164.983 757.027 105.456 777.305 41.2339C778.702 38.7731 780.088 36.3106 781.445 33.8363L781.465 33.82ZM222.244 -689.875C151.549 -677.994 85.5554 -650.58 27.2865 -610.933C38.2684 -625.309 51.3522 -637.977 69.4634 -646.952C115.163 -669.598 166.746 -682.885 221.082 -689.713L222.244 -689.875Z" fill="#917200"/>
</g>
<path d="M4057.63 155.777C4064.09 155.777 4069.32 151.179 4069.32 145.506C4069.32 139.834 4064.09 135.235 4057.63 135.235C4051.16 135.235 4045.93 139.834 4045.93 145.506C4045.93 151.179 4051.16 155.777 4057.63 155.777Z" fill="#9C780A"/>
<path d="M4254.82 325.25C4261.28 325.25 4266.52 320.651 4266.52 314.979C4266.52 309.306 4261.28 304.708 4254.82 304.708C4248.36 304.708 4243.12 309.306 4243.12 314.979C4243.12 320.651 4248.36 325.25 4254.82 325.25Z" fill="#9C780A"/>
<path fill-rule="evenodd" clip-rule="evenodd" d="M3786.9 132.21C3793.19 130.722 3819.29 109.289 3818.05 103.762C3816.8 98.2351 3788.68 110.706 3782.39 112.195C3776.09 113.684 3748.75 135.411 3749.99 140.938C3751.24 146.465 3780.6 133.699 3786.9 132.21Z" fill="#9C780A"/>
<path d="M4162.91 338.944C4165.68 338.944 4167.92 337.028 4167.92 334.665C4167.92 332.301 4165.68 330.385 4162.91 330.385C4160.14 330.385 4157.9 332.301 4157.9 334.665C4157.9 337.028 4160.14 338.944 4162.91 338.944Z" fill="#9C780A"/>
<path d="M4000.8 161.157C4003.57 161.157 4005.82 159.187 4005.82 156.755C4005.82 154.324 4003.57 152.354 4000.8 152.354C3998.04 152.354 3995.79 154.324 3995.79 156.755C3995.79 159.187 3998.04 161.157 4000.8 161.157Z" fill="#9C780A"/>
<path d="M3917.25 126.921C3920.01 126.921 3922.26 124.95 3922.26 122.519C3922.26 120.088 3920.01 118.117 3917.25 118.117C3914.48 118.117 3912.23 120.088 3912.23 122.519C3912.23 124.95 3914.48 126.921 3917.25 126.921Z" fill="#9C780A"/>
<path d="M3871.01 219.36C3875.93 219.36 3879.92 215.856 3879.92 211.535C3879.92 207.213 3875.93 203.709 3871.01 203.709C3866.09 203.709 3862.1 207.213 3862.1 211.535C3862.1 215.856 3866.09 219.36 3871.01 219.36Z" fill="#9C780A"/>
<path d="M688.526 267.047C694.987 267.047 700.224 262.448 700.224 256.776C700.224 251.103 694.987 246.505 688.526 246.505C682.065 246.505 676.828 251.103 676.828 256.776C676.828 262.448 682.065 267.047 688.526 267.047Z" fill="#9C780A"/>
<path d="M648.418 238.191C651.187 238.191 653.431 236.22 653.431 233.789C653.431 231.357 651.187 229.387 648.418 229.387C645.649 229.387 643.404 231.357 643.404 233.789C643.404 236.22 645.649 238.191 648.418 238.191Z" fill="#9C780A"/>
<path d="M609.98 296.393C612.749 296.393 614.994 294.422 614.994 291.991C614.994 289.56 612.749 287.589 609.98 287.589C607.211 287.589 604.967 289.56 604.967 291.991C604.967 294.422 607.211 296.393 609.98 296.393Z" fill="#9C780A"/>
<path d="M526.422 262.156C529.191 262.156 531.435 260.185 531.435 257.754C531.435 255.323 529.191 253.353 526.422 253.353C523.653 253.353 521.408 255.323 521.408 257.754C521.408 260.185 523.653 262.156 526.422 262.156Z" fill="#9C780A"/>
<path d="M480.186 354.596C485.108 354.596 489.099 351.092 489.099 346.77C489.099 342.448 485.108 338.944 480.186 338.944C475.263 338.944 471.273 342.448 471.273 346.77C471.273 351.092 475.263 354.596 480.186 354.596Z" fill="#9C780A"/>
<path d="M2800.2 607.948C2803.51 607.948 2806.19 605.594 2806.19 602.69C2806.19 599.786 2803.51 597.432 2800.2 597.432C2796.89 597.432 2794.21 599.786 2794.21 602.69C2794.21 605.594 2796.89 607.948 2800.2 607.948Z" fill="#9C780A"/>
<path d="M2919.13 560.016C2923.52 560.016 2927.07 556.896 2927.07 553.047C2927.07 549.198 2923.52 546.077 2919.13 546.077C2914.75 546.077 2911.19 549.198 2911.19 553.047C2911.19 556.896 2914.75 560.016 2919.13 560.016Z" fill="#9C780A"/>
<path fill-rule="evenodd" clip-rule="evenodd" d="M224.734 599.145C346.704 599.145 419.001 597.416 504.323 589.944C672.481 575.219 789.498 541.804 838.681 483.333C914.395 393.323 1009.95 96.6243 1008.07 -38.931C1008.05 -40.9947 1001.93 -51.4686 986.318 -76.7512C986.309 -76.7655 986.309 -76.7655 986.3 -76.7798C968.857 -105.03 964.009 -113.324 964.009 -116.405C964.009 -211.277 939.777 -250.898 888.426 -252.478C866.193 -253.162 838.803 -247.05 801.37 -233.998C786.44 -228.792 770.501 -222.734 747.936 -213.804C743.778 -212.159 739.5 -210.459 733.682 -208.141C735.794 -208.982 722.523 -203.694 719.094 -202.33C707.089 -197.554 698.009 -193.972 688.963 -190.459C639.551 -171.272 600.336 -157.923 560.573 -147.651C511.184 -134.893 464.715 -128.167 419.414 -128.167C271.968 -128.167 108.653 -99.0913 -17.6659 -50.2852C-153.309 2.12311 -233.088 71.4626 -233.088 145.506C-233.088 230.102 -187.912 343.161 -114.323 431.773C-26.9726 536.954 90.0029 599.145 224.734 599.145Z" stroke="#846802" stroke-width="2"/>
<path fill-rule="evenodd" clip-rule="evenodd" d="M355.88 457.95C477.85 457.95 550.147 456.22 635.469 448.749C803.627 434.023 920.644 400.609 969.827 342.138C1045.54 252.128 1141.1 -44.571 1139.22 -180.126C1139.19 -182.19 1133.08 -192.664 1117.46 -217.947C1117.46 -217.961 1117.46 -217.961 1117.45 -217.975C1100 -246.225 1095.16 -254.519 1095.16 -257.601C1095.16 -352.472 1070.92 -392.093 1019.57 -393.673C997.339 -394.357 969.949 -388.246 932.516 -375.194C917.586 -369.988 901.648 -363.929 879.082 -355C874.924 -353.354 870.646 -351.654 864.828 -349.336C866.94 -350.178 853.669 -344.89 850.24 -343.525C838.235 -338.749 829.155 -335.167 820.109 -331.654C770.697 -312.467 731.482 -299.118 691.718 -288.846C642.33 -276.088 595.861 -269.363 550.56 -269.363C403.114 -269.363 239.799 -240.287 113.48 -191.481C-22.1627 -139.072 -101.942 -69.7327 -101.942 4.31093C-101.942 88.9062 -56.7663 201.965 16.8234 290.578C104.173 395.759 221.149 457.95 355.88 457.95Z" stroke="#846802" stroke-width="2"/>
<path fill-rule="evenodd" clip-rule="evenodd" d="M4099.32 1047.65C4221.29 1047.65 4293.59 1045.92 4378.91 1038.45C4547.07 1023.72 4664.09 990.306 4713.27 931.835C4788.98 841.825 4884.54 545.126 4882.66 409.571C4882.63 407.507 4876.52 397.033 4860.91 371.751C4860.9 371.737 4860.9 371.736 4860.89 371.722C4843.45 343.472 4838.6 335.178 4838.6 332.097C4838.6 237.225 4814.37 197.604 4763.01 196.024C4740.78 195.34 4713.39 201.452 4675.96 214.504C4661.03 219.71 4645.09 225.768 4622.52 234.698C4618.37 236.343 4614.09 238.043 4608.27 240.361C4610.38 239.52 4597.11 244.808 4593.68 246.172C4581.68 250.948 4572.6 254.53 4563.55 258.043C4514.14 277.23 4474.92 290.579 4435.16 300.851C4385.77 313.609 4339.3 320.334 4294 320.334C4146.56 320.334 3983.24 349.411 3856.92 398.217C3721.28 450.625 3641.5 519.965 3641.5 594.008C3641.5 678.604 3686.68 791.663 3760.27 880.275C3847.62 985.456 3964.59 1047.65 4099.32 1047.65Z" stroke="#846802" stroke-width="2"/>
<path fill-rule="evenodd" clip-rule="evenodd" d="M4230.47 906.452C4352.44 906.452 4424.73 904.723 4510.06 897.251C4678.21 882.526 4795.23 849.111 4844.41 790.64C4920.13 700.631 5015.69 403.931 5013.81 268.376C5013.78 266.312 5007.66 255.839 4992.05 230.556C4992.04 230.542 4992.04 230.542 4992.03 230.527C4974.59 202.278 4969.74 193.983 4969.74 190.902C4969.74 96.03 4945.51 56.4094 4894.16 54.8295C4871.93 54.1454 4844.54 60.2569 4807.1 73.3089C4792.17 78.5149 4776.23 84.5735 4753.67 93.503C4749.51 95.1485 4745.23 96.8485 4739.42 99.1661C4741.53 98.3249 4728.26 103.613 4724.83 104.977C4712.82 109.754 4703.74 113.335 4694.7 116.848C4645.28 136.035 4606.07 149.384 4566.31 159.656C4516.92 172.414 4470.45 179.14 4425.15 179.14C4277.7 179.14 4114.39 208.216 3988.07 257.022C3852.42 309.43 3772.65 378.77 3772.65 452.813C3772.65 537.409 3817.82 650.468 3891.41 739.08C3978.76 844.261 4095.74 906.452 4230.47 906.452Z" stroke="#846802" stroke-width="2"/>
<path d="M3320.22 60.159C3324.6 60.159 3328.15 57.0386 3328.15 53.1894C3328.15 49.3402 3324.6 46.2197 3320.22 46.2197C3315.83 46.2197 3312.28 49.3402 3312.28 53.1894C3312.28 57.0386 3315.83 60.159 3320.22 60.159Z" fill="#9C780A"/>
</g>
<defs>
<clipPath id="clip0">
<rect width="4320" height="1200" fill="white"/>
</clipPath>
</defs>
</svg>
