<?xml version="1.0" encoding="UTF-8" standalone="yes"?><svg xmlns="http://www.w3.org/2000/svg" viewBox="0 0 553.65 112.94"><defs><style>.cls-1{fill:#f8cb4c}.cls-2{fill:#c6a23d}.cls-3{fill:#da324e}.cls-4{fill:#5457b8}.cls-5{fill:#434693}.cls-6{fill:#fdfdfd}.cls-7{fill:#fdfefe}.cls-8{fill:#aa1f36}.cls-9{fill:#fbfbfb}.cls-10{fill:#fefefe}</style></defs><g id="Layer_2" data-name="Layer 2" style=""><g id="Layer_1-2" data-name="Layer 1" style=""><path d="M104.86,69.81c-9.83,0-19.66.27-29.48,0a26.86,26.86,0,0,1-19-8.55c-5.67-5.85-11.14-11.89-16.71-17.84-.5-.53-1-1-.49-1.84,3.7-6.52,7.37-13.05,11-19.52.89,0,1.25.62,1.71,1q25.93,22.58,51.84,45.18c.24.21.45.45.67.68S105.1,69.33,104.86,69.81Z" class="cls-1" style=""/><path d="M326.28,38.05c7.77-5.53,12.84-5.34,19,.59.65.06.92-.52,1.3-.88,4-4,8.89-4.45,14-2.82s7.48,5.45,8.23,10.5a55.21,55.21,0,0,1,.29,8.13c0,4.71,0,9.42,0,14.13,0,2.09-.06,2.13-2.16,2.16-1.68,0-3.36,0-5,0s-1.85-.08-1.86-1.94c0-3.75,0-7.51,0-11.26,0-2.23,0-4.47,0-6.7a15.17,15.17,0,0,0-.24-2.61c-.6-3.1-2.24-4.64-5.07-4.82-3.32-.22-5.54,1.16-6.55,4a11.87,11.87,0,0,0-.56,4q0,8.38,0,16.76c0,2.5,0,2.5-2.54,2.52-1.44,0-2.88,0-4.32,0-2.11,0-2.23-.17-2.22-2.4,0-5.11,0-10.22,0-15.33,0-1.35,0-2.72-.07-4.07-.24-3.11-2-5.17-4.7-5.52-3.48-.46-6.12,1.08-7.16,4.21a12.09,12.09,0,0,0-.56,4c0,5.51,0,11,0,16.53,0,2.56,0,2.57-2.67,2.57-1.6,0-3.2,0-4.79,0-1.09,0-1.65-.47-1.63-1.57,0-.48,0-1,0-1.44v-29c0-2.86,0-2.86,3-2.86,1.28,0,2.56,0,3.84,0,1.62-.06,2.63.24,2.31,2.35A2.37,2.37,0,0,0,326.28,38.05Z" class="cls-1" style=""/><path d="M104.86,69.81c-.14-.29-.28-.58-.43-.86,1-.69.07-1.31-.17-1.82C101.92,62.06,99.52,57,97.12,52c-.9-1.89-1.26-1.81.86-3.12q10.9-6.7,21.79-13.46c.27-.17.56-.31.82-.5.75-.57,1.26-.38,1.71.42,1.17,2.09,2.38,4.15,3.57,6.23,2.18,3.8,4.32,7.63,6.56,11.4a1.86,1.86,0,0,1-.35,2.67c-2.13,2.15-4,4.54-6.27,6.58C119.91,67.61,113,70.45,104.86,69.81Z" class="cls-2" style=""/><path d="M488.92,38.79a12,12,0,0,1,9.7-4.53c7.9-.08,13.28,4.75,13.57,12.67.24,6.94.09,13.89.11,20.84,0,.15,0,.31,0,.47,0,.93-.48,1.27-1.34,1.27h-6.23c-1,0-1.42-.58-1.44-1.51,0-.72,0-1.44,0-2.15,0-5.43,0-10.86,0-16.29,0-4.19-2.07-6.62-5.68-7-4.48-.48-7.43,1.5-8.42,5.61a14.29,14.29,0,0,0-.34,3.32q0,7.67,0,15.33c0,2.69,0,2.7-2.59,2.71-1.6,0-3.2,0-4.8,0-1.1,0-1.62-.48-1.63-1.56,0-.48,0-1,0-1.44q0-14.25,0-28.5c0-.48,0-1,0-1.43a1.22,1.22,0,0,1,1.26-1.4,54,54,0,0,1,6.23-.08c1.07,0,1.58.59,1.53,1.69C488.79,37.26,488.86,37.73,488.92,38.79Z" class="cls-3" style=""/><path d="M423.44,39.91c1.69-3.18,4.48-4.71,7.85-5.34,1.94-.36,2.25-.11,2.28,1.85s0,4.16,0,6.23c0,1.65-.07,1.64-1.8,1.76a16.69,16.69,0,0,0-2.14.19c-4.16.88-6.54,3.62-6.63,7.91-.1,5,0,10.06-.05,15.09,0,2.22,0,2.23-2.29,2.26-1.6,0-3.2,0-4.8,0-1.91,0-2-.08-2-2.09s0-4,0-6q0-12,0-24c0-.48,0-1,0-1.44,0-.93.48-1.3,1.32-1.31h6.48c.88,0,1.29.51,1.28,1.38v3.3Z" class="cls-1" style=""/><path d="M0,.35A3.36,3.36,0,0,1,.79.09c5.9.06,11.81-.4,17.69.33a27.34,27.34,0,0,1,8.83,2.84,51.22,51.22,0,0,1,12.16,9c-.24.76-.82.68-1.22.78-6.82,1.58-13.66,3.11-20.48,4.73a2.26,2.26,0,0,1-2.53-.66c-5-5.4-10-10.75-15-16.13A2.86,2.86,0,0,1,0,.35Z" class="cls-4" style=""/><path d="M162.71,22c-.82,1-1.62,1.94-2.47,2.87q-3.39,3.7-6.82,7.38a2.09,2.09,0,0,1-2.24.93c-6.29-1.47-12.6-2.83-18.9-4.25a11.25,11.25,0,0,1-1.36-.51c5.46-3.72,10.85-6.86,17.46-6.91,4.7,0,9.4,0,14.1,0Z" class="cls-5" style=""/><path d="M298.93,100.44a12.56,12.56,0,0,0-7.51-1.88c-.4,0-.8,0-1.19.09-.82.11-1.75.34-1.75,1.28s1,.93,1.65,1c1.67.23,3.34.4,5,.56a10.51,10.51,0,0,1,3.69,1,4.67,4.67,0,0,1,2.85,4.34,4.82,4.82,0,0,1-2.51,4.57,11.35,11.35,0,0,1-4.78,1.43c-4.1.43-7.94-.22-11.32-2.88a17.29,17.29,0,0,1,2.14-3.59,13.6,13.6,0,0,0,8.65,2.41,7.49,7.49,0,0,0,2.1-.44c.66-.26,1.13-.66,1.06-1.39s-.71-.82-1.25-.89c-1.82-.24-3.65-.47-5.48-.63a13.31,13.31,0,0,1-2.81-.55c-2.06-.64-3.51-1.84-3.69-4.18-.19-2.49.64-4.29,2.91-5.24,4.74-2,9.36-1.4,13.77,1.11.59.33.82.73.36,1.34A13.56,13.56,0,0,1,298.93,100.44Z" class="cls-6" style=""/><path d="M354.74,102.35c-.69.45-.47,1-.47,1.41,0,2.08,0,4.15,0,6.23,0,2.86.11,2.48-2.64,2.51a3.84,3.84,0,0,0-.48,0c-1.08.14-1.59-.19-1.57-1.42.05-5,0-10.06,0-15.09,0-.94.34-1.18,1.24-1.26a5,5,0,0,1,5,2c1.89,2.47,4.08,4.7,6.16,7a2.24,2.24,0,0,0,1.5,1c0-2.17,0-4.21,0-6.25,0-.88,0-1.76,0-2.64s.39-1.29,1.28-1.19h.24c3.74,0,3.07-.43,3.1,2.95.05,4.39,0,8.78,0,13.17,0,1.22-.35,1.63-1.63,1.67a4.79,4.79,0,0,1-4.33-1.83C359.77,107.82,357.2,105.12,354.74,102.35Z" class="cls-7" style=""/><path d="M21.25,23.18,45.1,17.7c.35.88-.11,1.31-.36,1.77q-4.66,8.34-9.36,16.67c-.84,1.49-1,1.54-2,.47-3.89-4.12-7.73-8.28-11.57-12.43A6.1,6.1,0,0,1,21.25,23.18Z" class="cls-3" style=""/><path d="M220.53,99.33l-1.66,1c-1.71,1-1.71,1-3.15-.28A6.36,6.36,0,0,0,209,99c-2.13.76-3.16,2.94-2.84,5.49a4.81,4.81,0,0,0,4.23,4.23A6.73,6.73,0,0,0,216.9,106a17,17,0,0,1,3.53,2,8.11,8.11,0,0,1-5.2,4.43,12.2,12.2,0,0,1-6.15.34c-5.1-1-8-4.81-7.66-9.92a9.17,9.17,0,0,1,8.88-8.42C214.55,94.1,218.16,95.22,220.53,99.33Z" class="cls-6" style=""/><path d="M129.25,34.61a16.23,16.23,0,0,1,4.14.8c4.2.89,8.38,1.85,12.56,2.83,1.36.31,1.48.68.56,1.7-2.62,2.89-5.29,5.72-7.93,8.59-.68.74-1.24.92-1.82-.11q-3.78-6.64-7.57-13.26C129.13,35.05,129.22,34.87,129.25,34.61Z" class="cls-8" style=""/><path d="M323.16,103.46c0-2.46,0-4.93,0-7.39,0-1.07.4-1.35,1.39-1.33,4.14.07,3.32-.37,3.37,3.19.05,4.21,0,8.43,0,12.64,0,1.89,0,1.93-1.77,1.92-3.46,0-2.92.41-3-2.83C323.14,107.6,323.16,105.53,323.16,103.46Z" class="cls-9" style=""/><path d="M548.65,35.07c-3.58,0-3.58,0-3.92,3.44-.27,0-.37.05-.42,0a4.32,4.32,0,0,1-.78-.54c-4-4-9-4.46-14-3.2-6.9,1.71-11.16,6.4-12.57,13.34a17.2,17.2,0,0,0,5.93,17.45c6.2,5.34,16.61,5.09,21-.16a.77.77,0,0,1,1-.25c0,1.06,0,2.23,0,3.39-.22,4.17-2.54,6.85-6.66,7.57s-8,.07-10.76-3.49a1.34,1.34,0,0,0-2-.39c-1.65,1-3.34,1.89-5,2.89-1.27.78-1.29,1-.41,2.25a13.87,13.87,0,0,0,5,4.4,22.49,22.49,0,0,0,14,2.27,19.56,19.56,0,0,0,5.28-1.51c6-2.65,9.26-7.21,9.33-13.79.1-9.58.06-19.16,0-28.74C553.59,34.49,554.49,35.14,548.65,35.07ZM535.08,61.25c-5.61,0-9.54-3.92-9.52-9.46s3.88-9.28,9.64-9.27,9.68,3.76,9.7,9.26S540.81,61.27,535.08,61.25Z" class="cls-3" style=""/><path d="M312.47,51.2a17.24,17.24,0,0,0-10.9-15.37C295,33,288.79,34,283.16,38.46a32.11,32.11,0,0,0-6.37,7.09,54.45,54.45,0,0,0,6.61,6.54c1.87-1.85,3.68-3.77,5.65-5.52a7.87,7.87,0,0,1,12.48,2.56A7.76,7.76,0,0,1,294.06,60a9.92,9.92,0,0,0-2.61-.17h0a16.28,16.28,0,0,0,8.87,5.26c2,.49,4,.24,5.93.68A16.86,16.86,0,0,0,312.47,51.2Z" class="cls-1" style=""/><path d="M303.28,64.67a17.55,17.55,0,0,1-11.08-5.08c-2.8-2.6-5.73-5.06-8.34-7.86-.74-.73-1.41-1.51-2.19-2.18-1.61-1.36-2.65-3.41-4.88-4a25,25,0,0,1-3.44-3.3c-1.39-1.33-2.71-2.72-4.16-4a17.72,17.72,0,0,0-20.57-1.51,18.53,18.53,0,0,0-8.4,19.37A18.13,18.13,0,0,0,260.5,70a21.72,21.72,0,0,0,13.16-7.66c.82-.93,1.62-1.88,2.53-3,1.33,1.61,2.5,3,3.64,4.43,6.65,8.31,19.75,8.17,26.42,1.94C305.58,64.6,304.35,64.76,303.28,64.67ZM263,58.21a7.82,7.82,0,0,1-9.53.4,7.74,7.74,0,0,1-2.89-8.87,7.76,7.76,0,0,1,12.13-3.64,15.7,15.7,0,0,1,1.78,1.58c1.52,1.5,3,3,4.49,4.49C266.88,54.28,265.05,56.38,263,58.21Z" class="cls-10" style=""/><path d="M231.9,39.76a16,16,0,0,0-21.83-2.39,2.83,2.83,0,0,1-1.75.9V35.54c0-4,0-8,0-12,0-1.89-.17-2-2.07-2s-3.68,0-5.51,0c-1.09,0-1.66.43-1.67,1.53V66.85c0,.32,0,.64,0,1,.06,1.91.2,2.06,2,2.1,1.28,0,2.55,0,3.83,0,3.1,0,3.1,0,3.53-3.11,0-.07.08-.12.14-.19.7,0,1.07.62,1.57,1a15.84,15.84,0,0,0,21-1.7A19.43,19.43,0,0,0,231.9,39.76ZM218,61.62a9.16,9.16,0,1,1,9.33-9.17A9.17,9.17,0,0,1,218,61.62Z" class="cls-10" style=""/><path d="M473.39,67.79c0-.48,0-1,0-1.44V38.09c0-.32,0-.64,0-1-.08-1.84-.21-2-2.13-2.06-1.12,0-2.24,0-3.36,0-3.35,0-3.35,0-3.74,3.59-.49-.35-.75-.52-1-.72a15.55,15.55,0,0,0-17-2.16c-10.78,5.28-12.42,19.19-6.58,27.6,6.11,8.81,18.6,9.13,24.08,3.05.08-.08.29,0,.44,0,.32.31.21.73.25,1.1.18,1.94.22,2,2.12,2s3.52,0,5.27,0C473,69.56,473.48,69,473.39,67.79Zm-9-15.47a9.6,9.6,0,1,1-19.19.08,9.6,9.6,0,1,1,19.19-.08Z" class="cls-3" style=""/><path d="M393.56,34.18c-7.63-.68-15,3.08-18.29,9.76C371.78,51,373,60,378.35,65.33c4.78,4.83,10.75,6,17.23,5.27a16.54,16.54,0,0,0,11.2-5.84c1-1.15,1-1.4-.33-2.18s-2.53-1.39-3.73-2.17a2.75,2.75,0,0,0-3.79.28c-3.26,2.69-9.43,2.69-12.87.25a7.84,7.84,0,0,1-2.5-2.86c-.79-1.54-.57-2,1.17-2,3.76,0,7.52,0,11.28,0v0c3.76,0,7.51,0,11.27,0,1.94,0,2.11-.15,2.25-2C410.34,43.56,403.37,35.06,393.56,34.18Zm5.54,15c-2.55.05-5.11,0-7.67,0-2.4,0-4.8,0-7.2,0-1.33,0-1.51-.37-1.06-1.64a7.59,7.59,0,0,1,1.32-2.27c3.47-4.18,10.76-4.2,14.25,0a7,7,0,0,1,1.39,2.49C400.49,48.94,400.36,49.21,399.1,49.23Z" class="cls-1" style=""/><path d="M399.51,94.33c-5.53,0-9.84,4.06-9.88,9.23s4.4,9.38,10,9.38,10-4.12,10-9.38S405.24,94.3,399.51,94.33Zm.14,14.53a5.06,5.06,0,0,1-5.32-5.21,5.18,5.18,0,0,1,5.24-5.35,5.08,5.08,0,0,1,5.26,5.27A4.94,4.94,0,0,1,399.65,108.86Z" class="cls-6" style=""/><path d="M261.5,110.11c-1.5-3.6-3-7.2-4.57-10.77-.67-1.51-.82-3.65-2.22-4.34s-3.28-.14-4.94-.26a2,2,0,0,0-2.34,1.45c-2.1,5-4.29,9.94-6.44,14.91-.18.42-.5.84,0,1.4.72,0,1.52-.06,2.31,0,1.38.12,2.52,0,2.88-1.68.18-.84.85-1,1.65-1,2.48,0,5,0,7.43,0,.7,0,1.32.12,1.48.88.37,1.75,1.59,1.92,3.06,1.79.78-.07,1.57,0,2.34,0A3.62,3.62,0,0,0,261.5,110.11Zm-13.15-4.4c.87-2.13,1.67-4.09,2.46-6.06a.81.81,0,0,1,.66-.59.72.72,0,0,1,.67.56c.69,2,1.75,3.88,2.19,6.09A41.15,41.15,0,0,1,248.35,105.71Z" class="cls-7" style=""/></g></g></svg>