<svg xmlns="http://www.w3.org/2000/svg" fill="none" viewBox="0 0 41 40"><path fill="#292C32" d="M31.5092 33.6259C36.9685 27.6774 41.7916 10.7853 40.8037 10.14C40.3592 9.84968 39.1325 13.8373 37.0322 13.2528C36.2108 13.0243 37.2598 11.2652 37.7262 9.01057C38.1926 6.75592 38.0099 0.595059 36.7496 0.957376C35.4892 1.31969 34.7738 3.01978 31.4183 5.59726C29.6453 6.95909 26.3851 10.4385 25.451 8.62191C25.0286 7.80059 25.512 6.25997 26.2601 3.96787C27.1667 1.19042 26.5789 -0.0747774 25.6242 0.970941C23.8815 2.87964 12.3043 8.12667 8.09773 10.8619C0.139336 17.1879 -4.27986 28.2561 8.87948 36.7038C16.5684 41.6397 26.0498 39.5744 31.5092 33.6259Z" style=""/></svg>