<?xml version="1.0" encoding="UTF-8" standalone="yes"?>
<svg xmlns="http://www.w3.org/2000/svg" viewBox="0 0 20 20">
    <path d="M0 1.99344C0 0.892495 0.895431 0 2 0H18C19.1046 0 20 0.892495 20 1.99344C20 3.09439 19.1046 3.98689 18 3.98689H2C0.895431 3.98689 0 3.09439 0 1.99344Z"
          style="" fill="white"/>
    <path d="M0 9.96721C0 8.86626 0.895431 7.97377 2 7.97377H18C19.1046 7.97377 20 8.86626 20 9.96721C20 11.0682 19.1046 11.9607 18 11.9607H2C0.895431 11.9607 0 11.0682 0 9.96721Z"
          style="" fill="white"/>
    <path d="M0 17.941C0 16.84 0.895431 15.9475 2 15.9475H18C19.1046 15.9475 20 16.84 20 17.941C20 19.0419 19.1046 19.9344 18 19.9344H2C0.895431 19.9344 0 19.0419 0 17.941Z"
          style="" fill="white"/>
</svg>