<svg xmlns="http://www.w3.org/2000/svg" viewBox="0 0 596 105"><path d="M385.318 10.3359C384.214 11.2247 383.462 11.83 384.756 11.83C387.398 11.83 399 9.30704 399 7C399 5.88818 400.651 4.22224 402.066 2.79448C403.587 1.25961 404.835 0 403.466 0C400.824 0 388 4.69296 388 7C388 8.17699 386.468 9.41019 385.318 10.3359ZM357.361 104.421H562C592.5 93.5 608.5 54.32 583.877 54.32C576.146 56.0033 565.776 59.4706 554.991 63.0768C535.259 69.6746 514.138 76.7369 505.242 74.1874C501.956 71.1719 505.847 67.7484 510.699 63.4784C515.803 58.9871 521.971 53.5593 521.971 46.6849C521.971 42.3511 516.696 44.4788 511.996 46.3751C509.02 47.5755 506.274 48.6832 505.242 48C502.58 46.2377 501.5 41.2313 505.242 37.3042C506.883 35.5826 511.067 32.3797 515.914 28.6696C529.051 18.6134 547.057 4.83047 532.477 6.71638C521.097 8.16998 501.127 20.6571 484.118 31.2924C470.918 39.5463 459.501 46.6849 455.269 46.6849C450.881 46.6849 457.622 41.4252 464.997 35.6717C473.9 28.7258 483.726 21.0602 476.005 21.0602C465.072 21.0602 459.001 29.3279 454.638 35.2696C453.367 37.0001 452.241 38.5333 451.182 39.6075C445.06 45.6884 416.928 45.0773 430.708 37.3042C433.444 35.7605 436.774 35.1612 440.292 34.5278C444.221 33.8204 448.386 33.0707 452.225 30.9163C462.434 25.1869 463.258 20.2764 458.473 17.3308C451.555 12.96 439.234 21.8375 426.276 31.1737C417.621 37.4099 408.682 43.8507 400.879 46.6849C393.606 49.269 392.62 52.5793 391.971 54.7622C391.654 55.8268 391.417 56.6233 390.569 56.9367C389.277 57.4131 380.206 58.7413 384.094 54.32C385.933 52.1969 390.936 48.6726 396.4 44.8242C404.828 38.8878 414.35 32.18 415.045 28.6538C416.74 20.0578 405.267 20.3366 403.466 21.0602C402.594 21.4095 403.294 20.5397 404.259 19.3403C405.919 17.2792 408.361 14.2445 404.955 14.7491C399.709 15.5233 392.898 17.077 384.246 21.0602C373.539 25.8578 358.573 33.16 345.774 39.4052C333.347 45.4682 322.963 50.5349 320.5 51.3466C313.965 53.5 308.291 51.2931 323.131 46.6849C329.289 44.7487 337.363 40.8363 342.407 37.3042C349.272 32.4297 351.659 28.0034 345.792 28.0034C337.34 28.0034 328.655 32.773 320.733 37.1236C319.172 37.9811 317.64 38.8223 316.146 39.6075C311.276 42.0955 304.866 46.0819 297.648 50.9027C290.75 54.0344 283.933 56.4077 280 55.5C273.5 54 273 49.5 277.344 42.8494C278.391 41.2452 283.379 37.3459 289.21 32.7868C302.371 22.4974 319.831 8.84736 306 10.6364C296.155 11.894 280.241 22.6903 265.046 32.9983C249.048 43.8517 233.848 54.1636 227.371 52.2301C224.76 49.579 232.924 43.4496 240.382 37.8503C248.266 31.9318 255.36 26.6055 248.106 26.6055C237.884 26.6055 233.208 33.5865 229.081 39.7472C227.508 42.0943 226.016 44.3224 224.327 46C218.204 52.0809 194.22 51.515 208 43.7418C208.46 43.4778 212.132 41.8701 215.885 40.2269C219.764 38.5282 223.731 36.7915 224.327 36.4616C234.535 30.7322 235.359 25.8217 230.575 22.8761C223.147 15.8882 212.335 24.3277 200.578 33.5056C193.223 39.2466 185.498 45.2765 178 48C170.719 50.587 167.466 55.8173 165.33 59.2532C164.291 60.9232 163.516 62.1693 162.671 62.4819C161.378 62.9584 152.307 64.2865 156.195 59.8653C158.035 57.7421 163.038 54.2179 168.501 50.3696C176.929 44.4331 186.452 37.7253 187.146 34.199C188.841 25.6031 177.369 25.8818 175.568 26.6055C174.682 26.9598 175.145 26.5301 176.073 25.6685C177.631 24.2217 180.5 21.5576 180.5 19.3437C180.5 19.0458 180.518 18.7646 180.535 18.5069C180.714 15.7535 180.719 15.6848 156.348 26.6055C147.349 30.6378 133.819 37.2797 121 43.5722C103.761 52.0348 87.8101 59.8653 85.9017 59.8653C82.8352 59.8653 80.3925 56.8384 95.2323 52.2301C101.39 50.2939 109.464 46.3815 114.508 42.8494C121.373 37.975 123.761 33.5486 117.894 33.5486C109.441 33.5486 100.756 38.3182 92.8346 42.6689C91.2733 43.5264 89.7416 44.3676 88.2471 45.1528C73.7483 52.5604 47.8575 70.9587 26.983 85.7925C15.6202 93.8671 5.74371 100.885 0 104.5H354.5C355.489 104.725 356.448 104.687 357.361 104.421ZM481.372 59.426C479.193 61.0481 476.724 62.8868 474.281 65.0205C472.193 66.8431 470.215 68.7384 468.348 70.5263C462.099 76.5109 457.106 81.2936 453.498 78.1304C450.663 75.6446 453.968 73.8015 459.031 70.978C462.335 69.1352 466.388 66.8748 469.971 63.7457C473.561 60.6109 475.87 57.1212 477.747 54.2838C480.615 49.9494 482.475 47.1371 486.358 49.4366C491.053 52.2168 487.283 55.0241 481.372 59.426ZM386.049 41.2313C386.049 43.5384 370.609 53.8582 367.799 51.3466C364.989 48.835 376.299 40.9484 381.162 38.1966C386.025 35.4447 398.839 28.9928 398.839 31.2875C398.839 32.4333 395.65 34.3389 392.457 36.2471C389.255 38.1604 386.049 40.0763 386.049 41.2313ZM367.334 8.69169C365.638 9.80345 363.839 10.9819 361.966 12.0852C359.47 13.5556 356.736 14.7684 354.275 15.8604C348.708 18.3305 344.533 20.1827 347.645 23C350.572 25.6494 353.662 22.9701 357.717 19.4551C359.88 17.58 362.317 15.4671 365.15 13.7985C368.366 11.9043 371.83 10.7751 374.654 9.85452C378.98 8.44398 381.805 7.52319 379.934 5.09112C377.552 1.99632 373.014 4.9703 367.334 8.69169ZM526.044 54.9057C526.044 57.2127 528.186 59.0829 530.828 59.0829C533.47 59.0829 535.612 57.2127 535.612 54.9057C535.612 52.5986 533.47 50.7284 530.828 50.7284C528.186 50.7284 526.044 52.5986 526.044 54.9057ZM397.564 70C400.805 70 394.54 75.995 386.5 83.5C368.5 97.5 383.348 79.1722 386.049 76C388.03 73.6722 393.5 70.5 397.564 70ZM157.629 15.1647C156.417 16.4129 155.482 17.3753 156.858 17.3753C159.5 17.3753 169.666 13.8242 169.666 11.5171C169.666 10.3142 171.265 9.13764 172.421 8.28699C173.483 7.50621 174.171 7 172.906 7C170.264 7 160.098 9.21008 160.098 11.5171C160.098 12.6232 158.746 14.0152 157.629 15.1647ZM253.473 64.9713C251.295 66.5934 248.826 68.4321 246.382 70.5657C244.295 72.3884 242.316 74.2836 240.45 76.0715C234.201 82.0561 229.207 86.8388 225.599 83.6757C222.764 81.1899 226.069 79.3467 231.132 76.5233C234.436 74.6805 238.489 72.4201 242.073 69.291C245.663 66.1561 247.972 62.6664 249.849 59.829C252.716 55.4947 254.577 52.6824 258.46 54.9818C263.154 57.762 259.384 60.5694 253.473 64.9713ZM152.412 50.7657C147.496 54.4242 141.845 58.6296 139.9 56.8918C137.09 54.3802 148.401 46.4937 153.264 43.7418C158.127 40.99 170.94 34.5381 170.94 36.8327C170.94 38.0439 167.92 39.9011 164.781 41.8313C161.973 43.5582 159.07 45.3435 158.15 46.7766C156.645 47.6157 154.601 49.1365 152.412 50.7657ZM139.436 14.237C137.739 15.3487 135.941 16.5272 134.068 17.6305C131.875 18.922 129.702 19.9757 127.785 20.9053C122.583 23.4278 119.266 25.0366 122.545 28.0054C125.258 30.4608 127.089 28.5365 129.911 25.5707C131.758 23.6291 134.03 21.2413 137.251 19.3437C140.467 17.4496 143.931 16.3204 146.755 15.3998C151.082 13.9892 153.906 13.0684 152.035 10.6364C149.654 7.54156 145.115 10.5156 139.436 14.237ZM177.057 69.291C197 62.4819 169.666 81.373 162.9 85.5503C148 94.7498 156.482 82.3596 160.098 79.7326C164.652 76.4241 172.906 70.5657 177.057 69.291Z" fill="#fc2860"/></svg>